<ttFont>
    <TTGlyph name=".notdef" xMin="50" yMin="0" xMax="1074" yMax="1280">
      <contour>
        <pt x="50" y="0" on="1"/>
        <pt x="50" y="1280" on="1"/>
        <pt x="1074" y="1280" on="1"/>
        <pt x="1074" y="0" on="1"/>
      </contour>
      <contour>
        <pt x="82" y="32" on="1"/>
        <pt x="1042" y="32" on="1"/>
        <pt x="1042" y="1248" on="1"/>
        <pt x="82" y="1248" on="1"/>
      </contour>
    </TTGlyph>
    <TTGlyph name="A" xMin="-107" yMin="0" xMax="1315" yMax="1430">
      <contour>
        <pt x="12" y="0" on="1"/>
        <pt x="-107" y="0" on="1"/>
        <pt x="826" y="1430" on="1"/>
        <pt x="951" y="1430" on="1"/>
        <pt x="1315" y="0" on="1"/>
        <pt x="1197" y="0" on="1"/>
        <pt x="1081" y="480" on="1"/>
        <pt x="440" y="480" on="1"/>
        <pt x="489" y="570" on="1"/>
        <pt x="1060" y="570" on="1"/>
        <pt x="873" y="1348" on="1"/>
      </contour>
    </TTGlyph>
    <TTGlyph name="AE" xMin="-107" yMin="0" xMax="1884" yMax="1430">
      <contour>
        <pt x="-107" y="0" on="1"/>
        <pt x="786" y="1430" on="1"/>
        <pt x="1884" y="1430" on="1"/>
        <pt x="1866" y="1340" on="1"/>
        <pt x="948" y="1340" on="1"/>
        <pt x="1074" y="770" on="1"/>
        <pt x="1717" y="770" on="1"/>
        <pt x="1699" y="680" on="1"/>
        <pt x="1095" y="680" on="1"/>
        <pt x="1233" y="90" on="1"/>
        <pt x="1636" y="90" on="1"/>
        <pt x="1618" y="0" on="1"/>
        <pt x="1127" y="0" on="1"/>
        <pt x="841" y="1353" on="1"/>
        <pt x="381" y="570" on="1"/>
        <pt x="882" y="570" on="1"/>
        <pt x="892" y="480" on="1"/>
        <pt x="305" y="480" on="1"/>
        <pt x="22" y="0" on="1"/>
      </contour>
    </TTGlyph>
    <TTGlyph name="Aacute" xMin="-107" yMin="0" xMax="1315" yMax="1810">
      <component glyphName="A" x="0" y="0" flags="0x200"/>
      <component glyphName="acute" x="598" y="380" flags="0x0"/>
    </TTGlyph>
    <TTGlyph name="Abreve" xMin="-107" yMin="0" xMax="1315" yMax="1810">
      <component glyphName="A" x="0" y="0" flags="0x200"/>
      <component glyphName="breve" x="451" y="380" flags="0x0"/>
    </TTGlyph>
    <TTGlyph name="Acircumflex" xMin="-107" yMin="0" xMax="1315" yMax="1810">
      <component glyphName="A" x="0" y="0" flags="0x200"/>
      <component glyphName="circumflex" x="456" y="380" flags="0x0"/>
    </TTGlyph>
    <TTGlyph name="Adieresis" xMin="-107" yMin="0" xMax="1315" yMax="1790">
      <component glyphName="A" x="0" y="0" flags="0x200"/>
      <component glyphName="dieresis" x="489" y="380" flags="0x0"/>
    </TTGlyph>
    <TTGlyph name="Agrave" xMin="-107" yMin="0" xMax="1315" yMax="1810">
      <component glyphName="A" x="0" y="0" flags="0x200"/>
      <component glyphName="grave" x="431" y="380" flags="0x0"/>
    </TTGlyph>
    <TTGlyph name="Alpha" xMin="-107" yMin="0" xMax="1315" yMax="1430">
      <component glyphName="A" x="0" y="0" flags="0x200"/>
    </TTGlyph>
    <TTGlyph name="Alphatonos" xMin="-107" yMin="0" xMax="1315" yMax="1430">
      <component glyphName="tonos" x="0" y="0" flags="0x0"/>
      <component glyphName="Alpha" x="0" y="0" flags="0x200"/>
    </TTGlyph>
    <TTGlyph name="Amacron" xMin="-107" yMin="0" xMax="1315" yMax="1810">
      <component glyphName="A" x="0" y="0" flags="0x200"/>
      <component glyphName="macron" x="456" y="380" flags="0x0"/>
    </TTGlyph>
    <TTGlyph name="Aogonek" xMin="-107" yMin="-426" xMax="1315" yMax="1430">
      <contour>
        <pt x="12" y="0" on="1"/>
        <pt x="-107" y="0" on="1"/>
        <pt x="826" y="1430" on="1"/>
        <pt x="951" y="1430" on="1"/>
        <pt x="1315" y="0" on="1"/>
        <pt x="1048" y="-126" on="0"/>
        <pt x="1027" y="-228" on="1"/>
        <pt x="1004" y="-346" on="0"/>
        <pt x="1129" y="-346" on="1"/>
        <pt x="1214" y="-346" on="0"/>
        <pt x="1270" y="-326" on="1"/>
        <pt x="1254" y="-406" on="1"/>
        <pt x="1189" y="-426" on="0"/>
        <pt x="1101" y="-426" on="1"/>
        <pt x="890" y="-426" on="0"/>
        <pt x="924" y="-253" on="1"/>
        <pt x="955" y="-102" on="0"/>
        <pt x="1197" y="0" on="1"/>
        <pt x="1081" y="480" on="1"/>
        <pt x="440" y="480" on="1"/>
        <pt x="489" y="570" on="1"/>
        <pt x="1060" y="570" on="1"/>
        <pt x="873" y="1348" on="1"/>
      </contour>
    </TTGlyph>
    <TTGlyph name="Aring" xMin="-107" yMin="0" xMax="1315" yMax="1817">
      <contour>
        <pt x="902" y="1482" on="1"/>
        <pt x="1036" y="1482" on="0"/>
        <pt x="1064" y="1619" on="1"/>
        <pt x="1091" y="1753" on="0"/>
        <pt x="957" y="1753" on="1"/>
        <pt x="819" y="1753" on="0"/>
        <pt x="792" y="1619" on="1"/>
        <pt x="764" y="1482" on="0"/>
      </contour>
      <contour>
        <pt x="15" y="0" on="1"/>
        <pt x="-107" y="0" on="1"/>
        <pt x="822" y="1424" on="1"/>
        <pt x="678" y="1452" on="0"/>
        <pt x="711" y="1617" on="1"/>
        <pt x="751" y="1817" on="0"/>
        <pt x="969" y="1817" on="1"/>
        <pt x="1183" y="1817" on="0"/>
        <pt x="1143" y="1617" on="1"/>
        <pt x="1110" y="1449" on="0"/>
        <pt x="953" y="1423" on="1"/>
        <pt x="1315" y="0" on="1"/>
        <pt x="1200" y="0" on="1"/>
        <pt x="1084" y="480" on="1"/>
        <pt x="443" y="480" on="1"/>
        <pt x="492" y="570" on="1"/>
        <pt x="1063" y="570" on="1"/>
        <pt x="876" y="1348" on="1"/>
      </contour>
    </TTGlyph>
    <TTGlyph name="Atilde" xMin="-107" yMin="0" xMax="1315" yMax="1810">
      <component glyphName="A" x="0" y="0" flags="0x200"/>
      <component glyphName="tilde" x="456" y="380" flags="0x0"/>
    </TTGlyph>
    <TTGlyph name="B" xMin="18" yMin="0" xMax="1322" yMax="1430">
      <contour>
        <pt x="18" y="0" on="1"/>
        <pt x="304" y="1430" on="1"/>
        <pt x="914" y="1430" on="1"/>
        <pt x="1322" y="1430" on="0"/>
        <pt x="1255" y="1097" on="1"/>
        <pt x="1207" y="853" on="0"/>
        <pt x="890" y="748" on="1"/>
        <pt x="1193" y="695" on="0"/>
        <pt x="1137" y="413" on="1"/>
        <pt x="1054" y="0" on="0"/>
        <pt x="607" y="0" on="1"/>
      </contour>
      <contour>
        <pt x="614" y="90" on="1"/>
        <pt x="960" y="90" on="0"/>
        <pt x="1024" y="410" on="1"/>
        <pt x="1081" y="693" on="0"/>
        <pt x="648" y="693" on="1"/>
        <pt x="568" y="693" on="1"/>
        <pt x="582" y="764" on="1"/>
        <pt x="1091" y="809" on="0"/>
        <pt x="1147" y="1090" on="1"/>
        <pt x="1197" y="1340" on="0"/>
        <pt x="889" y="1340" on="1"/>
        <pt x="391" y="1340" on="1"/>
        <pt x="141" y="90" on="1"/>
      </contour>
    </TTGlyph>
    <TTGlyph name="Beta" xMin="18" yMin="0" xMax="1322" yMax="1430">
      <component glyphName="B" x="0" y="0" flags="0x200"/>
    </TTGlyph>
    <TTGlyph name="C" xMin="-34" yMin="-10" xMax="1394" yMax="1440">
      <contour>
        <pt x="1128" y="50" on="1"/>
        <pt x="921" y="-10" on="0"/>
        <pt x="716" y="-10" on="1"/>
        <pt x="-34" y="-10" on="0"/>
        <pt x="115" y="735" on="1"/>
        <pt x="256" y="1440" on="0"/>
        <pt x="1006" y="1440" on="1"/>
        <pt x="1211" y="1440" on="0"/>
        <pt x="1394" y="1380" on="1"/>
        <pt x="1376" y="1290" on="1"/>
        <pt x="1193" y="1350" on="0"/>
        <pt x="1008" y="1350" on="1"/>
        <pt x="343" y="1350" on="0"/>
        <pt x="220" y="735" on="1"/>
        <pt x="89" y="80" on="0"/>
        <pt x="754" y="80" on="1"/>
        <pt x="939" y="80" on="0"/>
        <pt x="1146" y="140" on="1"/>
      </contour>
    </TTGlyph>
    <TTGlyph name="Cacute" xMin="-34" yMin="-10" xMax="1394" yMax="1810">
      <component glyphName="C" x="0" y="0" flags="0x200"/>
      <component glyphName="acute" x="627" y="380" flags="0x0"/>
    </TTGlyph>
    <TTGlyph name="Ccaron" xMin="-34" yMin="-10" xMax="1394" yMax="1810">
      <component glyphName="C" x="0" y="0" flags="0x200"/>
      <component glyphName="caron" x="506" y="380" flags="0x0"/>
    </TTGlyph>
    <TTGlyph name="Ccedilla" xMin="-25" yMin="-422" xMax="1394" yMax="1440">
      <contour>
        <pt x="630" y="-7" on="1"/>
        <pt x="-25" y="34" on="0"/>
        <pt x="115" y="735" on="1"/>
        <pt x="256" y="1440" on="0"/>
        <pt x="1006" y="1440" on="1"/>
        <pt x="1211" y="1440" on="0"/>
        <pt x="1394" y="1380" on="1"/>
        <pt x="1376" y="1290" on="1"/>
        <pt x="1193" y="1350" on="0"/>
        <pt x="1008" y="1350" on="1"/>
        <pt x="343" y="1350" on="0"/>
        <pt x="220" y="735" on="1"/>
        <pt x="89" y="80" on="0"/>
        <pt x="754" y="80" on="1"/>
        <pt x="939" y="80" on="0"/>
        <pt x="1146" y="140" on="1"/>
        <pt x="1128" y="50" on="1"/>
        <pt x="926" y="-9" on="0"/>
        <pt x="726" y="-10" on="1"/>
        <pt x="677" y="-77" on="1"/>
        <pt x="901" y="-77" on="0"/>
        <pt x="866" y="-249" on="1"/>
        <pt x="832" y="-422" on="0"/>
        <pt x="591" y="-422" on="1"/>
        <pt x="483" y="-422" on="0"/>
        <pt x="385" y="-372" on="1"/>
        <pt x="402" y="-284" on="1"/>
        <pt x="498" y="-344" on="0"/>
        <pt x="606" y="-344" on="1"/>
        <pt x="754" y="-344" on="0"/>
        <pt x="773" y="-249" on="1"/>
        <pt x="792" y="-155" on="0"/>
        <pt x="669" y="-155" on="1"/>
        <pt x="516" y="-155" on="1"/>
      </contour>
    </TTGlyph>
    <TTGlyph name="Ccircumflex" xMin="-34" yMin="-10" xMax="1394" yMax="1810">
      <component glyphName="C" x="0" y="0" flags="0x200"/>
      <component glyphName="circumflex" x="545" y="380" flags="0x0"/>
    </TTGlyph>
    <TTGlyph name="Cdotaccent" xMin="-34" yMin="-10" xMax="1394" yMax="1810">
      <component glyphName="C" x="0" y="0" flags="0x200"/>
      <component glyphName="dotaccent" x="693" y="380" flags="0x0"/>
    </TTGlyph>
    <TTGlyph name="Chi" xMin="-107" yMin="0" xMax="1429" yMax="1430">
      <contour>
        <pt x="599" y="715" on="1"/>
        <pt x="179" y="1430" on="1"/>
        <pt x="304" y="1430" on="1"/>
        <pt x="677" y="794" on="1"/>
        <pt x="1304" y="1430" on="1"/>
        <pt x="1429" y="1430" on="1"/>
        <pt x="724" y="715" on="1"/>
        <pt x="1143" y="0" on="1"/>
        <pt x="1018" y="0" on="1"/>
        <pt x="645" y="636" on="1"/>
        <pt x="18" y="0" on="1"/>
        <pt x="-107" y="0" on="1"/>
      </contour>
    </TTGlyph>
    <TTGlyph name="D" xMin="18" yMin="0" xMax="1514" yMax="1430">
      <contour>
        <pt x="536" y="90" on="1"/>
        <pt x="1131" y="90" on="0"/>
        <pt x="1264" y="754" on="1"/>
        <pt x="1381" y="1340" on="0"/>
        <pt x="786" y="1340" on="1"/>
        <pt x="391" y="1340" on="1"/>
        <pt x="141" y="90" on="1"/>
      </contour>
      <contour>
        <pt x="18" y="0" on="1"/>
        <pt x="304" y="1430" on="1"/>
        <pt x="814" y="1430" on="1"/>
        <pt x="1514" y="1430" on="0"/>
        <pt x="1379" y="754" on="1"/>
        <pt x="1228" y="0" on="0"/>
        <pt x="518" y="0" on="1"/>
      </contour>
    </TTGlyph>
    <TTGlyph name="Dcaron" xMin="18" yMin="0" xMax="1514" yMax="1810">
      <component glyphName="D" x="0" y="0" flags="0x200"/>
      <component glyphName="caron" x="415" y="380" flags="0x0"/>
    </TTGlyph>
    <TTGlyph name="Dcroat" xMin="-46" yMin="0" xMax="1514" yMax="1430">
      <component glyphName="Eth" x="0" y="0" flags="0x200"/>
    </TTGlyph>
    <TTGlyph name="Delta" xMin="-107" yMin="0" xMax="1315" yMax="1430">
      <contour>
        <pt x="-107" y="0" on="1"/>
        <pt x="826" y="1430" on="1"/>
        <pt x="952" y="1430" on="1"/>
        <pt x="1315" y="0" on="1"/>
      </contour>
      <contour>
        <pt x="1174" y="90" on="1"/>
        <pt x="873" y="1348" on="1"/>
        <pt x="72" y="90" on="1"/>
      </contour>
    </TTGlyph>
    <TTGlyph name="E" xMin="18" yMin="0" xMax="1243" yMax="1430">
      <contour>
        <pt x="1243" y="1430" on="1"/>
        <pt x="1225" y="1340" on="1"/>
        <pt x="391" y="1340" on="1"/>
        <pt x="277" y="770" on="1"/>
        <pt x="1077" y="770" on="1"/>
        <pt x="1059" y="680" on="1"/>
        <pt x="259" y="680" on="1"/>
        <pt x="141" y="90" on="1"/>
        <pt x="989" y="90" on="1"/>
        <pt x="971" y="0" on="1"/>
        <pt x="18" y="0" on="1"/>
        <pt x="304" y="1430" on="1"/>
      </contour>
    </TTGlyph>
    <TTGlyph name="Eacute" xMin="18" yMin="0" xMax="1243" yMax="1810">
      <component glyphName="E" x="0" y="0" flags="0x200"/>
      <component glyphName="acute" x="489" y="380" flags="0x0"/>
    </TTGlyph>
    <TTGlyph name="Ebreve" xMin="18" yMin="0" xMax="1243" yMax="1810">
      <component glyphName="E" x="0" y="0" flags="0x200"/>
      <component glyphName="breve" x="342" y="380" flags="0x0"/>
    </TTGlyph>
    <TTGlyph name="Ecaron" xMin="18" yMin="0" xMax="1243" yMax="1810">
      <component glyphName="E" x="0" y="0" flags="0x200"/>
      <component glyphName="caron" x="347" y="380" flags="0x0"/>
    </TTGlyph>
    <TTGlyph name="Ecircumflex" xMin="18" yMin="0" xMax="1243" yMax="1810">
      <component glyphName="E" x="0" y="0" flags="0x200"/>
      <component glyphName="circumflex" x="347" y="380" flags="0x0"/>
    </TTGlyph>
    <TTGlyph name="Edieresis" xMin="18" yMin="0" xMax="1243" yMax="1790">
      <component glyphName="E" x="0" y="0" flags="0x200"/>
      <component glyphName="dieresis" x="379" y="380" flags="0x0"/>
    </TTGlyph>
    <TTGlyph name="Edotaccent" xMin="18" yMin="0" xMax="1243" yMax="1810">
      <component glyphName="E" x="0" y="0" flags="0x200"/>
      <component glyphName="dotaccent" x="514" y="380" flags="0x0"/>
    </TTGlyph>
    <TTGlyph name="Egrave" xMin="18" yMin="0" xMax="1243" yMax="1810">
      <component glyphName="E" x="0" y="0" flags="0x200"/>
      <component glyphName="grave" x="381" y="380" flags="0x0"/>
    </TTGlyph>
    <TTGlyph name="Emacron" xMin="18" yMin="0" xMax="1243" yMax="1810">
      <component glyphName="E" x="0" y="0" flags="0x200"/>
      <component glyphName="macron" x="347" y="380" flags="0x0"/>
    </TTGlyph>
    <TTGlyph name="Eng" xMin="18" yMin="-368" xMax="1489" yMax="1430">
      <contour>
        <pt x="1394" y="1430" on="1"/>
        <pt x="1489" y="1430" on="1"/>
        <pt x="1219" y="80" on="1"/>
        <pt x="1155" y="-238" on="0"/>
        <pt x="974" y="-368" on="1"/>
        <pt x="912" y="-303" on="1"/>
        <pt x="1047" y="-228" on="0"/>
        <pt x="1109" y="15" on="1"/>
        <pt x="375" y="1312" on="1"/>
        <pt x="113" y="0" on="1"/>
        <pt x="18" y="0" on="1"/>
        <pt x="304" y="1430" on="1"/>
        <pt x="419" y="1430" on="1"/>
        <pt x="1139" y="154" on="1"/>
      </contour>
    </TTGlyph>
    <TTGlyph name="Eogonek" xMin="18" yMin="-426" xMax="1243" yMax="1430">
      <contour>
        <pt x="846" y="0" on="1"/>
        <pt x="18" y="0" on="1"/>
        <pt x="304" y="1430" on="1"/>
        <pt x="1243" y="1430" on="1"/>
        <pt x="1225" y="1340" on="1"/>
        <pt x="391" y="1340" on="1"/>
        <pt x="277" y="770" on="1"/>
        <pt x="1077" y="770" on="1"/>
        <pt x="1059" y="680" on="1"/>
        <pt x="259" y="680" on="1"/>
        <pt x="141" y="90" on="1"/>
        <pt x="989" y="90" on="1"/>
        <pt x="971" y="0" on="1"/>
        <pt x="704" y="-126" on="0"/>
        <pt x="683" y="-228" on="1"/>
        <pt x="660" y="-346" on="0"/>
        <pt x="785" y="-346" on="1"/>
        <pt x="870" y="-346" on="0"/>
        <pt x="926" y="-326" on="1"/>
        <pt x="910" y="-406" on="1"/>
        <pt x="845" y="-426" on="0"/>
        <pt x="757" y="-426" on="1"/>
        <pt x="546" y="-426" on="0"/>
        <pt x="580" y="-253" on="1"/>
        <pt x="611" y="-102" on="0"/>
      </contour>
    </TTGlyph>
    <TTGlyph name="Epsilon" xMin="18" yMin="0" xMax="1243" yMax="1430">
      <component glyphName="E" x="0" y="0" flags="0x200"/>
    </TTGlyph>
    <TTGlyph name="Epsilontonos" xMin="46" yMin="0" xMax="1416" yMax="1430">
      <contour>
        <pt x="258" y="1430" on="1"/>
        <pt x="417" y="1430" on="1"/>
        <pt x="130" y="1191" on="1"/>
        <pt x="46" y="1191" on="1"/>
      </contour>
      <contour>
        <pt x="1416" y="1430" on="1"/>
        <pt x="1398" y="1340" on="1"/>
        <pt x="564" y="1340" on="1"/>
        <pt x="450" y="770" on="1"/>
        <pt x="1250" y="770" on="1"/>
        <pt x="1232" y="680" on="1"/>
        <pt x="432" y="680" on="1"/>
        <pt x="314" y="90" on="1"/>
        <pt x="1162" y="90" on="1"/>
        <pt x="1144" y="0" on="1"/>
        <pt x="191" y="0" on="1"/>
        <pt x="477" y="1430" on="1"/>
      </contour>
    </TTGlyph>
    <TTGlyph name="Eta" xMin="18" yMin="0" xMax="1489" yMax="1430">
      <component glyphName="H" x="0" y="0" flags="0x200"/>
    </TTGlyph>
    <TTGlyph name="Etatonos" xMin="46" yMin="0" xMax="1662" yMax="1430">
      <contour>
        <pt x="258" y="1430" on="1"/>
        <pt x="417" y="1430" on="1"/>
        <pt x="130" y="1191" on="1"/>
        <pt x="46" y="1191" on="1"/>
      </contour>
      <contour>
        <pt x="191" y="0" on="1"/>
        <pt x="477" y="1430" on="1"/>
        <pt x="582" y="1430" on="1"/>
        <pt x="450" y="770" on="1"/>
        <pt x="1425" y="770" on="1"/>
        <pt x="1557" y="1430" on="1"/>
        <pt x="1662" y="1430" on="1"/>
        <pt x="1376" y="0" on="1"/>
        <pt x="1271" y="0" on="1"/>
        <pt x="1407" y="680" on="1"/>
        <pt x="432" y="680" on="1"/>
        <pt x="296" y="0" on="1"/>
      </contour>
    </TTGlyph>
    <TTGlyph name="Eth" xMin="-46" yMin="0" xMax="1514" yMax="1430">
      <contour>
        <pt x="277" y="770" on="1"/>
        <pt x="722" y="770" on="1"/>
        <pt x="704" y="680" on="1"/>
        <pt x="259" y="680" on="1"/>
        <pt x="141" y="90" on="1"/>
        <pt x="536" y="90" on="1"/>
        <pt x="1131" y="90" on="0"/>
        <pt x="1264" y="754" on="1"/>
        <pt x="1381" y="1340" on="0"/>
        <pt x="786" y="1340" on="1"/>
        <pt x="391" y="1340" on="1"/>
      </contour>
      <contour>
        <pt x="154" y="680" on="1"/>
        <pt x="-46" y="680" on="1"/>
        <pt x="-28" y="770" on="1"/>
        <pt x="172" y="770" on="1"/>
        <pt x="304" y="1430" on="1"/>
        <pt x="814" y="1430" on="1"/>
        <pt x="1514" y="1430" on="0"/>
        <pt x="1379" y="754" on="1"/>
        <pt x="1228" y="0" on="0"/>
        <pt x="518" y="0" on="1"/>
        <pt x="18" y="0" on="1"/>
      </contour>
    </TTGlyph>
    <TTGlyph name="Euro" xMin="-34" yMin="-10" xMax="1394" yMax="1440">
      <contour>
        <pt x="1128" y="50" on="1"/>
        <pt x="931" y="-10" on="0"/>
        <pt x="716" y="-10" on="1"/>
        <pt x="-34" y="-10" on="0"/>
        <pt x="115" y="735" on="1"/>
        <pt x="256" y="1440" on="0"/>
        <pt x="1006" y="1440" on="1"/>
        <pt x="1221" y="1440" on="0"/>
        <pt x="1394" y="1380" on="1"/>
        <pt x="1374" y="1280" on="1"/>
        <pt x="1203" y="1350" on="0"/>
        <pt x="1008" y="1350" on="1"/>
        <pt x="440" y="1350" on="0"/>
        <pt x="275" y="912" on="1"/>
        <pt x="1108" y="912" on="1"/>
        <pt x="1090" y="822" on="1"/>
        <pt x="247" y="822" on="1"/>
        <pt x="213" y="652" on="1"/>
        <pt x="1056" y="652" on="1"/>
        <pt x="1038" y="562" on="1"/>
        <pt x="205" y="562" on="1"/>
        <pt x="186" y="80" on="0"/>
        <pt x="754" y="80" on="1"/>
        <pt x="949" y="80" on="0"/>
        <pt x="1148" y="150" on="1"/>
      </contour>
    </TTGlyph>
    <TTGlyph name="F" xMin="18" yMin="0" xMax="1243" yMax="1430">
      <contour>
        <pt x="1243" y="1430" on="1"/>
        <pt x="1225" y="1340" on="1"/>
        <pt x="391" y="1340" on="1"/>
        <pt x="277" y="770" on="1"/>
        <pt x="1077" y="770" on="1"/>
        <pt x="1059" y="680" on="1"/>
        <pt x="259" y="680" on="1"/>
        <pt x="123" y="0" on="1"/>
        <pt x="18" y="0" on="1"/>
        <pt x="304" y="1430" on="1"/>
      </contour>
    </TTGlyph>
    <TTGlyph name="G" xMin="-34" yMin="-10" xMax="1394" yMax="1440">
      <contour>
        <pt x="1129" y="56" on="1"/>
        <pt x="933" y="-10" on="0"/>
        <pt x="733" y="-10" on="1"/>
        <pt x="-34" y="-10" on="0"/>
        <pt x="115" y="735" on="1"/>
        <pt x="256" y="1440" on="0"/>
        <pt x="1006" y="1440" on="1"/>
        <pt x="1211" y="1440" on="0"/>
        <pt x="1394" y="1380" on="1"/>
        <pt x="1376" y="1290" on="1"/>
        <pt x="1193" y="1350" on="0"/>
        <pt x="1008" y="1350" on="1"/>
        <pt x="343" y="1350" on="0"/>
        <pt x="220" y="735" on="1"/>
        <pt x="89" y="80" on="0"/>
        <pt x="735" y="80" on="1"/>
        <pt x="867" y="80" on="0"/>
        <pt x="1038" y="124" on="1"/>
        <pt x="1143" y="650" on="1"/>
        <pt x="1248" y="650" on="1"/>
      </contour>
    </TTGlyph>
    <TTGlyph name="Gamma" xMin="18" yMin="0" xMax="1157" yMax="1430">
      <contour>
        <pt x="18" y="0" on="1"/>
        <pt x="304" y="1430" on="1"/>
        <pt x="1157" y="1430" on="1"/>
        <pt x="1139" y="1340" on="1"/>
        <pt x="391" y="1340" on="1"/>
        <pt x="123" y="0" on="1"/>
      </contour>
    </TTGlyph>
    <TTGlyph name="Gbreve" xMin="-34" yMin="-10" xMax="1394" yMax="1810">
      <component glyphName="G" x="0" y="0" flags="0x200"/>
      <component glyphName="breve" x="510" y="380" flags="0x0"/>
    </TTGlyph>
    <TTGlyph name="Gcircumflex" xMin="-34" yMin="-10" xMax="1394" yMax="1810">
      <component glyphName="G" x="0" y="0" flags="0x200"/>
      <component glyphName="circumflex" x="485" y="380" flags="0x0"/>
    </TTGlyph>
    <TTGlyph name="Gcommaaccent" xMin="-34" yMin="-380" xMax="1394" yMax="1440">
      <component glyphName="G" x="0" y="0" flags="0x200"/>
      <component glyphName="commaccent" x="533" y="0" flags="0x0"/>
    </TTGlyph>
    <TTGlyph name="Gdotaccent" xMin="-34" yMin="-10" xMax="1394" yMax="1810">
      <component glyphName="G" x="0" y="0" flags="0x200"/>
      <component glyphName="dotaccent" x="693" y="380" flags="0x0"/>
    </TTGlyph>
    <TTGlyph name="H" xMin="18" yMin="0" xMax="1489" yMax="1430">
      <contour>
        <pt x="18" y="0" on="1"/>
        <pt x="304" y="1430" on="1"/>
        <pt x="409" y="1430" on="1"/>
        <pt x="277" y="770" on="1"/>
        <pt x="1252" y="770" on="1"/>
        <pt x="1384" y="1430" on="1"/>
        <pt x="1489" y="1430" on="1"/>
        <pt x="1203" y="0" on="1"/>
        <pt x="1098" y="0" on="1"/>
        <pt x="1234" y="680" on="1"/>
        <pt x="259" y="680" on="1"/>
        <pt x="123" y="0" on="1"/>
      </contour>
    </TTGlyph>
    <TTGlyph name="Hbar" xMin="18" yMin="0" xMax="1489" yMax="1430">
      <contour>
        <pt x="1326" y="1140" on="1"/>
        <pt x="1384" y="1430" on="1"/>
        <pt x="1489" y="1430" on="1"/>
        <pt x="1203" y="0" on="1"/>
        <pt x="1098" y="0" on="1"/>
        <pt x="1234" y="680" on="1"/>
        <pt x="259" y="680" on="1"/>
        <pt x="123" y="0" on="1"/>
        <pt x="18" y="0" on="1"/>
        <pt x="304" y="1430" on="1"/>
        <pt x="409" y="1430" on="1"/>
        <pt x="351" y="1140" on="1"/>
      </contour>
      <contour>
        <pt x="333" y="1050" on="1"/>
        <pt x="277" y="770" on="1"/>
        <pt x="1252" y="770" on="1"/>
        <pt x="1308" y="1050" on="1"/>
      </contour>
    </TTGlyph>
    <TTGlyph name="Hcircumflex" xMin="18" yMin="0" xMax="1489" yMax="1810">
      <component glyphName="H" x="0" y="0" flags="0x200"/>
      <component glyphName="circumflex" x="463" y="380" flags="0x0"/>
    </TTGlyph>
    <TTGlyph name="I" xMin="68" yMin="0" xMax="459" yMax="1430">
      <contour>
        <pt x="459" y="1430" on="1"/>
        <pt x="173" y="0" on="1"/>
        <pt x="68" y="0" on="1"/>
        <pt x="354" y="1430" on="1"/>
      </contour>
    </TTGlyph>
    <TTGlyph name="IJ" xMin="68" yMin="0" xMax="1159" yMax="1430">
      <component glyphName="I" x="0" y="0" flags="0x0"/>
      <component glyphName="J" x="525" y="0" flags="0x0"/>
    </TTGlyph>
    <TTGlyph name="Iacute" xMin="68" yMin="0" xMax="722" yMax="1810">
      <component glyphName="I" x="0" y="0" flags="0x200"/>
      <component glyphName="acute" x="155" y="380" flags="0x0"/>
    </TTGlyph>
    <TTGlyph name="Ibreve" xMin="69" yMin="0" xMax="732" yMax="1810">
      <component glyphName="I" x="1" y="0" flags="0x200"/>
      <component glyphName="breve" x="-22" y="380" flags="0x0"/>
    </TTGlyph>
    <TTGlyph name="Icircumflex" xMin="69" yMin="0" xMax="685" yMax="1810">
      <component glyphName="I" x="1" y="0" flags="0x200"/>
      <component glyphName="circumflex" x="-7" y="380" flags="0x0"/>
    </TTGlyph>
    <TTGlyph name="Idieresis" xMin="78" yMin="0" xMax="710" yMax="1790">
      <component glyphName="I" x="10" y="0" flags="0x200"/>
      <component glyphName="dieresis" x="25" y="380" flags="0x0"/>
    </TTGlyph>
    <TTGlyph name="Idotaccent" xMin="68" yMin="0" xMax="559" yMax="1810">
      <component glyphName="I" x="0" y="0" flags="0x200"/>
      <component glyphName="dotaccent" x="150" y="380" flags="0x0"/>
    </TTGlyph>
    <TTGlyph name="Igrave" xMin="68" yMin="0" xMax="486" yMax="1810">
      <component glyphName="I" x="0" y="0" flags="0x200"/>
      <component glyphName="grave" x="-33" y="380" flags="0x0"/>
    </TTGlyph>
    <TTGlyph name="Imacron" xMin="69" yMin="0" xMax="727" yMax="1810">
      <component glyphName="I" x="1" y="0" flags="0x200"/>
      <component glyphName="macron" x="-17" y="380" flags="0x0"/>
    </TTGlyph>
    <TTGlyph name="Iogonek" xMin="-232" yMin="-426" xMax="459" yMax="1430">
      <contour>
        <pt x="68" y="0" on="1"/>
        <pt x="354" y="1430" on="1"/>
        <pt x="459" y="1430" on="1"/>
        <pt x="173" y="0" on="1"/>
        <pt x="-74" y="-126" on="0"/>
        <pt x="-94" y="-228" on="1"/>
        <pt x="-118" y="-346" on="0"/>
        <pt x="7" y="-346" on="1"/>
        <pt x="92" y="-346" on="0"/>
        <pt x="148" y="-326" on="1"/>
        <pt x="132" y="-406" on="1"/>
        <pt x="67" y="-426" on="0"/>
        <pt x="-21" y="-426" on="1"/>
        <pt x="-232" y="-426" on="0"/>
        <pt x="-197" y="-253" on="1"/>
        <pt x="-167" y="-102" on="0"/>
      </contour>
    </TTGlyph>
    <TTGlyph name="Iota" xMin="68" yMin="0" xMax="459" yMax="1430">
      <component glyphName="I" x="0" y="0" flags="0x200"/>
    </TTGlyph>
    <TTGlyph name="Iotadieresis" xMin="68" yMin="0" xMax="690" yMax="1790">
      <component glyphName="Iota" x="0" y="0" flags="0x200"/>
      <component glyphName="dieresis" x="5" y="380" flags="0x0"/>
    </TTGlyph>
    <TTGlyph name="Iotatonos" xMin="46" yMin="0" xMax="632" yMax="1430">
      <contour>
        <pt x="258" y="1430" on="1"/>
        <pt x="417" y="1430" on="1"/>
        <pt x="130" y="1191" on="1"/>
        <pt x="46" y="1191" on="1"/>
      </contour>
      <contour>
        <pt x="632" y="1430" on="1"/>
        <pt x="346" y="0" on="1"/>
        <pt x="241" y="0" on="1"/>
        <pt x="527" y="1430" on="1"/>
      </contour>
    </TTGlyph>
    <TTGlyph name="Itilde" xMin="69" yMin="0" xMax="726" yMax="1810">
      <component glyphName="I" x="1" y="0" flags="0x200"/>
      <component glyphName="tilde" x="-17" y="380" flags="0x0"/>
    </TTGlyph>
    <TTGlyph name="J" xMin="-107" yMin="0" xMax="634" yMax="1430">
      <contour>
        <pt x="634" y="1430" on="1"/>
        <pt x="430" y="412" on="1"/>
        <pt x="348" y="0" on="0"/>
        <pt x="-107" y="0" on="1"/>
        <pt x="-89" y="90" on="1"/>
        <pt x="261" y="90" on="0"/>
        <pt x="325" y="412" on="1"/>
        <pt x="529" y="1430" on="1"/>
      </contour>
    </TTGlyph>
    <TTGlyph name="Jcircumflex" xMin="-106" yMin="0" xMax="845" yMax="1810">
      <component glyphName="J" x="1" y="0" flags="0x200"/>
      <component glyphName="circumflex" x="153" y="380" flags="0x0"/>
    </TTGlyph>
    <TTGlyph name="K" xMin="18" yMin="0" xMax="1390" yMax="1430">
      <contour>
        <pt x="409" y="1430" on="1"/>
        <pt x="123" y="0" on="1"/>
        <pt x="18" y="0" on="1"/>
        <pt x="304" y="1430" on="1"/>
      </contour>
      <contour>
        <pt x="1390" y="1430" on="1"/>
        <pt x="557" y="729" on="1"/>
        <pt x="1158" y="0" on="1"/>
        <pt x="1011" y="0" on="1"/>
        <pt x="448" y="698" on="1"/>
        <pt x="462" y="770" on="1"/>
        <pt x="1236" y="1430" on="1"/>
      </contour>
    </TTGlyph>
    <TTGlyph name="Kappa" xMin="18" yMin="0" xMax="1390" yMax="1430">
      <component glyphName="K" x="0" y="0" flags="0x200"/>
    </TTGlyph>
    <TTGlyph name="Kcommaaccent" xMin="18" yMin="-380" xMax="1390" yMax="1430">
      <component glyphName="K" x="0" y="0" flags="0x200"/>
      <component glyphName="commaccent" x="478" y="0" flags="0x0"/>
    </TTGlyph>
    <TTGlyph name="L" xMin="18" yMin="0" xMax="969" yMax="1430">
      <contour>
        <pt x="409" y="1430" on="1"/>
        <pt x="141" y="90" on="1"/>
        <pt x="969" y="90" on="1"/>
        <pt x="951" y="0" on="1"/>
        <pt x="18" y="0" on="1"/>
        <pt x="304" y="1430" on="1"/>
      </contour>
    </TTGlyph>
    <TTGlyph name="Lacute" xMin="18" yMin="0" xMax="969" yMax="1810">
      <component glyphName="L" x="0" y="0" flags="0x200"/>
      <component glyphName="acute" x="129" y="380" flags="0x0"/>
    </TTGlyph>
    <TTGlyph name="Lambda" xMin="-107" yMin="0" xMax="1315" yMax="1430">
      <contour>
        <pt x="12" y="0" on="1"/>
        <pt x="-107" y="0" on="1"/>
        <pt x="826" y="1430" on="1"/>
        <pt x="951" y="1430" on="1"/>
        <pt x="1315" y="0" on="1"/>
        <pt x="1197" y="0" on="1"/>
        <pt x="873" y="1348" on="1"/>
      </contour>
    </TTGlyph>
    <TTGlyph name="Lcaron" xMin="18" yMin="0" xMax="969" yMax="1430">
      <contour>
        <pt x="409" y="1430" on="1"/>
        <pt x="141" y="90" on="1"/>
        <pt x="969" y="90" on="1"/>
        <pt x="951" y="0" on="1"/>
        <pt x="18" y="0" on="1"/>
        <pt x="304" y="1430" on="1"/>
      </contour>
      <contour>
        <pt x="894" y="1430" on="1"/>
        <pt x="657" y="995" on="1"/>
        <pt x="542" y="995" on="1"/>
        <pt x="779" y="1430" on="1"/>
      </contour>
    </TTGlyph>
    <TTGlyph name="Lcommaaccent" xMin="18" yMin="-380" xMax="969" yMax="1430">
      <component glyphName="L" x="0" y="0" flags="0x200"/>
      <component glyphName="commaccent" x="424" y="0" flags="0x0"/>
    </TTGlyph>
    <TTGlyph name="Ldot" xMin="18" yMin="0" xMax="969" yMax="1430">
      <component glyphName="L" x="0" y="0" flags="0x200"/>
      <component glyphName="periodcentered" x="450" y="190" flags="0x0"/>
    </TTGlyph>
    <TTGlyph name="Lslash" xMin="-36" yMin="0" xMax="969" yMax="1430">
      <contour>
        <pt x="136" y="592" on="1"/>
        <pt x="-36" y="482" on="1"/>
        <pt x="-14" y="592" on="1"/>
        <pt x="158" y="702" on="1"/>
        <pt x="304" y="1430" on="1"/>
        <pt x="409" y="1430" on="1"/>
        <pt x="279" y="780" on="1"/>
        <pt x="741" y="1076" on="1"/>
        <pt x="719" y="966" on="1"/>
        <pt x="257" y="670" on="1"/>
        <pt x="141" y="90" on="1"/>
        <pt x="969" y="90" on="1"/>
        <pt x="951" y="0" on="1"/>
        <pt x="18" y="0" on="1"/>
      </contour>
    </TTGlyph>
    <TTGlyph name="M" xMin="18" yMin="0" xMax="1754" yMax="1430">
      <contour>
        <pt x="18" y="0" on="1"/>
        <pt x="304" y="1430" on="1"/>
        <pt x="409" y="1430" on="1"/>
        <pt x="793" y="123" on="1"/>
        <pt x="1659" y="1430" on="1"/>
        <pt x="1754" y="1430" on="1"/>
        <pt x="1468" y="0" on="1"/>
        <pt x="1373" y="0" on="1"/>
        <pt x="1620" y="1237" on="1"/>
        <pt x="805" y="0" on="1"/>
        <pt x="719" y="0" on="1"/>
        <pt x="362" y="1247" on="1"/>
        <pt x="113" y="0" on="1"/>
      </contour>
    </TTGlyph>
    <TTGlyph name="MT.sign" xMin="100" yMin="-46" xMax="1624" yMax="1476">
      <contour>
        <pt x="1181" y="332" on="1"/>
        <pt x="1181" y="434" on="1"/>
        <pt x="926" y="447" on="1"/>
        <pt x="926" y="987" on="1"/>
        <pt x="1053" y="987" on="1"/>
        <pt x="1104" y="587" on="1"/>
        <pt x="1219" y="587" on="1"/>
        <pt x="1181" y="1098" on="1"/>
        <pt x="942" y="1098" on="1"/>
        <pt x="862" y="1060" on="1"/>
        <pt x="783" y="1098" on="1"/>
        <pt x="543" y="1098" on="1"/>
        <pt x="505" y="587" on="1"/>
        <pt x="619" y="587" on="1"/>
        <pt x="670" y="987" on="1"/>
        <pt x="798" y="987" on="1"/>
        <pt x="798" y="447" on="1"/>
        <pt x="543" y="434" on="1"/>
        <pt x="543" y="332" on="1"/>
      </contour>
      <contour>
        <pt x="534" y="1330" on="1"/>
        <pt x="571" y="1419" on="1"/>
        <pt x="660" y="1382" on="1"/>
        <pt x="713" y="1462" on="1"/>
        <pt x="794" y="1409" on="1"/>
        <pt x="862" y="1476" on="1"/>
        <pt x="930" y="1409" on="1"/>
        <pt x="1011" y="1462" on="1"/>
        <pt x="1064" y="1382" on="1"/>
        <pt x="1153" y="1419" on="1"/>
        <pt x="1190" y="1330" on="1"/>
        <pt x="1284" y="1349" on="1"/>
        <pt x="1304" y="1253" on="1"/>
        <pt x="1401" y="1253" on="1"/>
        <pt x="1401" y="1157" on="1"/>
        <pt x="1495" y="1138" on="1"/>
        <pt x="1476" y="1044" on="1"/>
        <pt x="1565" y="1007" on="1"/>
        <pt x="1529" y="917" on="1"/>
        <pt x="1610" y="865" on="1"/>
        <pt x="1556" y="783" on="1"/>
        <pt x="1624" y="716" on="1"/>
        <pt x="1555" y="647" on="1"/>
        <pt x="1610" y="565" on="1"/>
        <pt x="1528" y="513" on="1"/>
        <pt x="1565" y="423" on="1"/>
        <pt x="1476" y="386" on="1"/>
        <pt x="1495" y="292" on="1"/>
        <pt x="1401" y="273" on="1"/>
        <pt x="1401" y="177" on="1"/>
        <pt x="1304" y="177" on="1"/>
        <pt x="1284" y="81" on="1"/>
        <pt x="1190" y="100" on="1"/>
        <pt x="1153" y="11" on="1"/>
        <pt x="1064" y="48" on="1"/>
        <pt x="1011" y="-32" on="1"/>
        <pt x="930" y="21" on="1"/>
        <pt x="862" y="-46" on="1"/>
        <pt x="794" y="21" on="1"/>
        <pt x="713" y="-32" on="1"/>
        <pt x="660" y="48" on="1"/>
        <pt x="571" y="11" on="1"/>
        <pt x="534" y="100" on="1"/>
        <pt x="439" y="81" on="1"/>
        <pt x="420" y="177" on="1"/>
        <pt x="323" y="177" on="1"/>
        <pt x="323" y="273" on="1"/>
        <pt x="228" y="292" on="1"/>
        <pt x="247" y="386" on="1"/>
        <pt x="157" y="425" on="1"/>
        <pt x="194" y="513" on="1"/>
        <pt x="114" y="566" on="1"/>
        <pt x="169" y="647" on="1"/>
        <pt x="100" y="716" on="1"/>
        <pt x="169" y="783" on="1"/>
        <pt x="114" y="865" on="1"/>
        <pt x="196" y="919" on="1"/>
        <pt x="159" y="1007" on="1"/>
        <pt x="248" y="1044" on="1"/>
        <pt x="229" y="1138" on="1"/>
        <pt x="323" y="1157" on="1"/>
        <pt x="323" y="1253" on="1"/>
        <pt x="420" y="1253" on="1"/>
        <pt x="439" y="1349" on="1"/>
      </contour>
      <contour>
        <pt x="862" y="1347" on="1"/>
        <pt x="600" y="1347" on="0"/>
        <pt x="230" y="977" on="0"/>
        <pt x="230" y="716" on="1"/>
        <pt x="230" y="453" on="0"/>
        <pt x="600" y="83" on="0"/>
        <pt x="862" y="83" on="1"/>
        <pt x="1124" y="83" on="0"/>
        <pt x="1494" y="453" on="0"/>
        <pt x="1494" y="716" on="1"/>
        <pt x="1494" y="977" on="0"/>
        <pt x="1124" y="1347" on="0"/>
      </contour>
      <contour>
        <pt x="1101" y="1293" on="0"/>
        <pt x="1439" y="954" on="0"/>
        <pt x="1439" y="716" on="1"/>
        <pt x="1439" y="476" on="0"/>
        <pt x="1101" y="137" on="0"/>
        <pt x="862" y="137" on="1"/>
        <pt x="623" y="137" on="0"/>
        <pt x="285" y="476" on="0"/>
        <pt x="285" y="716" on="1"/>
        <pt x="285" y="954" on="0"/>
        <pt x="623" y="1293" on="0"/>
        <pt x="862" y="1293" on="1"/>
      </contour>
    </TTGlyph>
    <TTGlyph name="Mu" xMin="18" yMin="0" xMax="1754" yMax="1430">
      <component glyphName="M" x="0" y="0" flags="0x200"/>
    </TTGlyph>
    <TTGlyph name="N" xMin="18" yMin="0" xMax="1489" yMax="1430">
      <contour>
        <pt x="18" y="0" on="1"/>
        <pt x="304" y="1430" on="1"/>
        <pt x="419" y="1430" on="1"/>
        <pt x="1139" y="154" on="1"/>
        <pt x="1394" y="1430" on="1"/>
        <pt x="1489" y="1430" on="1"/>
        <pt x="1203" y="0" on="1"/>
        <pt x="1118" y="0" on="1"/>
        <pt x="375" y="1312" on="1"/>
        <pt x="113" y="0" on="1"/>
      </contour>
    </TTGlyph>
    <TTGlyph name="Nacute" xMin="18" yMin="0" xMax="1489" yMax="1810">
      <component glyphName="N" x="0" y="0" flags="0x200"/>
      <component glyphName="acute" x="605" y="380" flags="0x0"/>
    </TTGlyph>
    <TTGlyph name="Ncaron" xMin="18" yMin="0" xMax="1489" yMax="1810">
      <component glyphName="N" x="0" y="0" flags="0x200"/>
      <component glyphName="caron" x="463" y="380" flags="0x0"/>
    </TTGlyph>
    <TTGlyph name="Ncommaaccent" xMin="18" yMin="-380" xMax="1489" yMax="1430">
      <component glyphName="N" x="0" y="0" flags="0x200"/>
      <component glyphName="commaccent" x="550" y="0" flags="0x0"/>
    </TTGlyph>
    <TTGlyph name="Ntilde" xMin="18" yMin="0" xMax="1489" yMax="1810">
      <component glyphName="N" x="0" y="0" flags="0x200"/>
      <component glyphName="tilde" x="463" y="380" flags="0x0"/>
    </TTGlyph>
    <TTGlyph name="Nu" xMin="18" yMin="0" xMax="1489" yMax="1430">
      <component glyphName="N" x="0" y="0" flags="0x200"/>
    </TTGlyph>
    <TTGlyph name="O" xMin="-34" yMin="-10" xMax="1681" yMax="1440">
      <contour>
        <pt x="99" y="80" on="0"/>
        <pt x="702" y="80" on="1"/>
        <pt x="1294" y="80" on="0"/>
        <pt x="1422" y="719" on="1"/>
        <pt x="1548" y="1350" on="0"/>
        <pt x="956" y="1350" on="1"/>
        <pt x="353" y="1350" on="0"/>
        <pt x="227" y="719" on="1"/>
      </contour>
      <contour>
        <pt x="111" y="713" on="1"/>
        <pt x="256" y="1440" on="0"/>
        <pt x="974" y="1440" on="1"/>
        <pt x="1681" y="1440" on="0"/>
        <pt x="1536" y="713" on="1"/>
        <pt x="1391" y="-10" on="0"/>
        <pt x="684" y="-10" on="1"/>
        <pt x="-34" y="-10" on="0"/>
      </contour>
    </TTGlyph>
    <TTGlyph name="OE" xMin="-32" yMin="0" xMax="2229" yMax="1430">
      <contour>
        <pt x="101" y="90" on="0"/>
        <pt x="704" y="90" on="1"/>
        <pt x="1296" y="90" on="0"/>
        <pt x="1422" y="719" on="1"/>
        <pt x="1546" y="1340" on="0"/>
        <pt x="954" y="1340" on="1"/>
        <pt x="351" y="1340" on="0"/>
        <pt x="227" y="719" on="1"/>
      </contour>
      <contour>
        <pt x="111" y="713" on="1"/>
        <pt x="254" y="1430" on="0"/>
        <pt x="972" y="1430" on="1"/>
        <pt x="2229" y="1430" on="1"/>
        <pt x="2211" y="1340" on="1"/>
        <pt x="1356" y="1340" on="1"/>
        <pt x="1604" y="1203" on="0"/>
        <pt x="1547" y="770" on="1"/>
        <pt x="2062" y="770" on="1"/>
        <pt x="2044" y="680" on="1"/>
        <pt x="1529" y="680" on="1"/>
        <pt x="1410" y="233" on="0"/>
        <pt x="1094" y="90" on="1"/>
        <pt x="1976" y="90" on="1"/>
        <pt x="1958" y="0" on="1"/>
        <pt x="686" y="0" on="1"/>
        <pt x="-32" y="0" on="0"/>
      </contour>
    </TTGlyph>
    <TTGlyph name="Oacute" xMin="-34" yMin="-10" xMax="1681" yMax="1810">
      <component glyphName="O" x="0" y="0" flags="0x200"/>
      <component glyphName="acute" x="695" y="380" flags="0x0"/>
    </TTGlyph>
    <TTGlyph name="Obreve" xMin="-34" yMin="-10" xMax="1681" yMax="1810">
      <component glyphName="O" x="0" y="0" flags="0x200"/>
      <component glyphName="breve" x="568" y="380" flags="0x0"/>
    </TTGlyph>
    <TTGlyph name="Ocircumflex" xMin="-34" yMin="-10" xMax="1681" yMax="1810">
      <component glyphName="O" x="0" y="0" flags="0x200"/>
      <component glyphName="circumflex" x="553" y="380" flags="0x0"/>
    </TTGlyph>
    <TTGlyph name="Odieresis" xMin="-34" yMin="-10" xMax="1681" yMax="1790">
      <component glyphName="O" x="0" y="0" flags="0x200"/>
      <component glyphName="dieresis" x="575" y="380" flags="0x0"/>
    </TTGlyph>
    <TTGlyph name="Ograve" xMin="-34" yMin="-10" xMax="1681" yMax="1810">
      <component glyphName="O" x="0" y="0" flags="0x200"/>
      <component glyphName="grave" x="587" y="380" flags="0x0"/>
    </TTGlyph>
    <TTGlyph name="Ohungarumlaut" xMin="-34" yMin="-10" xMax="1681" yMax="1810">
      <component glyphName="O" x="0" y="0" flags="0x200"/>
      <component glyphName="hungarumlaut" x="571" y="380" flags="0x0"/>
    </TTGlyph>
    <TTGlyph name="Omacron" xMin="-34" yMin="-10" xMax="1681" yMax="1810">
      <component glyphName="O" x="0" y="0" flags="0x200"/>
      <component glyphName="macron" x="573" y="380" flags="0x0"/>
    </TTGlyph>
    <TTGlyph name="Omega" xMin="-7" yMin="0" xMax="1638" yMax="1450">
      <contour>
        <pt x="-7" y="0" on="1"/>
        <pt x="11" y="90" on="1"/>
        <pt x="366" y="90" on="1"/>
        <pt x="58" y="400" on="0"/>
        <pt x="142" y="820" on="1"/>
        <pt x="268" y="1450" on="0"/>
        <pt x="953" y="1450" on="1"/>
        <pt x="1638" y="1450" on="0"/>
        <pt x="1512" y="820" on="1"/>
        <pt x="1428" y="400" on="0"/>
        <pt x="996" y="90" on="1"/>
        <pt x="1351" y="90" on="1"/>
        <pt x="1333" y="0" on="1"/>
        <pt x="833" y="0" on="1"/>
        <pt x="851" y="90" on="1"/>
        <pt x="1327" y="420" on="0"/>
        <pt x="1407" y="820" on="1"/>
        <pt x="1515" y="1360" on="0"/>
        <pt x="935" y="1360" on="1"/>
        <pt x="355" y="1360" on="0"/>
        <pt x="247" y="820" on="1"/>
        <pt x="167" y="420" on="0"/>
        <pt x="511" y="90" on="1"/>
        <pt x="493" y="0" on="1"/>
      </contour>
    </TTGlyph>
    <TTGlyph name="Omegatonos" xMin="16" yMin="0" xMax="1661" yMax="1450">
      <contour>
        <pt x="258" y="1430" on="1"/>
        <pt x="417" y="1430" on="1"/>
        <pt x="130" y="1191" on="1"/>
        <pt x="46" y="1191" on="1"/>
      </contour>
      <contour>
        <pt x="16" y="0" on="1"/>
        <pt x="34" y="90" on="1"/>
        <pt x="389" y="90" on="1"/>
        <pt x="81" y="400" on="0"/>
        <pt x="165" y="820" on="1"/>
        <pt x="291" y="1450" on="0"/>
        <pt x="976" y="1450" on="1"/>
        <pt x="1661" y="1450" on="0"/>
        <pt x="1535" y="820" on="1"/>
        <pt x="1451" y="400" on="0"/>
        <pt x="1019" y="90" on="1"/>
        <pt x="1374" y="90" on="1"/>
        <pt x="1356" y="0" on="1"/>
        <pt x="856" y="0" on="1"/>
        <pt x="874" y="90" on="1"/>
        <pt x="1350" y="420" on="0"/>
        <pt x="1430" y="820" on="1"/>
        <pt x="1538" y="1360" on="0"/>
        <pt x="958" y="1360" on="1"/>
        <pt x="378" y="1360" on="0"/>
        <pt x="270" y="820" on="1"/>
        <pt x="190" y="420" on="0"/>
        <pt x="534" y="90" on="1"/>
        <pt x="516" y="0" on="1"/>
      </contour>
    </TTGlyph>
    <TTGlyph name="Omicron" xMin="-34" yMin="-10" xMax="1681" yMax="1440">
      <component glyphName="O" x="0" y="0" flags="0x200"/>
    </TTGlyph>
    <TTGlyph name="Omicrontonos" xMin="-11" yMin="-10" xMax="1704" yMax="1440">
      <contour>
        <pt x="258" y="1430" on="1"/>
        <pt x="417" y="1430" on="1"/>
        <pt x="130" y="1191" on="1"/>
        <pt x="46" y="1191" on="1"/>
      </contour>
      <contour>
        <pt x="122" y="80" on="0"/>
        <pt x="725" y="80" on="1"/>
        <pt x="1317" y="80" on="0"/>
        <pt x="1445" y="719" on="1"/>
        <pt x="1571" y="1350" on="0"/>
        <pt x="979" y="1350" on="1"/>
        <pt x="376" y="1350" on="0"/>
        <pt x="250" y="719" on="1"/>
      </contour>
      <contour>
        <pt x="134" y="713" on="1"/>
        <pt x="279" y="1440" on="0"/>
        <pt x="997" y="1440" on="1"/>
        <pt x="1704" y="1440" on="0"/>
        <pt x="1559" y="713" on="1"/>
        <pt x="1414" y="-10" on="0"/>
        <pt x="707" y="-10" on="1"/>
        <pt x="-11" y="-10" on="0"/>
      </contour>
    </TTGlyph>
    <TTGlyph name="Oslash" xMin="33" yMin="-10" xMax="1615" yMax="1440">
      <contour>
        <pt x="361" y="164" on="1"/>
        <pt x="483" y="80" on="0"/>
        <pt x="702" y="80" on="1"/>
        <pt x="1294" y="80" on="0"/>
        <pt x="1422" y="719" on="1"/>
        <pt x="1488" y="1048" on="0"/>
        <pt x="1358" y="1206" on="1"/>
      </contour>
      <contour>
        <pt x="288" y="232" on="1"/>
        <pt x="1284" y="1272" on="1"/>
        <pt x="1164" y="1350" on="0"/>
        <pt x="956" y="1350" on="1"/>
        <pt x="353" y="1350" on="0"/>
        <pt x="227" y="719" on="1"/>
        <pt x="161" y="391" on="0"/>
      </contour>
      <contour>
        <pt x="282" y="82" on="1"/>
        <pt x="203" y="0" on="1"/>
        <pt x="66" y="0" on="1"/>
        <pt x="204" y="145" on="1"/>
        <pt x="33" y="324" on="0"/>
        <pt x="111" y="713" on="1"/>
        <pt x="256" y="1440" on="0"/>
        <pt x="974" y="1440" on="1"/>
        <pt x="1219" y="1440" on="0"/>
        <pt x="1362" y="1353" on="1"/>
        <pt x="1435" y="1430" on="1"/>
        <pt x="1573" y="1430" on="1"/>
        <pt x="1439" y="1291" on="1"/>
        <pt x="1615" y="1111" on="0"/>
        <pt x="1536" y="713" on="1"/>
        <pt x="1391" y="-10" on="0"/>
        <pt x="684" y="-10" on="1"/>
        <pt x="428" y="-10" on="0"/>
      </contour>
    </TTGlyph>
    <TTGlyph name="Otilde" xMin="-34" yMin="-10" xMax="1681" yMax="1810">
      <component glyphName="O" x="0" y="0" flags="0x200"/>
      <component glyphName="tilde" x="553" y="380" flags="0x0"/>
    </TTGlyph>
    <TTGlyph name="P" xMin="18" yMin="0" xMax="1322" yMax="1430">
      <contour>
        <pt x="18" y="0" on="1"/>
        <pt x="304" y="1430" on="1"/>
        <pt x="904" y="1430" on="1"/>
        <pt x="1322" y="1430" on="0"/>
        <pt x="1243" y="1037" on="1"/>
        <pt x="1166" y="650" on="0"/>
        <pt x="476" y="544" on="1"/>
        <pt x="477" y="640" on="1"/>
        <pt x="1063" y="719" on="0"/>
        <pt x="1125" y="1029" on="1"/>
        <pt x="1186" y="1337" on="0"/>
        <pt x="868" y="1337" on="1"/>
        <pt x="390" y="1337" on="1"/>
        <pt x="123" y="0" on="1"/>
      </contour>
    </TTGlyph>
    <TTGlyph name="Phi" xMin="-12" yMin="0" xMax="1659" yMax="1430">
      <contour>
        <pt x="651" y="113" on="1"/>
        <pt x="-12" y="150" on="0"/>
        <pt x="103" y="723" on="1"/>
        <pt x="214" y="1280" on="0"/>
        <pt x="891" y="1317" on="1"/>
        <pt x="914" y="1430" on="1"/>
        <pt x="1018" y="1430" on="1"/>
        <pt x="996" y="1318" on="1"/>
        <pt x="1659" y="1284" on="0"/>
        <pt x="1547" y="723" on="1"/>
        <pt x="1431" y="145" on="0"/>
        <pt x="754" y="112" on="1"/>
        <pt x="732" y="0" on="1"/>
        <pt x="628" y="0" on="1"/>
      </contour>
      <contour>
        <pt x="669" y="204" on="1"/>
        <pt x="873" y="1226" on="1"/>
        <pt x="310" y="1190" on="0"/>
        <pt x="216" y="719" on="1"/>
        <pt x="120" y="241" on="0"/>
      </contour>
      <contour>
        <pt x="977" y="1227" on="1"/>
        <pt x="773" y="203" on="1"/>
        <pt x="1335" y="237" on="0"/>
        <pt x="1432" y="719" on="1"/>
        <pt x="1527" y="1194" on="0"/>
      </contour>
    </TTGlyph>
    <TTGlyph name="Pi" xMin="18" yMin="0" xMax="1409" yMax="1430">
      <contour>
        <pt x="18" y="0" on="1"/>
        <pt x="304" y="1430" on="1"/>
        <pt x="1409" y="1430" on="1"/>
        <pt x="1123" y="0" on="1"/>
        <pt x="1018" y="0" on="1"/>
        <pt x="1286" y="1340" on="1"/>
        <pt x="391" y="1340" on="1"/>
        <pt x="123" y="0" on="1"/>
      </contour>
    </TTGlyph>
    <TTGlyph name="Psi" xMin="112" yMin="0" xMax="1634" yMax="1430">
      <contour>
        <pt x="739" y="541" on="1"/>
        <pt x="917" y="1430" on="1"/>
        <pt x="1021" y="1430" on="1"/>
        <pt x="843" y="541" on="1"/>
        <pt x="1355" y="561" on="0"/>
        <pt x="1440" y="988" on="1"/>
        <pt x="1529" y="1430" on="1"/>
        <pt x="1634" y="1430" on="1"/>
        <pt x="1545" y="988" on="1"/>
        <pt x="1442" y="471" on="0"/>
        <pt x="825" y="451" on="1"/>
        <pt x="735" y="0" on="1"/>
        <pt x="631" y="0" on="1"/>
        <pt x="721" y="451" on="1"/>
        <pt x="112" y="471" on="0"/>
        <pt x="215" y="988" on="1"/>
        <pt x="304" y="1430" on="1"/>
        <pt x="409" y="1430" on="1"/>
        <pt x="320" y="988" on="1"/>
        <pt x="235" y="561" on="0"/>
      </contour>
    </TTGlyph>
    <TTGlyph name="Q" xMin="-27" yMin="-390" xMax="1681" yMax="1440">
      <contour>
        <pt x="702" y="80" on="1"/>
        <pt x="1294" y="80" on="0"/>
        <pt x="1421" y="719" on="1"/>
        <pt x="1548" y="1350" on="0"/>
        <pt x="956" y="1350" on="1"/>
        <pt x="353" y="1350" on="0"/>
        <pt x="226" y="719" on="1"/>
        <pt x="99" y="80" on="0"/>
      </contour>
      <contour>
        <pt x="613" y="-8" on="1"/>
        <pt x="-27" y="27" on="0"/>
        <pt x="110" y="713" on="1"/>
        <pt x="256" y="1440" on="0"/>
        <pt x="974" y="1440" on="1"/>
        <pt x="1681" y="1440" on="0"/>
        <pt x="1535" y="713" on="1"/>
        <pt x="1394" y="9" on="0"/>
        <pt x="721" y="-10" on="1"/>
        <pt x="765" y="-296" on="0"/>
        <pt x="1063" y="-300" on="1"/>
        <pt x="1163" y="-300" on="0"/>
        <pt x="1249" y="-270" on="1"/>
        <pt x="1231" y="-360" on="1"/>
        <pt x="1145" y="-390" on="0"/>
        <pt x="1045" y="-390" on="1"/>
        <pt x="640" y="-390" on="0"/>
      </contour>
    </TTGlyph>
    <TTGlyph name="R" xMin="18" yMin="0" xMax="1282" yMax="1430">
      <contour>
        <pt x="18" y="0" on="1"/>
        <pt x="304" y="1430" on="1"/>
        <pt x="894" y="1430" on="1"/>
        <pt x="1282" y="1430" on="0"/>
        <pt x="1213" y="1087" on="1"/>
        <pt x="1149" y="769" on="0"/>
        <pt x="708" y="666" on="1"/>
        <pt x="1058" y="0" on="1"/>
        <pt x="934" y="0" on="1"/>
        <pt x="592" y="663" on="1"/>
        <pt x="606" y="736" on="1"/>
        <pt x="1039" y="799" on="0"/>
        <pt x="1095" y="1079" on="1"/>
        <pt x="1146" y="1337" on="0"/>
        <pt x="858" y="1337" on="1"/>
        <pt x="390" y="1337" on="1"/>
        <pt x="123" y="0" on="1"/>
      </contour>
    </TTGlyph>
    <TTGlyph name="Racute" xMin="18" yMin="0" xMax="1282" yMax="1810">
      <component glyphName="R" x="0" y="0" flags="0x200"/>
      <component glyphName="acute" x="432" y="380" flags="0x0"/>
    </TTGlyph>
    <TTGlyph name="Rcaron" xMin="18" yMin="0" xMax="1282" yMax="1810">
      <component glyphName="R" x="0" y="0" flags="0x200"/>
      <component glyphName="caron" x="308" y="380" flags="0x0"/>
    </TTGlyph>
    <TTGlyph name="Rcommaaccent" xMin="18" yMin="-380" xMax="1282" yMax="1430">
      <component glyphName="R" x="0" y="0" flags="0x200"/>
      <component glyphName="commaccent" x="428" y="0" flags="0x0"/>
    </TTGlyph>
    <TTGlyph name="Rho" xMin="18" yMin="0" xMax="1322" yMax="1430">
      <component glyphName="P" x="0" y="0" flags="0x200"/>
    </TTGlyph>
    <TTGlyph name="S" xMin="18" yMin="-10" xMax="1294" yMax="1440">
      <contour>
        <pt x="18" y="50" on="1"/>
        <pt x="40" y="160" on="1"/>
        <pt x="249" y="80" on="0"/>
        <pt x="520" y="80" on="1"/>
        <pt x="969" y="80" on="0"/>
        <pt x="1037" y="420" on="1"/>
        <pt x="1087" y="670" on="0"/>
        <pt x="795" y="670" on="1"/>
        <pt x="501" y="670" on="1"/>
        <pt x="102" y="670" on="0"/>
        <pt x="174" y="1030" on="1"/>
        <pt x="256" y="1440" on="0"/>
        <pt x="841" y="1440" on="1"/>
        <pt x="1081" y="1440" on="0"/>
        <pt x="1294" y="1380" on="1"/>
        <pt x="1274" y="1280" on="1"/>
        <pt x="1063" y="1350" on="0"/>
        <pt x="823" y="1350" on="1"/>
        <pt x="343" y="1350" on="0"/>
        <pt x="279" y="1030" on="1"/>
        <pt x="227" y="770" on="0"/>
        <pt x="521" y="770" on="1"/>
        <pt x="815" y="770" on="1"/>
        <pt x="1212" y="770" on="0"/>
        <pt x="1142" y="420" on="1"/>
        <pt x="1056" y="-10" on="0"/>
        <pt x="502" y="-10" on="1"/>
        <pt x="231" y="-10" on="0"/>
      </contour>
    </TTGlyph>
    <TTGlyph name="Sacute" xMin="18" yMin="-10" xMax="1294" yMax="1810">
      <component glyphName="S" x="0" y="0" flags="0x200"/>
      <component glyphName="acute" x="507" y="380" flags="0x0"/>
    </TTGlyph>
    <TTGlyph name="Scaron" xMin="18" yMin="-10" xMax="1294" yMax="1810">
      <component glyphName="S" x="0" y="0" flags="0x200"/>
      <component glyphName="caron" x="365" y="380" flags="0x0"/>
    </TTGlyph>
    <TTGlyph name="Scedilla" xMin="18" yMin="-422" xMax="1294" yMax="1440">
      <contour>
        <pt x="424" y="-9" on="1"/>
        <pt x="200" y="-1" on="0"/>
        <pt x="18" y="50" on="1"/>
        <pt x="40" y="160" on="1"/>
        <pt x="249" y="80" on="0"/>
        <pt x="520" y="80" on="1"/>
        <pt x="969" y="80" on="0"/>
        <pt x="1037" y="420" on="1"/>
        <pt x="1087" y="670" on="0"/>
        <pt x="795" y="670" on="1"/>
        <pt x="501" y="670" on="1"/>
        <pt x="102" y="670" on="0"/>
        <pt x="174" y="1030" on="1"/>
        <pt x="256" y="1440" on="0"/>
        <pt x="841" y="1440" on="1"/>
        <pt x="1081" y="1440" on="0"/>
        <pt x="1294" y="1380" on="1"/>
        <pt x="1274" y="1280" on="1"/>
        <pt x="1063" y="1350" on="0"/>
        <pt x="823" y="1350" on="1"/>
        <pt x="343" y="1350" on="0"/>
        <pt x="279" y="1030" on="1"/>
        <pt x="227" y="770" on="0"/>
        <pt x="521" y="770" on="1"/>
        <pt x="815" y="770" on="1"/>
        <pt x="1212" y="770" on="0"/>
        <pt x="1142" y="420" on="1"/>
        <pt x="1058" y="-2" on="0"/>
        <pt x="522" y="-10" on="1"/>
        <pt x="473" y="-77" on="1"/>
        <pt x="697" y="-77" on="0"/>
        <pt x="662" y="-249" on="1"/>
        <pt x="628" y="-422" on="0"/>
        <pt x="387" y="-422" on="1"/>
        <pt x="279" y="-422" on="0"/>
        <pt x="181" y="-372" on="1"/>
        <pt x="198" y="-284" on="1"/>
        <pt x="294" y="-344" on="0"/>
        <pt x="402" y="-344" on="1"/>
        <pt x="550" y="-344" on="0"/>
        <pt x="569" y="-249" on="1"/>
        <pt x="588" y="-155" on="0"/>
        <pt x="465" y="-155" on="1"/>
        <pt x="312" y="-155" on="1"/>
      </contour>
    </TTGlyph>
    <TTGlyph name="Scircumflex" xMin="18" yMin="-10" xMax="1294" yMax="1810">
      <component glyphName="S" x="0" y="0" flags="0x200"/>
      <component glyphName="circumflex" x="395" y="380" flags="0x0"/>
    </TTGlyph>
    <TTGlyph name="Scommaaccent" xMin="18" yMin="-380" xMax="1294" yMax="1440">
      <component glyphName="S" x="0" y="0" flags="0x200"/>
      <component glyphName="commaccent" x="453" y="0" flags="0x0"/>
    </TTGlyph>
    <TTGlyph name="Sigma" xMin="-42" yMin="0" xMax="1224" yMax="1430">
      <contour>
        <pt x="244" y="1430" on="1"/>
        <pt x="1224" y="1430" on="1"/>
        <pt x="1206" y="1340" on="1"/>
        <pt x="336" y="1340" on="1"/>
        <pt x="728" y="750" on="1"/>
        <pt x="116" y="90" on="1"/>
        <pt x="956" y="90" on="1"/>
        <pt x="938" y="0" on="1"/>
        <pt x="-42" y="0" on="1"/>
        <pt x="-24" y="90" on="1"/>
        <pt x="603" y="750" on="1"/>
        <pt x="226" y="1340" on="1"/>
      </contour>
    </TTGlyph>
    <TTGlyph name="T" xMin="136" yMin="0" xMax="1229" yMax="1430">
      <contour>
        <pt x="1229" y="1430" on="1"/>
        <pt x="1211" y="1340" on="1"/>
        <pt x="721" y="1340" on="1"/>
        <pt x="453" y="0" on="1"/>
        <pt x="348" y="0" on="1"/>
        <pt x="616" y="1340" on="1"/>
        <pt x="136" y="1340" on="1"/>
        <pt x="154" y="1430" on="1"/>
      </contour>
    </TTGlyph>
    <TTGlyph name="Tau" xMin="136" yMin="0" xMax="1229" yMax="1430">
      <component glyphName="T" x="0" y="0" flags="0x200"/>
    </TTGlyph>
    <TTGlyph name="Tbar" xMin="2" yMin="0" xMax="1229" yMax="1430">
      <contour>
        <pt x="500" y="760" on="1"/>
        <pt x="616" y="1340" on="1"/>
        <pt x="136" y="1340" on="1"/>
        <pt x="154" y="1430" on="1"/>
        <pt x="1229" y="1430" on="1"/>
        <pt x="1211" y="1340" on="1"/>
        <pt x="721" y="1340" on="1"/>
        <pt x="605" y="760" on="1"/>
        <pt x="1095" y="760" on="1"/>
        <pt x="1077" y="670" on="1"/>
        <pt x="587" y="670" on="1"/>
        <pt x="453" y="0" on="1"/>
        <pt x="348" y="0" on="1"/>
        <pt x="482" y="670" on="1"/>
        <pt x="2" y="670" on="1"/>
        <pt x="20" y="760" on="1"/>
      </contour>
    </TTGlyph>
    <TTGlyph name="Tcaron" xMin="136" yMin="0" xMax="1229" yMax="1810">
      <component glyphName="T" x="0" y="0" flags="0x200"/>
      <component glyphName="caron" x="258" y="380" flags="0x0"/>
    </TTGlyph>
    <TTGlyph name="Tcommaaccent" xMin="113" yMin="-380" xMax="1229" yMax="1430">
      <component glyphName="T" x="0" y="0" flags="0x0"/>
      <component glyphName="commaccent" x="306" y="0" flags="0x0"/>
    </TTGlyph>
    <TTGlyph name="Theta" xMin="-34" yMin="-10" xMax="1681" yMax="1440">
      <contour>
        <pt x="498" y="783" on="1"/>
        <pt x="1173" y="783" on="1"/>
        <pt x="1153" y="683" on="1"/>
        <pt x="478" y="683" on="1"/>
      </contour>
      <contour>
        <pt x="99" y="80" on="0"/>
        <pt x="702" y="80" on="1"/>
        <pt x="1294" y="80" on="0"/>
        <pt x="1422" y="719" on="1"/>
        <pt x="1548" y="1350" on="0"/>
        <pt x="956" y="1350" on="1"/>
        <pt x="353" y="1350" on="0"/>
        <pt x="227" y="719" on="1"/>
      </contour>
      <contour>
        <pt x="111" y="713" on="1"/>
        <pt x="256" y="1440" on="0"/>
        <pt x="974" y="1440" on="1"/>
        <pt x="1681" y="1440" on="0"/>
        <pt x="1536" y="713" on="1"/>
        <pt x="1391" y="-10" on="0"/>
        <pt x="684" y="-10" on="1"/>
        <pt x="-34" y="-10" on="0"/>
      </contour>
    </TTGlyph>
    <TTGlyph name="Thorn" xMin="18" yMin="0" xMax="1260" yMax="1430">
      <contour>
        <pt x="18" y="0" on="1"/>
        <pt x="304" y="1430" on="1"/>
        <pt x="409" y="1430" on="1"/>
        <pt x="347" y="1122" on="1"/>
        <pt x="852" y="1122" on="1"/>
        <pt x="1260" y="1122" on="0"/>
        <pt x="1192" y="779" on="1"/>
        <pt x="1114" y="392" on="0"/>
        <pt x="527" y="300" on="1"/>
        <pt x="516" y="386" on="1"/>
        <pt x="1013" y="471" on="0"/>
        <pt x="1073" y="771" on="1"/>
        <pt x="1125" y="1029" on="0"/>
        <pt x="817" y="1029" on="1"/>
        <pt x="329" y="1029" on="1"/>
        <pt x="123" y="0" on="1"/>
      </contour>
    </TTGlyph>
    <TTGlyph name="U" xMin="16" yMin="-10" xMax="1454" yMax="1430">
      <contour>
        <pt x="128" y="552" on="1"/>
        <pt x="304" y="1430" on="1"/>
        <pt x="409" y="1430" on="1"/>
        <pt x="233" y="552" on="1"/>
        <pt x="139" y="80" on="0"/>
        <pt x="609" y="80" on="1"/>
        <pt x="1079" y="80" on="0"/>
        <pt x="1173" y="552" on="1"/>
        <pt x="1349" y="1430" on="1"/>
        <pt x="1454" y="1430" on="1"/>
        <pt x="1278" y="552" on="1"/>
        <pt x="1166" y="-10" on="0"/>
        <pt x="591" y="-10" on="1"/>
        <pt x="16" y="-10" on="0"/>
      </contour>
    </TTGlyph>
    <TTGlyph name="Uacute" xMin="16" yMin="-10" xMax="1454" yMax="1810">
      <component glyphName="U" x="0" y="0" flags="0x200"/>
      <component glyphName="acute" x="577" y="380" flags="0x0"/>
    </TTGlyph>
    <TTGlyph name="Ubreve" xMin="16" yMin="-10" xMax="1454" yMax="1810">
      <component glyphName="U" x="0" y="0" flags="0x200"/>
      <component glyphName="breve" x="440" y="380" flags="0x0"/>
    </TTGlyph>
    <TTGlyph name="Ucircumflex" xMin="16" yMin="-10" xMax="1454" yMax="1810">
      <component glyphName="U" x="0" y="0" flags="0x200"/>
      <component glyphName="circumflex" x="445" y="380" flags="0x0"/>
    </TTGlyph>
    <TTGlyph name="Udieresis" xMin="16" yMin="-10" xMax="1454" yMax="1790">
      <component glyphName="U" x="0" y="0" flags="0x200"/>
      <component glyphName="dieresis" x="488" y="380" flags="0x0"/>
    </TTGlyph>
    <TTGlyph name="Ugrave" xMin="16" yMin="-10" xMax="1454" yMax="1810">
      <component glyphName="U" x="0" y="0" flags="0x200"/>
      <component glyphName="grave" x="480" y="380" flags="0x0"/>
    </TTGlyph>
    <TTGlyph name="Uhungarumlaut" xMin="16" yMin="-10" xMax="1454" yMax="1810">
      <component glyphName="U" x="0" y="0" flags="0x200"/>
      <component glyphName="hungarumlaut" x="433" y="380" flags="0x0"/>
    </TTGlyph>
    <TTGlyph name="Umacron" xMin="16" yMin="-10" xMax="1454" yMax="1810">
      <component glyphName="U" x="0" y="0" flags="0x200"/>
      <component glyphName="macron" x="445" y="380" flags="0x0"/>
    </TTGlyph>
    <TTGlyph name="Uogonek" xMin="17" yMin="-426" xMax="1454" yMax="1430">
      <contour>
        <pt x="580" y="-10" on="1"/>
        <pt x="17" y="-4" on="0"/>
        <pt x="128" y="552" on="1"/>
        <pt x="304" y="1430" on="1"/>
        <pt x="409" y="1430" on="1"/>
        <pt x="233" y="552" on="1"/>
        <pt x="139" y="80" on="0"/>
        <pt x="609" y="80" on="1"/>
        <pt x="1079" y="80" on="0"/>
        <pt x="1173" y="552" on="1"/>
        <pt x="1349" y="1430" on="1"/>
        <pt x="1454" y="1430" on="1"/>
        <pt x="1278" y="552" on="1"/>
        <pt x="1177" y="44" on="0"/>
        <pt x="698" y="-5" on="1"/>
        <pt x="459" y="-128" on="0"/>
        <pt x="439" y="-228" on="1"/>
        <pt x="416" y="-346" on="0"/>
        <pt x="541" y="-346" on="1"/>
        <pt x="626" y="-346" on="0"/>
        <pt x="682" y="-326" on="1"/>
        <pt x="666" y="-406" on="1"/>
        <pt x="601" y="-426" on="0"/>
        <pt x="513" y="-426" on="1"/>
        <pt x="302" y="-426" on="0"/>
        <pt x="336" y="-253" on="1"/>
        <pt x="365" y="-109" on="0"/>
      </contour>
    </TTGlyph>
    <TTGlyph name="Upsilon" xMin="179" yMin="0" xMax="1359" yMax="1430">
      <component glyphName="Y" x="0" y="0" flags="0x200"/>
    </TTGlyph>
    <TTGlyph name="Upsilondieresis" xMin="179" yMin="0" xMax="1359" yMax="1790">
      <component glyphName="Upsilon" x="0" y="0" flags="0x200"/>
      <component glyphName="dieresis" x="368" y="380" flags="0x0"/>
    </TTGlyph>
    <TTGlyph name="Upsilontonos" xMin="46" yMin="0" xMax="1632" yMax="1430">
      <contour>
        <pt x="258" y="1430" on="1"/>
        <pt x="417" y="1430" on="1"/>
        <pt x="130" y="1191" on="1"/>
        <pt x="46" y="1191" on="1"/>
      </contour>
      <contour>
        <pt x="452" y="1430" on="1"/>
        <pt x="577" y="1430" on="1"/>
        <pt x="874" y="600" on="1"/>
        <pt x="1517" y="1430" on="1"/>
        <pt x="1632" y="1430" on="1"/>
        <pt x="910" y="500" on="1"/>
        <pt x="810" y="0" on="1"/>
        <pt x="705" y="0" on="1"/>
        <pt x="805" y="500" on="1"/>
      </contour>
    </TTGlyph>
    <TTGlyph name="Uring" xMin="16" yMin="-10" xMax="1454" yMax="1843">
      <component glyphName="U" x="0" y="0" flags="0x200"/>
      <component glyphName="ring" x="459" y="282" flags="0x0"/>
    </TTGlyph>
    <TTGlyph name="Utilde" xMin="16" yMin="-10" xMax="1454" yMax="1810">
      <component glyphName="U" x="0" y="0" flags="0x200"/>
      <component glyphName="tilde" x="445" y="380" flags="0x0"/>
    </TTGlyph>
    <TTGlyph name="V" xMin="179" yMin="0" xMax="1601" yMax="1430">
      <contour>
        <pt x="1601" y="1430" on="1"/>
        <pt x="688" y="0" on="1"/>
        <pt x="523" y="0" on="1"/>
        <pt x="179" y="1430" on="1"/>
        <pt x="287" y="1430" on="1"/>
        <pt x="618" y="81" on="1"/>
        <pt x="1482" y="1430" on="1"/>
      </contour>
    </TTGlyph>
    <TTGlyph name="W" xMin="148" yMin="0" xMax="1929" yMax="1430">
      <contour>
        <pt x="179" y="1430" on="1"/>
        <pt x="278" y="1430" on="1"/>
        <pt x="255" y="101" on="1"/>
        <pt x="983" y="1430" on="1"/>
        <pt x="1088" y="1430" on="1"/>
        <pt x="1295" y="88" on="1"/>
        <pt x="1838" y="1430" on="1"/>
        <pt x="1929" y="1430" on="1"/>
        <pt x="1354" y="0" on="1"/>
        <pt x="1202" y="0" on="1"/>
        <pt x="1011" y="1306" on="1"/>
        <pt x="297" y="0" on="1"/>
        <pt x="148" y="0" on="1"/>
      </contour>
    </TTGlyph>
    <TTGlyph name="Wcircumflex" xMin="148" yMin="0" xMax="1929" yMax="1810">
      <component glyphName="W" x="0" y="0" flags="0x200"/>
      <component glyphName="circumflex" x="620" y="380" flags="0x0"/>
    </TTGlyph>
    <TTGlyph name="X" xMin="-107" yMin="0" xMax="1429" yMax="1430">
      <contour>
        <pt x="599" y="715" on="1"/>
        <pt x="179" y="1430" on="1"/>
        <pt x="299" y="1430" on="1"/>
        <pt x="672" y="794" on="1"/>
        <pt x="1299" y="1430" on="1"/>
        <pt x="1429" y="1430" on="1"/>
        <pt x="724" y="715" on="1"/>
        <pt x="1143" y="0" on="1"/>
        <pt x="1024" y="0" on="1"/>
        <pt x="651" y="636" on="1"/>
        <pt x="24" y="0" on="1"/>
        <pt x="-107" y="0" on="1"/>
      </contour>
    </TTGlyph>
    <TTGlyph name="Xi" xMin="-42" yMin="0" xMax="1240" yMax="1430">
      <contour>
        <pt x="-22" y="100" on="1"/>
        <pt x="974" y="100" on="1"/>
        <pt x="954" y="0" on="1"/>
        <pt x="-42" y="0" on="1"/>
      </contour>
      <contour>
        <pt x="244" y="1430" on="1"/>
        <pt x="1240" y="1430" on="1"/>
        <pt x="1220" y="1330" on="1"/>
        <pt x="224" y="1330" on="1"/>
      </contour>
      <contour>
        <pt x="175" y="783" on="1"/>
        <pt x="1051" y="783" on="1"/>
        <pt x="1031" y="683" on="1"/>
        <pt x="155" y="683" on="1"/>
      </contour>
    </TTGlyph>
    <TTGlyph name="Y" xMin="179" yMin="0" xMax="1359" yMax="1430">
      <contour>
        <pt x="179" y="1430" on="1"/>
        <pt x="304" y="1430" on="1"/>
        <pt x="601" y="600" on="1"/>
        <pt x="1244" y="1430" on="1"/>
        <pt x="1359" y="1430" on="1"/>
        <pt x="637" y="500" on="1"/>
        <pt x="537" y="0" on="1"/>
        <pt x="432" y="0" on="1"/>
        <pt x="532" y="500" on="1"/>
      </contour>
    </TTGlyph>
    <TTGlyph name="Yacute" xMin="179" yMin="0" xMax="1359" yMax="1810">
      <component glyphName="Y" x="0" y="0" flags="0x200"/>
      <component glyphName="acute" x="477" y="380" flags="0x0"/>
    </TTGlyph>
    <TTGlyph name="Ycircumflex" xMin="179" yMin="0" xMax="1359" yMax="1810">
      <component glyphName="Y" x="0" y="0" flags="0x200"/>
      <component glyphName="circumflex" x="335" y="380" flags="0x0"/>
    </TTGlyph>
    <TTGlyph name="Ydieresis" xMin="179" yMin="0" xMax="1359" yMax="1790">
      <component glyphName="Y" x="0" y="0" flags="0x200"/>
      <component glyphName="dieresis" x="358" y="380" flags="0x0"/>
    </TTGlyph>
    <TTGlyph name="Z" xMin="-7" yMin="0" xMax="1279" yMax="1430">
      <contour>
        <pt x="1279" y="1430" on="1"/>
        <pt x="1261" y="1340" on="1"/>
        <pt x="144" y="90" on="1"/>
        <pt x="991" y="90" on="1"/>
        <pt x="973" y="0" on="1"/>
        <pt x="-7" y="0" on="1"/>
        <pt x="9" y="80" on="1"/>
        <pt x="1145" y="1340" on="1"/>
        <pt x="281" y="1340" on="1"/>
        <pt x="299" y="1430" on="1"/>
      </contour>
    </TTGlyph>
    <TTGlyph name="Zacute" xMin="-7" yMin="0" xMax="1279" yMax="1810">
      <component glyphName="Z" x="0" y="0" flags="0x200"/>
      <component glyphName="acute" x="487" y="380" flags="0x0"/>
    </TTGlyph>
    <TTGlyph name="Zcaron" xMin="-7" yMin="0" xMax="1279" yMax="1831">
      <contour>
        <pt x="1279" y="1430" on="1"/>
        <pt x="1261" y="1340" on="1"/>
        <pt x="144" y="90" on="1"/>
        <pt x="991" y="90" on="1"/>
        <pt x="973" y="0" on="1"/>
        <pt x="-7" y="0" on="1"/>
        <pt x="9" y="80" on="1"/>
        <pt x="1155" y="1340" on="1"/>
        <pt x="281" y="1340" on="1"/>
        <pt x="299" y="1430" on="1"/>
      </contour>
      <contour>
        <pt x="644" y="1831" on="1"/>
        <pt x="744" y="1831" on="1"/>
        <pt x="853" y="1637" on="1"/>
        <pt x="1044" y="1831" on="1"/>
        <pt x="1144" y="1831" on="1"/>
        <pt x="897" y="1571" on="1"/>
        <pt x="787" y="1571" on="1"/>
      </contour>
    </TTGlyph>
    <TTGlyph name="Zdot" xMin="-7" yMin="0" xMax="1279" yMax="1810">
      <component glyphName="Z" x="0" y="0" flags="0x200"/>
      <component glyphName="dotaccent" x="513" y="380" flags="0x0"/>
    </TTGlyph>
    <TTGlyph name="Zeta" xMin="-7" yMin="0" xMax="1279" yMax="1430">
      <component glyphName="Z" x="0" y="0" flags="0x200"/>
    </TTGlyph>
    <TTGlyph name="a" xMin="-32" yMin="0" xMax="1026" yMax="1050">
      <contour>
        <pt x="906" y="932" on="1"/>
        <pt x="776" y="956" on="0"/>
        <pt x="636" y="956" on="1"/>
        <pt x="261" y="956" on="0"/>
        <pt x="175" y="523" on="1"/>
        <pt x="90" y="100" on="0"/>
        <pt x="347" y="100" on="1"/>
        <pt x="591" y="100" on="0"/>
        <pt x="791" y="354" on="1"/>
      </contour>
      <contour>
        <pt x="825" y="0" on="1"/>
        <pt x="740" y="0" on="1"/>
        <pt x="770" y="250" on="1"/>
        <pt x="562" y="0" on="0"/>
        <pt x="326" y="0" on="1"/>
        <pt x="-32" y="0" on="0"/>
        <pt x="72" y="521" on="1"/>
        <pt x="178" y="1050" on="0"/>
        <pt x="663" y="1050" on="1"/>
        <pt x="876" y="1050" on="0"/>
        <pt x="1026" y="1007" on="1"/>
      </contour>
    </TTGlyph>
    <TTGlyph name="aacute" xMin="-32" yMin="0" xMax="1026" yMax="1430">
      <component glyphName="a" x="0" y="0" flags="0x200"/>
      <component glyphName="acute" x="381" y="0" flags="0x0"/>
    </TTGlyph>
    <TTGlyph name="abreve" xMin="-32" yMin="0" xMax="1026" yMax="1430">
      <component glyphName="a" x="0" y="0" flags="0x200"/>
      <component glyphName="breve" x="234" y="0" flags="0x0"/>
    </TTGlyph>
    <TTGlyph name="acircumflex" xMin="-32" yMin="0" xMax="1026" yMax="1430">
      <component glyphName="a" x="0" y="0" flags="0x200"/>
      <component glyphName="circumflex" x="239" y="0" flags="0x0"/>
    </TTGlyph>
    <TTGlyph name="acute" xMin="196" yMin="1191" xMax="567" yMax="1430">
      <contour>
        <pt x="408" y="1430" on="1"/>
        <pt x="567" y="1430" on="1"/>
        <pt x="280" y="1191" on="1"/>
        <pt x="196" y="1191" on="1"/>
      </contour>
    </TTGlyph>
    <TTGlyph name="adieresis" xMin="-32" yMin="0" xMax="1026" yMax="1410">
      <component glyphName="a" x="0" y="0" flags="0x200"/>
      <component glyphName="dieresis" x="271" y="0" flags="0x0"/>
    </TTGlyph>
    <TTGlyph name="ae" xMin="-42" yMin="0" xMax="1733" yMax="1050">
      <contour>
        <pt x="466" y="510" on="1"/>
        <pt x="165" y="510" on="0"/>
        <pt x="123" y="300" on="1"/>
        <pt x="81" y="90" on="0"/>
        <pt x="331" y="90" on="1"/>
        <pt x="523" y="90" on="0"/>
        <pt x="716" y="192" on="1"/>
        <pt x="776" y="490" on="1"/>
        <pt x="613" y="510" on="0"/>
      </contour>
      <contour>
        <pt x="890" y="586" on="1"/>
        <pt x="1268" y="586" on="1"/>
        <pt x="1535" y="586" on="0"/>
        <pt x="1574" y="779" on="1"/>
        <pt x="1610" y="962" on="0"/>
        <pt x="1333" y="962" on="1"/>
        <pt x="983" y="962" on="0"/>
      </contour>
      <contour>
        <pt x="814" y="155" on="1"/>
        <pt x="558" y="0" on="0"/>
        <pt x="313" y="0" on="1"/>
        <pt x="-42" y="0" on="0"/>
        <pt x="17" y="297" on="1"/>
        <pt x="78" y="600" on="0"/>
        <pt x="484" y="600" on="1"/>
        <pt x="631" y="600" on="0"/>
        <pt x="794" y="580" on="1"/>
        <pt x="822" y="719" on="1"/>
        <pt x="870" y="960" on="0"/>
        <pt x="567" y="960" on="1"/>
        <pt x="405" y="960" on="0"/>
        <pt x="225" y="910" on="1"/>
        <pt x="243" y="1000" on="1"/>
        <pt x="423" y="1050" on="0"/>
        <pt x="585" y="1050" on="1"/>
        <pt x="881" y="1050" on="0"/>
        <pt x="918" y="855" on="1"/>
        <pt x="1049" y="1050" on="0"/>
        <pt x="1351" y="1050" on="1"/>
        <pt x="1733" y="1050" on="0"/>
        <pt x="1678" y="776" on="1"/>
        <pt x="1621" y="492" on="0"/>
        <pt x="1251" y="492" on="1"/>
        <pt x="871" y="492" on="1"/>
        <pt x="791" y="90" on="0"/>
        <pt x="1167" y="90" on="1"/>
        <pt x="1376" y="90" on="0"/>
        <pt x="1543" y="230" on="1"/>
        <pt x="1523" y="130" on="1"/>
        <pt x="1358" y="0" on="0"/>
        <pt x="1149" y="0" on="1"/>
        <pt x="891" y="0" on="0"/>
      </contour>
    </TTGlyph>
    <TTGlyph name="afii10017" xMin="-107" yMin="0" xMax="1315" yMax="1430">
      <component glyphName="A" x="0" y="0" flags="0x200"/>
    </TTGlyph>
    <TTGlyph name="afii10018" xMin="18" yMin="0" xMax="1305" yMax="1430">
      <contour>
        <pt x="1305" y="1430" on="1"/>
        <pt x="1287" y="1340" on="1"/>
        <pt x="392" y="1340" on="1"/>
        <pt x="143" y="93" on="1"/>
        <pt x="630" y="93" on="1"/>
        <pt x="948" y="93" on="0"/>
        <pt x="1009" y="402" on="1"/>
        <pt x="1075" y="730" on="0"/>
        <pt x="703" y="730" on="1"/>
        <pt x="515" y="730" on="1"/>
        <pt x="533" y="820" on="1"/>
        <pt x="730" y="820" on="1"/>
        <pt x="1198" y="820" on="0"/>
        <pt x="1117" y="413" on="1"/>
        <pt x="1034" y="0" on="0"/>
        <pt x="628" y="0" on="1"/>
        <pt x="18" y="0" on="1"/>
        <pt x="304" y="1430" on="1"/>
      </contour>
    </TTGlyph>
    <TTGlyph name="afii10019" xMin="18" yMin="0" xMax="1322" yMax="1430">
      <component glyphName="B" x="0" y="0" flags="0x200"/>
    </TTGlyph>
    <TTGlyph name="afii10020" xMin="18" yMin="0" xMax="1157" yMax="1430">
      <contour>
        <pt x="18" y="0" on="1"/>
        <pt x="304" y="1430" on="1"/>
        <pt x="1157" y="1430" on="1"/>
        <pt x="1139" y="1340" on="1"/>
        <pt x="391" y="1340" on="1"/>
        <pt x="123" y="0" on="1"/>
      </contour>
    </TTGlyph>
    <TTGlyph name="afii10021" xMin="0" yMin="-380" xMax="1544" yMax="1430">
      <contour>
        <pt x="418" y="90" on="1"/>
        <pt x="1254" y="90" on="1"/>
        <pt x="1254" y="1340" on="1"/>
        <pt x="704" y="1340" on="1"/>
        <pt x="704" y="341" on="0"/>
      </contour>
      <contour>
        <pt x="0" y="-380" on="1"/>
        <pt x="0" y="90" on="1"/>
        <pt x="184" y="90" on="1"/>
        <pt x="599" y="90" on="0"/>
        <pt x="599" y="1340" on="1"/>
        <pt x="599" y="1430" on="1"/>
        <pt x="1359" y="1430" on="1"/>
        <pt x="1359" y="90" on="1"/>
        <pt x="1544" y="90" on="1"/>
        <pt x="1544" y="-380" on="1"/>
        <pt x="1439" y="-380" on="1"/>
        <pt x="1439" y="0" on="1"/>
        <pt x="104" y="0" on="1"/>
        <pt x="104" y="-380" on="1"/>
      </contour>
    </TTGlyph>
    <TTGlyph name="afii10022" xMin="18" yMin="0" xMax="1243" yMax="1430">
      <component glyphName="E" x="0" y="0" flags="0x200"/>
    </TTGlyph>
    <TTGlyph name="afii10023" xMin="18" yMin="0" xMax="1243" yMax="1790">
      <component glyphName="E" x="0" y="0" flags="0x200"/>
      <component glyphName="dieresis" x="379" y="380" flags="0x0"/>
    </TTGlyph>
    <TTGlyph name="afii10024" xMin="-72" yMin="0" xMax="2158" yMax="1430">
      <contour>
        <pt x="1683" y="0" on="1"/>
        <pt x="1452" y="540" on="0"/>
        <pt x="1313" y="723" on="0"/>
        <pt x="1195" y="723" on="1"/>
        <pt x="1209" y="796" on="1"/>
        <pt x="1409" y="796" on="0"/>
        <pt x="1863" y="1430" on="0"/>
        <pt x="2051" y="1430" on="1"/>
        <pt x="2158" y="1430" on="1"/>
        <pt x="2140" y="1340" on="1"/>
        <pt x="2061" y="1340" on="1"/>
        <pt x="1903" y="1340" on="0"/>
        <pt x="1526" y="797" on="0"/>
        <pt x="1374" y="758" on="1"/>
        <pt x="1446" y="745" on="0"/>
        <pt x="1586" y="546" on="0"/>
        <pt x="1827" y="0" on="1"/>
      </contour>
      <contour>
        <pt x="1216" y="1430" on="1"/>
        <pt x="930" y="0" on="1"/>
        <pt x="825" y="0" on="1"/>
        <pt x="1111" y="1430" on="1"/>
      </contour>
      <contour>
        <pt x="-72" y="0" on="1"/>
        <pt x="387" y="546" on="0"/>
        <pt x="607" y="745" on="0"/>
        <pt x="685" y="758" on="1"/>
        <pt x="547" y="797" on="0"/>
        <pt x="388" y="1340" on="0"/>
        <pt x="230" y="1340" on="1"/>
        <pt x="151" y="1340" on="1"/>
        <pt x="169" y="1430" on="1"/>
        <pt x="276" y="1430" on="1"/>
        <pt x="464" y="1430" on="0"/>
        <pt x="664" y="796" on="0"/>
        <pt x="864" y="796" on="1"/>
        <pt x="850" y="723" on="1"/>
        <pt x="732" y="723" on="0"/>
        <pt x="519" y="540" on="0"/>
        <pt x="72" y="0" on="1"/>
      </contour>
    </TTGlyph>
    <TTGlyph name="afii10025" xMin="-32" yMin="-10" xMax="1161" yMax="1440">
      <contour>
        <pt x="234" y="1380" on="1"/>
        <pt x="446" y="1440" on="0"/>
        <pt x="646" y="1440" on="1"/>
        <pt x="1161" y="1440" on="0"/>
        <pt x="1083" y="1050" on="1"/>
        <pt x="1032" y="794" on="0"/>
        <pt x="780" y="725" on="1"/>
        <pt x="1005" y="660" on="0"/>
        <pt x="953" y="400" on="1"/>
        <pt x="871" y="-10" on="0"/>
        <pt x="356" y="-10" on="1"/>
        <pt x="156" y="-10" on="0"/>
        <pt x="-32" y="50" on="1"/>
        <pt x="-12" y="150" on="1"/>
        <pt x="174" y="80" on="0"/>
        <pt x="374" y="80" on="1"/>
        <pt x="784" y="80" on="0"/>
        <pt x="848" y="400" on="1"/>
        <pt x="904" y="680" on="0"/>
        <pt x="572" y="680" on="1"/>
        <pt x="244" y="680" on="1"/>
        <pt x="262" y="770" on="1"/>
        <pt x="587" y="770" on="1"/>
        <pt x="922" y="770" on="0"/>
        <pt x="978" y="1050" on="1"/>
        <pt x="1038" y="1350" on="0"/>
        <pt x="628" y="1350" on="1"/>
        <pt x="428" y="1350" on="0"/>
        <pt x="214" y="1280" on="1"/>
      </contour>
    </TTGlyph>
    <TTGlyph name="afii10026" xMin="18" yMin="0" xMax="1419" yMax="1430">
      <contour>
        <pt x="1028" y="0" on="1"/>
        <pt x="1282" y="1272" on="1"/>
        <pt x="133" y="0" on="1"/>
        <pt x="18" y="0" on="1"/>
        <pt x="304" y="1430" on="1"/>
        <pt x="409" y="1430" on="1"/>
        <pt x="155" y="158" on="1"/>
        <pt x="1304" y="1430" on="1"/>
        <pt x="1419" y="1430" on="1"/>
        <pt x="1133" y="0" on="1"/>
      </contour>
    </TTGlyph>
    <TTGlyph name="afii10027" xMin="18" yMin="0" xMax="1419" yMax="1784">
      <contour>
        <pt x="685" y="1784" on="1"/>
        <pt x="770" y="1784" on="1"/>
        <pt x="734" y="1604" on="0"/>
        <pt x="904" y="1604" on="1"/>
        <pt x="1074" y="1604" on="0"/>
        <pt x="1110" y="1784" on="1"/>
        <pt x="1195" y="1784" on="1"/>
        <pt x="1143" y="1524" on="0"/>
        <pt x="888" y="1524" on="1"/>
        <pt x="633" y="1524" on="0"/>
      </contour>
      <contour>
        <pt x="1028" y="0" on="1"/>
        <pt x="1282" y="1272" on="1"/>
        <pt x="133" y="0" on="1"/>
        <pt x="18" y="0" on="1"/>
        <pt x="304" y="1430" on="1"/>
        <pt x="409" y="1430" on="1"/>
        <pt x="155" y="158" on="1"/>
        <pt x="1304" y="1430" on="1"/>
        <pt x="1419" y="1430" on="1"/>
        <pt x="1133" y="0" on="1"/>
      </contour>
    </TTGlyph>
    <TTGlyph name="afii10028" xMin="18" yMin="0" xMax="1351" yMax="1430">
      <contour>
        <pt x="876" y="0" on="1"/>
        <pt x="645" y="540" on="0"/>
        <pt x="506" y="723" on="0"/>
        <pt x="388" y="723" on="1"/>
        <pt x="402" y="796" on="1"/>
        <pt x="602" y="796" on="0"/>
        <pt x="1056" y="1430" on="0"/>
        <pt x="1244" y="1430" on="1"/>
        <pt x="1351" y="1430" on="1"/>
        <pt x="1333" y="1340" on="1"/>
        <pt x="1254" y="1340" on="1"/>
        <pt x="1096" y="1340" on="0"/>
        <pt x="699" y="797" on="0"/>
        <pt x="567" y="758" on="1"/>
        <pt x="639" y="745" on="0"/>
        <pt x="779" y="546" on="0"/>
        <pt x="1020" y="0" on="1"/>
      </contour>
      <contour>
        <pt x="409" y="1430" on="1"/>
        <pt x="123" y="0" on="1"/>
        <pt x="18" y="0" on="1"/>
        <pt x="304" y="1430" on="1"/>
      </contour>
    </TTGlyph>
    <TTGlyph name="afii10029" xMin="-142" yMin="0" xMax="1418" yMax="1430">
      <contour>
        <pt x="-124" y="90" on="1"/>
        <pt x="290" y="90" on="0"/>
        <pt x="432" y="800" on="1"/>
        <pt x="558" y="1430" on="1"/>
        <pt x="1418" y="1430" on="1"/>
        <pt x="1132" y="0" on="1"/>
        <pt x="1027" y="0" on="1"/>
        <pt x="1295" y="1340" on="1"/>
        <pt x="645" y="1340" on="1"/>
        <pt x="537" y="800" on="1"/>
        <pt x="377" y="0" on="0"/>
        <pt x="-142" y="0" on="1"/>
      </contour>
    </TTGlyph>
    <TTGlyph name="afii10030" xMin="18" yMin="0" xMax="1754" yMax="1430">
      <component glyphName="M" x="0" y="0" flags="0x200"/>
    </TTGlyph>
    <TTGlyph name="afii10031" xMin="18" yMin="0" xMax="1409" yMax="1430">
      <contour>
        <pt x="18" y="0" on="1"/>
        <pt x="304" y="1430" on="1"/>
        <pt x="409" y="1430" on="1"/>
        <pt x="279" y="780" on="1"/>
        <pt x="1174" y="780" on="1"/>
        <pt x="1304" y="1430" on="1"/>
        <pt x="1409" y="1430" on="1"/>
        <pt x="1123" y="0" on="1"/>
        <pt x="1018" y="0" on="1"/>
        <pt x="1156" y="690" on="1"/>
        <pt x="261" y="690" on="1"/>
        <pt x="123" y="0" on="1"/>
      </contour>
    </TTGlyph>
    <TTGlyph name="afii10032" xMin="-34" yMin="-10" xMax="1681" yMax="1440">
      <component glyphName="O" x="0" y="0" flags="0x200"/>
    </TTGlyph>
    <TTGlyph name="afii10033" xMin="18" yMin="0" xMax="1409" yMax="1430">
      <contour>
        <pt x="18" y="0" on="1"/>
        <pt x="304" y="1430" on="1"/>
        <pt x="1409" y="1430" on="1"/>
        <pt x="1123" y="0" on="1"/>
        <pt x="1018" y="0" on="1"/>
        <pt x="1286" y="1340" on="1"/>
        <pt x="391" y="1340" on="1"/>
        <pt x="123" y="0" on="1"/>
      </contour>
    </TTGlyph>
    <TTGlyph name="afii10034" xMin="18" yMin="0" xMax="1322" yMax="1430">
      <component glyphName="P" x="0" y="0" flags="0x200"/>
    </TTGlyph>
    <TTGlyph name="afii10035" xMin="-34" yMin="-10" xMax="1394" yMax="1440">
      <component glyphName="C" x="0" y="0" flags="0x200"/>
    </TTGlyph>
    <TTGlyph name="afii10036" xMin="136" yMin="0" xMax="1229" yMax="1430">
      <component glyphName="T" x="0" y="0" flags="0x200"/>
    </TTGlyph>
    <TTGlyph name="afii10037" xMin="36" yMin="0" xMax="1426" yMax="1430">
      <contour>
        <pt x="1426" y="1430" on="1"/>
        <pt x="701" y="268" on="1"/>
        <pt x="533" y="0" on="0"/>
        <pt x="258" y="0" on="1"/>
        <pt x="130" y="0" on="0"/>
        <pt x="36" y="70" on="1"/>
        <pt x="54" y="160" on="1"/>
        <pt x="146" y="90" on="0"/>
        <pt x="266" y="90" on="1"/>
        <pt x="480" y="90" on="0"/>
        <pt x="579" y="271" on="1"/>
        <pt x="194" y="1430" on="1"/>
        <pt x="302" y="1430" on="1"/>
        <pt x="657" y="370" on="1"/>
        <pt x="1307" y="1430" on="1"/>
      </contour>
    </TTGlyph>
    <TTGlyph name="afii10038" xMin="-12" yMin="0" xMax="1659" yMax="1430">
      <contour>
        <pt x="651" y="113" on="1"/>
        <pt x="-12" y="150" on="0"/>
        <pt x="103" y="723" on="1"/>
        <pt x="214" y="1280" on="0"/>
        <pt x="891" y="1317" on="1"/>
        <pt x="914" y="1430" on="1"/>
        <pt x="1018" y="1430" on="1"/>
        <pt x="996" y="1318" on="1"/>
        <pt x="1659" y="1284" on="0"/>
        <pt x="1547" y="723" on="1"/>
        <pt x="1431" y="145" on="0"/>
        <pt x="754" y="112" on="1"/>
        <pt x="732" y="0" on="1"/>
        <pt x="628" y="0" on="1"/>
      </contour>
      <contour>
        <pt x="669" y="204" on="1"/>
        <pt x="873" y="1226" on="1"/>
        <pt x="310" y="1190" on="0"/>
        <pt x="216" y="719" on="1"/>
        <pt x="120" y="241" on="0"/>
      </contour>
      <contour>
        <pt x="977" y="1227" on="1"/>
        <pt x="773" y="203" on="1"/>
        <pt x="1335" y="237" on="0"/>
        <pt x="1432" y="719" on="1"/>
        <pt x="1527" y="1194" on="0"/>
      </contour>
    </TTGlyph>
    <TTGlyph name="afii10039" xMin="-107" yMin="0" xMax="1429" yMax="1430">
      <contour>
        <pt x="599" y="715" on="1"/>
        <pt x="179" y="1430" on="1"/>
        <pt x="299" y="1430" on="1"/>
        <pt x="672" y="794" on="1"/>
        <pt x="1299" y="1430" on="1"/>
        <pt x="1429" y="1430" on="1"/>
        <pt x="724" y="715" on="1"/>
        <pt x="1143" y="0" on="1"/>
        <pt x="1024" y="0" on="1"/>
        <pt x="651" y="636" on="1"/>
        <pt x="24" y="0" on="1"/>
        <pt x="-107" y="0" on="1"/>
      </contour>
    </TTGlyph>
    <TTGlyph name="afii10040" xMin="18" yMin="-380" xMax="1336" yMax="1430">
      <contour>
        <pt x="18" y="0" on="1"/>
        <pt x="304" y="1430" on="1"/>
        <pt x="409" y="1430" on="1"/>
        <pt x="141" y="90" on="1"/>
        <pt x="963" y="90" on="1"/>
        <pt x="1231" y="1430" on="1"/>
        <pt x="1336" y="1430" on="1"/>
        <pt x="1068" y="90" on="1"/>
        <pt x="1253" y="90" on="1"/>
        <pt x="1159" y="-380" on="1"/>
        <pt x="1054" y="-380" on="1"/>
        <pt x="1130" y="0" on="1"/>
      </contour>
    </TTGlyph>
    <TTGlyph name="afii10041" xMin="87" yMin="0" xMax="1302" yMax="1430">
      <contour>
        <pt x="1302" y="1430" on="1"/>
        <pt x="1016" y="0" on="1"/>
        <pt x="911" y="0" on="1"/>
        <pt x="1038" y="634" on="1"/>
        <pt x="819" y="520" on="0"/>
        <pt x="586" y="520" on="1"/>
        <pt x="87" y="520" on="0"/>
        <pt x="183" y="1001" on="1"/>
        <pt x="269" y="1430" on="1"/>
        <pt x="374" y="1430" on="1"/>
        <pt x="288" y="998" on="1"/>
        <pt x="211" y="614" on="0"/>
        <pt x="610" y="614" on="1"/>
        <pt x="859" y="614" on="0"/>
        <pt x="1060" y="747" on="1"/>
        <pt x="1197" y="1430" on="1"/>
      </contour>
    </TTGlyph>
    <TTGlyph name="afii10042" xMin="18" yMin="0" xMax="1759" yMax="1430">
      <contour>
        <pt x="18" y="0" on="1"/>
        <pt x="304" y="1430" on="1"/>
        <pt x="409" y="1430" on="1"/>
        <pt x="141" y="90" on="1"/>
        <pt x="711" y="90" on="1"/>
        <pt x="979" y="1430" on="1"/>
        <pt x="1084" y="1430" on="1"/>
        <pt x="816" y="90" on="1"/>
        <pt x="1386" y="90" on="1"/>
        <pt x="1654" y="1430" on="1"/>
        <pt x="1759" y="1430" on="1"/>
        <pt x="1473" y="0" on="1"/>
      </contour>
    </TTGlyph>
    <TTGlyph name="afii10043" xMin="18" yMin="-380" xMax="1759" yMax="1430">
      <contour>
        <pt x="18" y="0" on="1"/>
        <pt x="304" y="1430" on="1"/>
        <pt x="409" y="1430" on="1"/>
        <pt x="141" y="90" on="1"/>
        <pt x="711" y="90" on="1"/>
        <pt x="979" y="1430" on="1"/>
        <pt x="1084" y="1430" on="1"/>
        <pt x="816" y="90" on="1"/>
        <pt x="1386" y="90" on="1"/>
        <pt x="1654" y="1430" on="1"/>
        <pt x="1759" y="1430" on="1"/>
        <pt x="1491" y="90" on="1"/>
        <pt x="1676" y="90" on="1"/>
        <pt x="1582" y="-380" on="1"/>
        <pt x="1477" y="-380" on="1"/>
        <pt x="1553" y="0" on="1"/>
      </contour>
    </TTGlyph>
    <TTGlyph name="afii10044" xMin="126" yMin="0" xMax="1632" yMax="1430">
      <contour>
        <pt x="831" y="1430" on="1"/>
        <pt x="564" y="93" on="1"/>
        <pt x="1062" y="93" on="1"/>
        <pt x="1370" y="93" on="0"/>
        <pt x="1431" y="402" on="1"/>
        <pt x="1497" y="730" on="0"/>
        <pt x="1135" y="730" on="1"/>
        <pt x="857" y="730" on="1"/>
        <pt x="875" y="820" on="1"/>
        <pt x="1153" y="820" on="1"/>
        <pt x="1632" y="820" on="0"/>
        <pt x="1551" y="413" on="1"/>
        <pt x="1468" y="0" on="0"/>
        <pt x="1050" y="0" on="1"/>
        <pt x="440" y="0" on="1"/>
        <pt x="708" y="1340" on="1"/>
        <pt x="126" y="1340" on="1"/>
        <pt x="144" y="1430" on="1"/>
      </contour>
    </TTGlyph>
    <TTGlyph name="afii10045" xMin="18" yMin="0" xMax="1629" yMax="1430">
      <contour>
        <pt x="409" y="1430" on="1"/>
        <pt x="142" y="93" on="1"/>
        <pt x="640" y="93" on="1"/>
        <pt x="958" y="93" on="0"/>
        <pt x="1019" y="402" on="1"/>
        <pt x="1085" y="730" on="0"/>
        <pt x="713" y="730" on="1"/>
        <pt x="435" y="730" on="1"/>
        <pt x="453" y="820" on="1"/>
        <pt x="731" y="820" on="1"/>
        <pt x="1210" y="820" on="0"/>
        <pt x="1129" y="413" on="1"/>
        <pt x="1046" y="0" on="0"/>
        <pt x="628" y="0" on="1"/>
        <pt x="18" y="0" on="1"/>
        <pt x="304" y="1430" on="1"/>
      </contour>
      <contour>
        <pt x="1238" y="0" on="1"/>
        <pt x="1524" y="1430" on="1"/>
        <pt x="1629" y="1430" on="1"/>
        <pt x="1343" y="0" on="1"/>
      </contour>
    </TTGlyph>
    <TTGlyph name="afii10046" xMin="18" yMin="0" xMax="1210" yMax="1430">
      <contour>
        <pt x="409" y="1430" on="1"/>
        <pt x="142" y="93" on="1"/>
        <pt x="640" y="93" on="1"/>
        <pt x="958" y="93" on="0"/>
        <pt x="1019" y="402" on="1"/>
        <pt x="1085" y="730" on="0"/>
        <pt x="713" y="730" on="1"/>
        <pt x="435" y="730" on="1"/>
        <pt x="453" y="820" on="1"/>
        <pt x="730" y="820" on="1"/>
        <pt x="1210" y="820" on="0"/>
        <pt x="1129" y="413" on="1"/>
        <pt x="1046" y="0" on="0"/>
        <pt x="628" y="0" on="1"/>
        <pt x="18" y="0" on="1"/>
        <pt x="304" y="1430" on="1"/>
      </contour>
    </TTGlyph>
    <TTGlyph name="afii10047" xMin="-7" yMin="-10" xMax="1421" yMax="1440">
      <contour>
        <pt x="13" y="150" on="1"/>
        <pt x="184" y="80" on="0"/>
        <pt x="399" y="80" on="1"/>
        <pt x="1011" y="80" on="0"/>
        <pt x="1161" y="680" on="1"/>
        <pt x="191" y="680" on="1"/>
        <pt x="209" y="770" on="1"/>
        <pt x="1180" y="770" on="1"/>
        <pt x="1273" y="1350" on="0"/>
        <pt x="653" y="1350" on="1"/>
        <pt x="438" y="1350" on="0"/>
        <pt x="239" y="1280" on="1"/>
        <pt x="259" y="1380" on="1"/>
        <pt x="456" y="1440" on="0"/>
        <pt x="671" y="1440" on="1"/>
        <pt x="1421" y="1440" on="0"/>
        <pt x="1280" y="735" on="1"/>
        <pt x="1131" y="-10" on="0"/>
        <pt x="381" y="-10" on="1"/>
        <pt x="166" y="-10" on="0"/>
        <pt x="-7" y="50" on="1"/>
      </contour>
    </TTGlyph>
    <TTGlyph name="afii10048" xMin="18" yMin="-10" xMax="2058" yMax="1440">
      <contour>
        <pt x="18" y="0" on="1"/>
        <pt x="304" y="1430" on="1"/>
        <pt x="408" y="1430" on="1"/>
        <pt x="276" y="770" on="1"/>
        <pt x="771" y="770" on="1"/>
        <pt x="929" y="1440" on="0"/>
        <pt x="1481" y="1440" on="1"/>
        <pt x="2058" y="1440" on="0"/>
        <pt x="1915" y="723" on="1"/>
        <pt x="1768" y="-10" on="0"/>
        <pt x="1191" y="-10" on="1"/>
        <pt x="629" y="-10" on="0"/>
        <pt x="752" y="680" on="1"/>
        <pt x="258" y="680" on="1"/>
        <pt x="122" y="0" on="1"/>
      </contour>
      <contour>
        <pt x="1209" y="80" on="1"/>
        <pt x="1671" y="80" on="0"/>
        <pt x="1799" y="719" on="1"/>
        <pt x="1925" y="1350" on="0"/>
        <pt x="1463" y="1350" on="1"/>
        <pt x="990" y="1350" on="0"/>
        <pt x="864" y="719" on="1"/>
        <pt x="736" y="80" on="0"/>
      </contour>
    </TTGlyph>
    <TTGlyph name="afii10049" xMin="-117" yMin="0" xMax="1209" yMax="1430">
      <contour>
        <pt x="818" y="0" on="1"/>
        <pt x="1085" y="1337" on="1"/>
        <pt x="617" y="1337" on="1"/>
        <pt x="329" y="1337" on="0"/>
        <pt x="278" y="1079" on="1"/>
        <pt x="222" y="799" on="0"/>
        <pt x="649" y="734" on="1"/>
        <pt x="635" y="663" on="1"/>
        <pt x="27" y="0" on="1"/>
        <pt x="-117" y="0" on="1"/>
        <pt x="499" y="666" on="1"/>
        <pt x="103" y="790" on="0"/>
        <pt x="162" y="1087" on="1"/>
        <pt x="231" y="1430" on="0"/>
        <pt x="619" y="1430" on="1"/>
        <pt x="1209" y="1430" on="1"/>
        <pt x="923" y="0" on="1"/>
      </contour>
    </TTGlyph>
    <TTGlyph name="afii10065" xMin="-32" yMin="0" xMax="1026" yMax="1050">
      <component glyphName="a" x="0" y="0" flags="0x200"/>
    </TTGlyph>
    <TTGlyph name="afii10066" xMin="-19" yMin="-10" xMax="1208" yMax="1539">
      <contour>
        <pt x="1038" y="520" on="1"/>
        <pt x="932" y="-10" on="0"/>
        <pt x="464" y="-10" on="1"/>
        <pt x="-19" y="-10" on="0"/>
        <pt x="87" y="520" on="1"/>
        <pt x="152" y="845" on="1"/>
        <pt x="269" y="1430" on="0"/>
        <pt x="803" y="1430" on="1"/>
        <pt x="1015" y="1430" on="0"/>
        <pt x="1208" y="1539" on="1"/>
        <pt x="1187" y="1436" on="1"/>
        <pt x="1015" y="1340" on="0"/>
        <pt x="782" y="1340" on="1"/>
        <pt x="361" y="1340" on="0"/>
        <pt x="264" y="855" on="1"/>
        <pt x="424" y="1050" on="0"/>
        <pt x="686" y="1050" on="1"/>
        <pt x="1144" y="1050" on="0"/>
        <pt x="1043" y="544" on="1"/>
      </contour>
      <contour>
        <pt x="482" y="80" on="1"/>
        <pt x="844" y="80" on="0"/>
        <pt x="932" y="520" on="1"/>
        <pt x="1019" y="954" on="0"/>
        <pt x="667" y="954" on="1"/>
        <pt x="284" y="954" on="0"/>
        <pt x="197" y="520" on="1"/>
        <pt x="109" y="80" on="0"/>
      </contour>
    </TTGlyph>
    <TTGlyph name="afii10067" xMin="-44" yMin="-10" xMax="1068" yMax="1060">
      <contour>
        <pt x="462" y="80" on="1"/>
        <pt x="778" y="80" on="0"/>
        <pt x="820" y="290" on="1"/>
        <pt x="860" y="490" on="0"/>
        <pt x="607" y="490" on="1"/>
        <pt x="447" y="490" on="1"/>
        <pt x="463" y="571" on="1"/>
        <pt x="866" y="586" on="0"/>
        <pt x="909" y="800" on="1"/>
        <pt x="943" y="970" on="0"/>
        <pt x="665" y="970" on="1"/>
        <pt x="257" y="970" on="0"/>
        <pt x="168" y="525" on="1"/>
        <pt x="79" y="80" on="0"/>
      </contour>
      <contour>
        <pt x="-44" y="-10" on="0"/>
        <pt x="63" y="525" on="1"/>
        <pt x="170" y="1060" on="0"/>
        <pt x="690" y="1060" on="1"/>
        <pt x="1068" y="1060" on="0"/>
        <pt x="1015" y="797" on="1"/>
        <pt x="981" y="624" on="0"/>
        <pt x="749" y="545" on="1"/>
        <pt x="972" y="492" on="0"/>
        <pt x="933" y="293" on="1"/>
        <pt x="872" y="-10" on="0"/>
        <pt x="445" y="-10" on="1"/>
      </contour>
    </TTGlyph>
    <TTGlyph name="afii10068" xMin="-42" yMin="0" xMax="948" yMax="1050">
      <contour>
        <pt x="523" y="0" on="0"/>
        <pt x="364" y="0" on="1"/>
        <pt x="-42" y="0" on="0"/>
        <pt x="18" y="300" on="1"/>
        <pt x="70" y="560" on="0"/>
        <pt x="440" y="560" on="1"/>
        <pt x="540" y="560" on="1"/>
        <pt x="745" y="560" on="0"/>
        <pt x="783" y="750" on="1"/>
        <pt x="825" y="960" on="0"/>
        <pt x="523" y="960" on="1"/>
        <pt x="365" y="960" on="0"/>
        <pt x="178" y="900" on="1"/>
        <pt x="198" y="1000" on="1"/>
        <pt x="383" y="1050" on="0"/>
        <pt x="541" y="1050" on="1"/>
        <pt x="948" y="1050" on="0"/>
        <pt x="888" y="750" on="1"/>
        <pt x="832" y="470" on="0"/>
        <pt x="502" y="470" on="1"/>
        <pt x="402" y="470" on="1"/>
        <pt x="157" y="470" on="0"/>
        <pt x="123" y="300" on="1"/>
        <pt x="81" y="90" on="0"/>
        <pt x="382" y="90" on="1"/>
        <pt x="541" y="90" on="0"/>
        <pt x="728" y="150" on="1"/>
        <pt x="708" y="50" on="1"/>
      </contour>
    </TTGlyph>
    <TTGlyph name="afii10069" xMin="-34" yMin="-10" xMax="1184" yMax="1430">
      <contour>
        <pt x="910" y="586" on="1"/>
        <pt x="933" y="702" on="0"/>
        <pt x="943" y="840" on="1"/>
        <pt x="849" y="970" on="0"/>
        <pt x="625" y="970" on="1"/>
        <pt x="263" y="970" on="0"/>
        <pt x="177" y="540" on="1"/>
        <pt x="85" y="80" on="0"/>
        <pt x="448" y="80" on="1"/>
        <pt x="809" y="80" on="0"/>
      </contour>
      <contour>
        <pt x="1016" y="590" on="1"/>
        <pt x="896" y="-10" on="0"/>
        <pt x="429" y="-10" on="1"/>
        <pt x="-34" y="-10" on="0"/>
        <pt x="76" y="540" on="1"/>
        <pt x="178" y="1050" on="0"/>
        <pt x="632" y="1050" on="1"/>
        <pt x="839" y="1050" on="0"/>
        <pt x="948" y="950" on="1"/>
        <pt x="924" y="1340" on="0"/>
        <pt x="532" y="1340" on="1"/>
        <pt x="316" y="1340" on="1"/>
        <pt x="334" y="1430" on="1"/>
        <pt x="552" y="1430" on="1"/>
        <pt x="1184" y="1430" on="0"/>
      </contour>
    </TTGlyph>
    <TTGlyph name="afii10070" xMin="-32" yMin="0" xMax="1033" yMax="1050">
      <component glyphName="e" x="0" y="0" flags="0x200"/>
    </TTGlyph>
    <TTGlyph name="afii10071" xMin="-32" yMin="0" xMax="1033" yMax="1410">
      <component glyphName="e" x="0" y="0" flags="0x200"/>
      <component glyphName="dieresis" x="230" y="0" flags="0x0"/>
    </TTGlyph>
    <TTGlyph name="afii10072" xMin="-36" yMin="0" xMax="1938" yMax="1050">
      <contour>
        <pt x="1365" y="663" on="1"/>
        <pt x="1485" y="1050" on="0"/>
        <pt x="1774" y="1050" on="1"/>
        <pt x="1854" y="1050" on="0"/>
        <pt x="1938" y="1020" on="1"/>
        <pt x="1920" y="930" on="1"/>
        <pt x="1836" y="960" on="0"/>
        <pt x="1746" y="960" on="1"/>
        <pt x="1511" y="960" on="0"/>
        <pt x="1422" y="515" on="1"/>
        <pt x="1337" y="90" on="0"/>
        <pt x="1562" y="90" on="1"/>
        <pt x="1662" y="90" on="0"/>
        <pt x="1768" y="170" on="1"/>
        <pt x="1750" y="80" on="1"/>
        <pt x="1644" y="0" on="0"/>
        <pt x="1534" y="0" on="1"/>
        <pt x="1224" y="0" on="0"/>
        <pt x="1327" y="515" on="1"/>
        <pt x="1333" y="544" on="0"/>
        <pt x="1339" y="572" on="1"/>
        <pt x="995" y="501" on="1"/>
        <pt x="895" y="0" on="1"/>
        <pt x="790" y="0" on="1"/>
        <pt x="886" y="478" on="1"/>
        <pt x="545" y="408" on="1"/>
        <pt x="425" y="0" on="0"/>
        <pt x="128" y="0" on="1"/>
        <pt x="48" y="0" on="0"/>
        <pt x="-36" y="30" on="1"/>
        <pt x="-18" y="120" on="1"/>
        <pt x="66" y="90" on="0"/>
        <pt x="156" y="90" on="1"/>
        <pt x="391" y="90" on="0"/>
        <pt x="480" y="535" on="1"/>
        <pt x="565" y="960" on="0"/>
        <pt x="340" y="960" on="1"/>
        <pt x="240" y="960" on="0"/>
        <pt x="134" y="880" on="1"/>
        <pt x="152" y="970" on="1"/>
        <pt x="258" y="1050" on="0"/>
        <pt x="368" y="1050" on="1"/>
        <pt x="678" y="1050" on="0"/>
        <pt x="575" y="535" on="1"/>
        <pt x="568" y="499" on="1"/>
        <pt x="904" y="568" on="1"/>
        <pt x="1000" y="1050" on="1"/>
        <pt x="1105" y="1050" on="1"/>
        <pt x="1013" y="591" on="1"/>
      </contour>
    </TTGlyph>
    <TTGlyph name="afii10073" xMin="-32" yMin="-10" xMax="895" yMax="1060">
      <contour>
        <pt x="158" y="1000" on="1"/>
        <pt x="350" y="1060" on="0"/>
        <pt x="500" y="1060" on="1"/>
        <pt x="895" y="1060" on="0"/>
        <pt x="837" y="768" on="1"/>
        <pt x="806" y="614" on="0"/>
        <pt x="652" y="535" on="1"/>
        <pt x="775" y="460" on="0"/>
        <pt x="745" y="310" on="1"/>
        <pt x="681" y="-10" on="0"/>
        <pt x="286" y="-10" on="1"/>
        <pt x="136" y="-10" on="0"/>
        <pt x="-32" y="50" on="1"/>
        <pt x="-12" y="150" on="1"/>
        <pt x="154" y="80" on="0"/>
        <pt x="304" y="80" on="1"/>
        <pt x="594" y="80" on="0"/>
        <pt x="640" y="310" on="1"/>
        <pt x="676" y="490" on="0"/>
        <pt x="444" y="490" on="1"/>
        <pt x="156" y="490" on="1"/>
        <pt x="174" y="580" on="1"/>
        <pt x="459" y="580" on="1"/>
        <pt x="694" y="580" on="0"/>
        <pt x="732" y="768" on="1"/>
        <pt x="772" y="970" on="0"/>
        <pt x="482" y="970" on="1"/>
        <pt x="332" y="970" on="0"/>
        <pt x="138" y="900" on="1"/>
      </contour>
    </TTGlyph>
    <TTGlyph name="afii10074" xMin="18" yMin="0" xMax="1073" yMax="1050">
      <contour>
        <pt x="1073" y="1050" on="1"/>
        <pt x="863" y="0" on="1"/>
        <pt x="758" y="0" on="1"/>
        <pt x="821" y="314" on="1"/>
        <pt x="574" y="0" on="0"/>
        <pt x="291" y="0" on="1"/>
        <pt x="18" y="0" on="0"/>
        <pt x="79" y="305" on="1"/>
        <pt x="228" y="1050" on="1"/>
        <pt x="333" y="1050" on="1"/>
        <pt x="184" y="305" on="1"/>
        <pt x="142" y="94" on="0"/>
        <pt x="315" y="94" on="1"/>
        <pt x="594" y="94" on="0"/>
        <pt x="843" y="427" on="1"/>
        <pt x="968" y="1050" on="1"/>
      </contour>
    </TTGlyph>
    <TTGlyph name="afii10075" xMin="18" yMin="0" xMax="1073" yMax="1430">
      <component glyphName="afii10074" x="0" y="0" flags="0x200"/>
      <component glyphName="breve" x="228" y="0" flags="0x0"/>
    </TTGlyph>
    <TTGlyph name="afii10076" xMin="8" yMin="0" xMax="1032" yMax="1050">
      <contour>
        <pt x="323" y="1050" on="1"/>
        <pt x="113" y="0" on="1"/>
        <pt x="8" y="0" on="1"/>
        <pt x="218" y="1050" on="1"/>
      </contour>
      <contour>
        <pt x="693" y="0" on="1"/>
        <pt x="595" y="246" on="1"/>
        <pt x="503" y="523" on="0"/>
        <pt x="315" y="523" on="1"/>
        <pt x="327" y="586" on="1"/>
        <pt x="517" y="586" on="0"/>
        <pt x="757" y="1050" on="0"/>
        <pt x="955" y="1050" on="1"/>
        <pt x="1032" y="1050" on="1"/>
        <pt x="1014" y="960" on="1"/>
        <pt x="935" y="960" on="1"/>
        <pt x="817" y="960" on="0"/>
        <pt x="622" y="597" on="0"/>
        <pt x="490" y="558" on="1"/>
        <pt x="591" y="527" on="0"/>
        <pt x="704" y="264" on="1"/>
        <pt x="817" y="0" on="1"/>
      </contour>
    </TTGlyph>
    <TTGlyph name="afii10077" xMin="-142" yMin="0" xMax="1045" yMax="1050">
      <contour>
        <pt x="-124" y="90" on="1"/>
        <pt x="113" y="90" on="0"/>
        <pt x="179" y="420" on="1"/>
        <pt x="234" y="695" on="1"/>
        <pt x="305" y="1050" on="0"/>
        <pt x="665" y="1050" on="1"/>
        <pt x="1045" y="1050" on="1"/>
        <pt x="835" y="0" on="1"/>
        <pt x="730" y="0" on="1"/>
        <pt x="922" y="960" on="1"/>
        <pt x="647" y="960" on="1"/>
        <pt x="392" y="960" on="0"/>
        <pt x="338" y="690" on="1"/>
        <pt x="284" y="420" on="1"/>
        <pt x="200" y="0" on="0"/>
        <pt x="-142" y="0" on="1"/>
      </contour>
    </TTGlyph>
    <TTGlyph name="afii10078" xMin="8" yMin="0" xMax="1338" yMax="1050">
      <contour>
        <pt x="8" y="0" on="1"/>
        <pt x="218" y="1050" on="1"/>
        <pt x="323" y="1050" on="1"/>
        <pt x="596" y="104" on="1"/>
        <pt x="1233" y="1050" on="1"/>
        <pt x="1338" y="1050" on="1"/>
        <pt x="1128" y="0" on="1"/>
        <pt x="1033" y="0" on="1"/>
        <pt x="1206" y="863" on="1"/>
        <pt x="615" y="0" on="1"/>
        <pt x="529" y="0" on="1"/>
        <pt x="276" y="863" on="1"/>
        <pt x="103" y="0" on="1"/>
      </contour>
    </TTGlyph>
    <TTGlyph name="afii10079" xMin="8" yMin="0" xMax="1043" yMax="1050">
      <contour>
        <pt x="8" y="0" on="1"/>
        <pt x="218" y="1050" on="1"/>
        <pt x="323" y="1050" on="1"/>
        <pt x="229" y="580" on="1"/>
        <pt x="844" y="580" on="1"/>
        <pt x="938" y="1050" on="1"/>
        <pt x="1043" y="1050" on="1"/>
        <pt x="833" y="0" on="1"/>
        <pt x="728" y="0" on="1"/>
        <pt x="826" y="490" on="1"/>
        <pt x="211" y="490" on="1"/>
        <pt x="113" y="0" on="1"/>
      </contour>
    </TTGlyph>
    <TTGlyph name="afii10080" xMin="-32" yMin="-9" xMax="1120" yMax="1060">
      <contour>
        <pt x="89" y="80" on="0"/>
        <pt x="454" y="80" on="1"/>
        <pt x="819" y="80" on="0"/>
        <pt x="909" y="529" on="1"/>
        <pt x="997" y="970" on="0"/>
        <pt x="632" y="970" on="1"/>
        <pt x="267" y="970" on="0"/>
        <pt x="179" y="529" on="1"/>
      </contour>
      <contour>
        <pt x="73" y="525" on="1"/>
        <pt x="180" y="1060" on="0"/>
        <pt x="650" y="1060" on="1"/>
        <pt x="1120" y="1060" on="0"/>
        <pt x="1013" y="525" on="1"/>
        <pt x="906" y="-9" on="0"/>
        <pt x="436" y="-9" on="1"/>
        <pt x="-32" y="-9" on="0"/>
      </contour>
    </TTGlyph>
    <TTGlyph name="afii10081" xMin="18" yMin="0" xMax="1073" yMax="1050">
      <contour>
        <pt x="18" y="0" on="1"/>
        <pt x="228" y="1050" on="1"/>
        <pt x="313" y="1050" on="1"/>
        <pt x="270" y="736" on="1"/>
        <pt x="517" y="1050" on="0"/>
        <pt x="780" y="1050" on="1"/>
        <pt x="1073" y="1050" on="0"/>
        <pt x="1012" y="745" on="1"/>
        <pt x="863" y="0" on="1"/>
        <pt x="758" y="0" on="1"/>
        <pt x="907" y="745" on="1"/>
        <pt x="949" y="956" on="0"/>
        <pt x="756" y="956" on="1"/>
        <pt x="497" y="956" on="0"/>
        <pt x="248" y="623" on="1"/>
        <pt x="123" y="0" on="1"/>
      </contour>
    </TTGlyph>
    <TTGlyph name="afii10082" xMin="-58" yMin="-380" xMax="1086" yMax="1050">
      <contour>
        <pt x="148" y="123" on="1"/>
        <pt x="313" y="94" on="0"/>
        <pt x="443" y="94" on="1"/>
        <pt x="793" y="94" on="0"/>
        <pt x="887" y="563" on="1"/>
        <pt x="964" y="950" on="0"/>
        <pt x="717" y="950" on="1"/>
        <pt x="503" y="950" on="0"/>
        <pt x="262" y="696" on="1"/>
      </contour>
      <contour>
        <pt x="228" y="1049" on="1"/>
        <pt x="313" y="1049" on="1"/>
        <pt x="283" y="800" on="1"/>
        <pt x="532" y="1050" on="0"/>
        <pt x="748" y="1050" on="1"/>
        <pt x="1086" y="1050" on="0"/>
        <pt x="987" y="556" on="1"/>
        <pt x="876" y="0" on="0"/>
        <pt x="433" y="0" on="1"/>
        <pt x="268" y="0" on="0"/>
        <pt x="128" y="23" on="1"/>
        <pt x="47" y="-380" on="1"/>
        <pt x="-58" y="-380" on="1"/>
      </contour>
    </TTGlyph>
    <TTGlyph name="afii10083" xMin="-32" yMin="0" xMax="942" yMax="1050">
      <contour>
        <pt x="764" y="130" on="1"/>
        <pt x="608" y="0" on="0"/>
        <pt x="408" y="0" on="1"/>
        <pt x="-32" y="0" on="0"/>
        <pt x="75" y="535" on="1"/>
        <pt x="178" y="1050" on="0"/>
        <pt x="668" y="1050" on="1"/>
        <pt x="818" y="1050" on="0"/>
        <pt x="942" y="1020" on="1"/>
        <pt x="924" y="930" on="1"/>
        <pt x="790" y="960" on="0"/>
        <pt x="660" y="960" on="1"/>
        <pt x="275" y="960" on="0"/>
        <pt x="190" y="535" on="1"/>
        <pt x="101" y="90" on="0"/>
        <pt x="436" y="90" on="1"/>
        <pt x="616" y="90" on="0"/>
        <pt x="784" y="230" on="1"/>
      </contour>
    </TTGlyph>
    <TTGlyph name="afii10084" xMin="18" yMin="0" xMax="1703" yMax="1050">
      <contour>
        <pt x="18" y="0" on="1"/>
        <pt x="228" y="1050" on="1"/>
        <pt x="313" y="1050" on="1"/>
        <pt x="271" y="738" on="1"/>
        <pt x="475" y="1050" on="0"/>
        <pt x="723" y="1050" on="1"/>
        <pt x="1013" y="1050" on="0"/>
        <pt x="952" y="746" on="1"/>
        <pt x="1165" y="1050" on="0"/>
        <pt x="1411" y="1050" on="1"/>
        <pt x="1703" y="1050" on="0"/>
        <pt x="1636" y="715" on="1"/>
        <pt x="1493" y="0" on="1"/>
        <pt x="1388" y="0" on="1"/>
        <pt x="1531" y="715" on="1"/>
        <pt x="1579" y="956" on="0"/>
        <pt x="1391" y="956" on="1"/>
        <pt x="1133" y="956" on="0"/>
        <pt x="937" y="620" on="1"/>
        <pt x="813" y="0" on="1"/>
        <pt x="708" y="0" on="1"/>
        <pt x="851" y="715" on="1"/>
        <pt x="899" y="956" on="0"/>
        <pt x="703" y="956" on="1"/>
        <pt x="457" y="956" on="0"/>
        <pt x="247" y="620" on="1"/>
        <pt x="123" y="0" on="1"/>
      </contour>
    </TTGlyph>
    <TTGlyph name="afii10085" xMin="-2" yMin="-388" xMax="1104" yMax="1050">
      <contour>
        <pt x="93" y="1050" on="1"/>
        <pt x="214" y="1050" on="1"/>
        <pt x="414" y="102" on="1"/>
        <pt x="988" y="1050" on="1"/>
        <pt x="1104" y="1050" on="1"/>
        <pt x="432" y="-31" on="1"/>
        <pt x="258" y="-317" on="0"/>
        <pt x="12" y="-388" on="1"/>
        <pt x="-2" y="-304" on="1"/>
        <pt x="193" y="-238" on="0"/>
        <pt x="334" y="-16" on="1"/>
      </contour>
    </TTGlyph>
    <TTGlyph name="afii10086" xMin="-32" yMin="-380" xMax="1789" yMax="1430">
      <contour>
        <pt x="906" y="927" on="1"/>
        <pt x="741" y="956" on="0"/>
        <pt x="611" y="956" on="1"/>
        <pt x="261" y="956" on="0"/>
        <pt x="167" y="487" on="1"/>
        <pt x="90" y="100" on="0"/>
        <pt x="337" y="100" on="1"/>
        <pt x="551" y="100" on="0"/>
        <pt x="792" y="354" on="1"/>
      </contour>
      <contour>
        <pt x="965" y="696" on="1"/>
        <pt x="851" y="123" on="1"/>
        <pt x="1016" y="94" on="0"/>
        <pt x="1146" y="94" on="1"/>
        <pt x="1496" y="94" on="0"/>
        <pt x="1590" y="563" on="1"/>
        <pt x="1667" y="950" on="0"/>
        <pt x="1420" y="950" on="1"/>
        <pt x="1206" y="950" on="0"/>
      </contour>
      <contour>
        <pt x="986" y="800" on="1"/>
        <pt x="1235" y="1050" on="0"/>
        <pt x="1451" y="1050" on="1"/>
        <pt x="1789" y="1050" on="0"/>
        <pt x="1690" y="556" on="1"/>
        <pt x="1579" y="0" on="0"/>
        <pt x="1136" y="0" on="1"/>
        <pt x="971" y="0" on="0"/>
        <pt x="831" y="23" on="1"/>
        <pt x="750" y="-380" on="1"/>
        <pt x="645" y="-380" on="1"/>
        <pt x="771" y="250" on="1"/>
        <pt x="522" y="0" on="0"/>
        <pt x="306" y="0" on="1"/>
        <pt x="-32" y="0" on="0"/>
        <pt x="67" y="494" on="1"/>
        <pt x="178" y="1050" on="0"/>
        <pt x="621" y="1050" on="1"/>
        <pt x="786" y="1050" on="0"/>
        <pt x="926" y="1027" on="1"/>
        <pt x="1007" y="1430" on="1"/>
        <pt x="1112" y="1430" on="1"/>
      </contour>
    </TTGlyph>
    <TTGlyph name="afii10087" xMin="-117" yMin="0" xMax="1033" yMax="1050">
      <contour>
        <pt x="396" y="525" on="1"/>
        <pt x="93" y="1050" on="1"/>
        <pt x="213" y="1050" on="1"/>
        <pt x="469" y="606" on="1"/>
        <pt x="903" y="1050" on="1"/>
        <pt x="1033" y="1050" on="1"/>
        <pt x="521" y="525" on="1"/>
        <pt x="823" y="0" on="1"/>
        <pt x="703" y="0" on="1"/>
        <pt x="447" y="444" on="1"/>
        <pt x="13" y="0" on="1"/>
        <pt x="-117" y="0" on="1"/>
      </contour>
    </TTGlyph>
    <TTGlyph name="afii10088" xMin="18" yMin="-380" xMax="1073" yMax="1050">
      <contour>
        <pt x="877" y="70" on="1"/>
        <pt x="1066" y="90" on="1"/>
        <pt x="1019" y="-145" on="0"/>
        <pt x="872" y="-380" on="1"/>
        <pt x="767" y="-380" on="1"/>
        <pt x="905" y="-190" on="0"/>
        <pt x="947" y="20" on="1"/>
        <pt x="778" y="0" on="1"/>
        <pt x="821" y="314" on="1"/>
        <pt x="574" y="0" on="0"/>
        <pt x="291" y="0" on="1"/>
        <pt x="18" y="0" on="0"/>
        <pt x="79" y="305" on="1"/>
        <pt x="228" y="1050" on="1"/>
        <pt x="333" y="1050" on="1"/>
        <pt x="184" y="305" on="1"/>
        <pt x="142" y="94" on="0"/>
        <pt x="315" y="94" on="1"/>
        <pt x="594" y="94" on="0"/>
        <pt x="843" y="427" on="1"/>
        <pt x="968" y="1050" on="1"/>
        <pt x="1073" y="1050" on="1"/>
      </contour>
    </TTGlyph>
    <TTGlyph name="afii10089" xMin="43" yMin="0" xMax="1056" yMax="1050">
      <contour>
        <pt x="1056" y="1050" on="1"/>
        <pt x="846" y="0" on="1"/>
        <pt x="741" y="0" on="1"/>
        <pt x="824" y="414" on="1"/>
        <pt x="655" y="300" on="0"/>
        <pt x="452" y="300" on="1"/>
        <pt x="43" y="300" on="0"/>
        <pt x="125" y="711" on="1"/>
        <pt x="193" y="1050" on="1"/>
        <pt x="298" y="1050" on="1"/>
        <pt x="230" y="708" on="1"/>
        <pt x="167" y="394" on="0"/>
        <pt x="476" y="394" on="1"/>
        <pt x="695" y="394" on="0"/>
        <pt x="846" y="527" on="1"/>
        <pt x="951" y="1050" on="1"/>
      </contour>
    </TTGlyph>
    <TTGlyph name="afii10090" xMin="18" yMin="0" xMax="1703" yMax="1050">
      <contour>
        <pt x="1703" y="1050" on="1"/>
        <pt x="1493" y="0" on="1"/>
        <pt x="1408" y="0" on="1"/>
        <pt x="1450" y="312" on="1"/>
        <pt x="1246" y="0" on="0"/>
        <pt x="998" y="0" on="1"/>
        <pt x="708" y="0" on="0"/>
        <pt x="769" y="304" on="1"/>
        <pt x="556" y="0" on="0"/>
        <pt x="310" y="0" on="1"/>
        <pt x="18" y="0" on="0"/>
        <pt x="85" y="335" on="1"/>
        <pt x="228" y="1050" on="1"/>
        <pt x="333" y="1050" on="1"/>
        <pt x="190" y="335" on="1"/>
        <pt x="142" y="94" on="0"/>
        <pt x="330" y="94" on="1"/>
        <pt x="588" y="94" on="0"/>
        <pt x="784" y="430" on="1"/>
        <pt x="908" y="1050" on="1"/>
        <pt x="1013" y="1050" on="1"/>
        <pt x="870" y="335" on="1"/>
        <pt x="822" y="94" on="0"/>
        <pt x="1018" y="94" on="1"/>
        <pt x="1264" y="94" on="0"/>
        <pt x="1474" y="430" on="1"/>
        <pt x="1598" y="1050" on="1"/>
      </contour>
    </TTGlyph>
    <TTGlyph name="afii10091" xMin="18" yMin="-380" xMax="1703" yMax="1050">
      <contour>
        <pt x="1507" y="70" on="1"/>
        <pt x="1696" y="90" on="1"/>
        <pt x="1649" y="-145" on="0"/>
        <pt x="1502" y="-380" on="1"/>
        <pt x="1397" y="-380" on="1"/>
        <pt x="1535" y="-190" on="0"/>
        <pt x="1577" y="20" on="1"/>
        <pt x="1408" y="0" on="1"/>
        <pt x="1450" y="312" on="1"/>
        <pt x="1246" y="0" on="0"/>
        <pt x="998" y="0" on="1"/>
        <pt x="708" y="0" on="0"/>
        <pt x="769" y="304" on="1"/>
        <pt x="556" y="0" on="0"/>
        <pt x="310" y="0" on="1"/>
        <pt x="18" y="0" on="0"/>
        <pt x="85" y="335" on="1"/>
        <pt x="228" y="1050" on="1"/>
        <pt x="333" y="1050" on="1"/>
        <pt x="190" y="335" on="1"/>
        <pt x="142" y="94" on="0"/>
        <pt x="330" y="94" on="1"/>
        <pt x="588" y="94" on="0"/>
        <pt x="784" y="430" on="1"/>
        <pt x="908" y="1050" on="1"/>
        <pt x="1013" y="1050" on="1"/>
        <pt x="870" y="335" on="1"/>
        <pt x="822" y="94" on="0"/>
        <pt x="1018" y="94" on="1"/>
        <pt x="1264" y="94" on="0"/>
        <pt x="1474" y="430" on="1"/>
        <pt x="1598" y="1050" on="1"/>
        <pt x="1703" y="1050" on="1"/>
      </contour>
    </TTGlyph>
    <TTGlyph name="afii10092" xMin="50" yMin="0" xMax="1232" yMax="1050">
      <contour>
        <pt x="557" y="1050" on="1"/>
        <pt x="411" y="319" on="1"/>
        <pt x="366" y="93" on="0"/>
        <pt x="684" y="93" on="1"/>
        <pt x="1022" y="93" on="0"/>
        <pt x="1067" y="322" on="1"/>
        <pt x="1107" y="519" on="0"/>
        <pt x="855" y="519" on="1"/>
        <pt x="587" y="519" on="1"/>
        <pt x="605" y="609" on="1"/>
        <pt x="873" y="609" on="1"/>
        <pt x="1232" y="609" on="0"/>
        <pt x="1173" y="313" on="1"/>
        <pt x="1110" y="0" on="0"/>
        <pt x="662" y="0" on="1"/>
        <pt x="242" y="0" on="0"/>
        <pt x="306" y="319" on="1"/>
        <pt x="434" y="960" on="1"/>
        <pt x="50" y="960" on="1"/>
        <pt x="68" y="1050" on="1"/>
      </contour>
    </TTGlyph>
    <TTGlyph name="afii10093" xMin="8" yMin="0" xMax="1368" yMax="1050">
      <contour>
        <pt x="1033" y="0" on="1"/>
        <pt x="1243" y="1050" on="1"/>
        <pt x="1368" y="1050" on="1"/>
        <pt x="1158" y="0" on="1"/>
      </contour>
      <contour>
        <pt x="323" y="1050" on="1"/>
        <pt x="177" y="319" on="1"/>
        <pt x="132" y="93" on="0"/>
        <pt x="470" y="93" on="1"/>
        <pt x="788" y="93" on="0"/>
        <pt x="833" y="322" on="1"/>
        <pt x="873" y="519" on="0"/>
        <pt x="621" y="519" on="1"/>
        <pt x="353" y="519" on="1"/>
        <pt x="371" y="609" on="1"/>
        <pt x="638" y="609" on="1"/>
        <pt x="998" y="609" on="0"/>
        <pt x="939" y="313" on="1"/>
        <pt x="876" y="0" on="0"/>
        <pt x="448" y="0" on="1"/>
        <pt x="8" y="0" on="0"/>
        <pt x="72" y="319" on="1"/>
        <pt x="218" y="1050" on="1"/>
      </contour>
    </TTGlyph>
    <TTGlyph name="afii10094" xMin="8" yMin="0" xMax="998" yMax="1050">
      <contour>
        <pt x="323" y="1050" on="1"/>
        <pt x="177" y="319" on="1"/>
        <pt x="132" y="93" on="0"/>
        <pt x="470" y="93" on="1"/>
        <pt x="788" y="93" on="0"/>
        <pt x="833" y="322" on="1"/>
        <pt x="873" y="519" on="0"/>
        <pt x="621" y="519" on="1"/>
        <pt x="353" y="519" on="1"/>
        <pt x="371" y="609" on="1"/>
        <pt x="638" y="609" on="1"/>
        <pt x="998" y="609" on="0"/>
        <pt x="939" y="313" on="1"/>
        <pt x="876" y="0" on="0"/>
        <pt x="448" y="0" on="1"/>
        <pt x="8" y="0" on="0"/>
        <pt x="72" y="319" on="1"/>
        <pt x="218" y="1050" on="1"/>
      </contour>
    </TTGlyph>
    <TTGlyph name="afii10095" xMin="-36" yMin="0" xMax="938" yMax="1050">
      <contour>
        <pt x="-18" y="120" on="1"/>
        <pt x="106" y="90" on="0"/>
        <pt x="256" y="90" on="1"/>
        <pt x="615" y="90" on="0"/>
        <pt x="716" y="491" on="1"/>
        <pt x="120" y="491" on="1"/>
        <pt x="138" y="581" on="1"/>
        <pt x="735" y="581" on="1"/>
        <pt x="795" y="960" on="0"/>
        <pt x="420" y="960" on="1"/>
        <pt x="280" y="960" on="0"/>
        <pt x="144" y="930" on="1"/>
        <pt x="162" y="1020" on="1"/>
        <pt x="298" y="1050" on="0"/>
        <pt x="448" y="1050" on="1"/>
        <pt x="938" y="1050" on="0"/>
        <pt x="837" y="545" on="1"/>
        <pt x="728" y="0" on="0"/>
        <pt x="238" y="0" on="1"/>
        <pt x="88" y="0" on="0"/>
        <pt x="-36" y="30" on="1"/>
      </contour>
    </TTGlyph>
    <TTGlyph name="afii10096" xMin="8" yMin="-10" xMax="1672" yMax="1060">
      <contour>
        <pt x="1019" y="80" on="1"/>
        <pt x="1361" y="80" on="0"/>
        <pt x="1451" y="529" on="1"/>
        <pt x="1539" y="970" on="0"/>
        <pt x="1197" y="970" on="1"/>
        <pt x="844" y="970" on="0"/>
        <pt x="756" y="529" on="1"/>
        <pt x="666" y="80" on="0"/>
      </contour>
      <contour>
        <pt x="8" y="0" on="1"/>
        <pt x="218" y="1050" on="1"/>
        <pt x="322" y="1050" on="1"/>
        <pt x="228" y="580" on="1"/>
        <pt x="654" y="580" on="1"/>
        <pt x="777" y="1060" on="0"/>
        <pt x="1215" y="1060" on="1"/>
        <pt x="1672" y="1060" on="0"/>
        <pt x="1565" y="523" on="1"/>
        <pt x="1458" y="-10" on="0"/>
        <pt x="1001" y="-10" on="1"/>
        <pt x="552" y="-10" on="0"/>
        <pt x="635" y="490" on="1"/>
        <pt x="210" y="490" on="1"/>
        <pt x="112" y="0" on="1"/>
      </contour>
    </TTGlyph>
    <TTGlyph name="afii10097" xMin="-117" yMin="0" xMax="983" yMax="1050">
      <contour>
        <pt x="668" y="0" on="1"/>
        <pt x="859" y="957" on="1"/>
        <pt x="481" y="957" on="1"/>
        <pt x="273" y="957" on="0"/>
        <pt x="238" y="779" on="1"/>
        <pt x="202" y="599" on="0"/>
        <pt x="491" y="544" on="1"/>
        <pt x="473" y="453" on="1"/>
        <pt x="22" y="0" on="1"/>
        <pt x="-117" y="0" on="1"/>
        <pt x="364" y="477" on="1"/>
        <pt x="84" y="546" on="0"/>
        <pt x="137" y="814" on="1"/>
        <pt x="185" y="1050" on="0"/>
        <pt x="503" y="1050" on="1"/>
        <pt x="983" y="1050" on="1"/>
        <pt x="773" y="0" on="1"/>
      </contour>
    </TTGlyph>
    <TTGlyph name="agrave" xMin="-32" yMin="0" xMax="1026" yMax="1430">
      <component glyphName="a" x="0" y="0" flags="0x200"/>
      <component glyphName="grave" x="273" y="0" flags="0x0"/>
    </TTGlyph>
    <TTGlyph name="alpha" xMin="-40" yMin="0" xMax="1347" yMax="1050">
      <contour>
        <pt x="63" y="525" on="1"/>
        <pt x="168" y="1050" on="0"/>
        <pt x="608" y="1050" on="1"/>
        <pt x="939" y="1050" on="0"/>
        <pt x="1000" y="625" on="1"/>
        <pt x="1240" y="1050" on="1"/>
        <pt x="1347" y="1050" on="1"/>
        <pt x="1033" y="522" on="1"/>
        <pt x="1123" y="0" on="1"/>
        <pt x="1013" y="0" on="1"/>
        <pt x="954" y="406" on="1"/>
        <pt x="694" y="0" on="0"/>
        <pt x="398" y="0" on="1"/>
        <pt x="-40" y="0" on="0"/>
      </contour>
      <contour>
        <pt x="81" y="90" on="0"/>
        <pt x="416" y="90" on="1"/>
        <pt x="661" y="90" on="0"/>
        <pt x="929" y="529" on="1"/>
        <pt x="845" y="960" on="0"/>
        <pt x="590" y="960" on="1"/>
        <pt x="255" y="960" on="0"/>
        <pt x="169" y="529" on="1"/>
      </contour>
    </TTGlyph>
    <TTGlyph name="alphatonos" xMin="-40" yMin="0" xMax="1347" yMax="1430">
      <component glyphName="alpha" x="0" y="0" flags="0x200"/>
      <component glyphName="tonos" x="462" y="0" flags="0x0"/>
    </TTGlyph>
    <TTGlyph name="amacron" xMin="-32" yMin="0" xMax="1026" yMax="1430">
      <component glyphName="a" x="0" y="0" flags="0x200"/>
      <component glyphName="macron" x="239" y="0" flags="0x0"/>
    </TTGlyph>
    <TTGlyph name="ampersand" xMin="-33" yMin="-3" xMax="1297" yMax="1430">
      <contour>
        <pt x="177" y="1045" on="1"/>
        <pt x="254" y="1430" on="0"/>
        <pt x="764" y="1430" on="1"/>
        <pt x="949" y="1430" on="0"/>
        <pt x="1114" y="1380" on="1"/>
        <pt x="1096" y="1290" on="1"/>
        <pt x="921" y="1340" on="0"/>
        <pt x="749" y="1340" on="1"/>
        <pt x="341" y="1340" on="0"/>
        <pt x="283" y="1050" on="1"/>
        <pt x="227" y="770" on="0"/>
        <pt x="562" y="770" on="1"/>
        <pt x="1030" y="770" on="1"/>
        <pt x="1064" y="942" on="1"/>
        <pt x="1137" y="942" on="1"/>
        <pt x="1125" y="770" on="1"/>
        <pt x="1297" y="770" on="1"/>
        <pt x="1279" y="680" on="1"/>
        <pt x="1117" y="680" on="1"/>
        <pt x="1079" y="490" on="1"/>
        <pt x="980" y="-3" on="0"/>
        <pt x="462" y="-3" on="1"/>
        <pt x="-33" y="-3" on="0"/>
        <pt x="46" y="394" on="1"/>
        <pt x="96" y="641" on="0"/>
        <pt x="336" y="727" on="1"/>
        <pt x="126" y="792" on="0"/>
      </contour>
      <contour>
        <pt x="546" y="680" on="1"/>
        <pt x="209" y="680" on="0"/>
        <pt x="152" y="399" on="1"/>
        <pt x="91" y="90" on="0"/>
        <pt x="472" y="90" on="1"/>
        <pt x="894" y="90" on="0"/>
        <pt x="974" y="492" on="1"/>
        <pt x="1012" y="680" on="1"/>
      </contour>
    </TTGlyph>
    <TTGlyph name="anoteleia" xMin="154" yMin="925" xMax="314" yMax="1050">
      <contour>
        <pt x="314" y="1050" on="1"/>
        <pt x="289" y="925" on="1"/>
        <pt x="154" y="925" on="1"/>
        <pt x="179" y="1050" on="1"/>
      </contour>
    </TTGlyph>
    <TTGlyph name="aogonek" xMin="-32" yMin="-426" xMax="1026" yMax="1050">
      <contour>
        <pt x="906" y="932" on="1"/>
        <pt x="776" y="956" on="0"/>
        <pt x="636" y="956" on="1"/>
        <pt x="261" y="956" on="0"/>
        <pt x="175" y="523" on="1"/>
        <pt x="90" y="100" on="0"/>
        <pt x="347" y="100" on="1"/>
        <pt x="591" y="100" on="0"/>
        <pt x="791" y="354" on="1"/>
      </contour>
      <contour>
        <pt x="734" y="20" on="1"/>
        <pt x="770" y="250" on="1"/>
        <pt x="562" y="0" on="0"/>
        <pt x="326" y="0" on="1"/>
        <pt x="-32" y="0" on="0"/>
        <pt x="72" y="521" on="1"/>
        <pt x="178" y="1050" on="0"/>
        <pt x="663" y="1050" on="1"/>
        <pt x="876" y="1050" on="0"/>
        <pt x="1026" y="1007" on="1"/>
        <pt x="825" y="0" on="1"/>
        <pt x="558" y="-126" on="0"/>
        <pt x="537" y="-228" on="1"/>
        <pt x="514" y="-346" on="0"/>
        <pt x="639" y="-346" on="1"/>
        <pt x="724" y="-346" on="0"/>
        <pt x="780" y="-326" on="1"/>
        <pt x="764" y="-406" on="1"/>
        <pt x="699" y="-426" on="0"/>
        <pt x="611" y="-426" on="1"/>
        <pt x="400" y="-426" on="0"/>
        <pt x="434" y="-253" on="1"/>
        <pt x="465" y="-102" on="0"/>
      </contour>
    </TTGlyph>
    <TTGlyph name="approxequal" xMin="34" yMin="280" xMax="962" yMax="770">
      <contour>
        <pt x="902" y="420" on="1"/>
        <pt x="884" y="330" on="1"/>
        <pt x="763" y="280" on="0"/>
        <pt x="654" y="280" on="1"/>
        <pt x="545" y="280" on="0"/>
        <pt x="449" y="330" on="1"/>
        <pt x="353" y="380" on="0"/>
        <pt x="249" y="380" on="1"/>
        <pt x="146" y="380" on="0"/>
        <pt x="34" y="330" on="1"/>
        <pt x="52" y="420" on="1"/>
        <pt x="174" y="470" on="0"/>
        <pt x="282" y="470" on="1"/>
        <pt x="391" y="470" on="0"/>
        <pt x="487" y="420" on="1"/>
        <pt x="583" y="370" on="0"/>
        <pt x="687" y="370" on="1"/>
        <pt x="791" y="370" on="0"/>
      </contour>
      <contour>
        <pt x="962" y="720" on="1"/>
        <pt x="944" y="630" on="1"/>
        <pt x="823" y="580" on="0"/>
        <pt x="714" y="580" on="1"/>
        <pt x="605" y="580" on="0"/>
        <pt x="509" y="630" on="1"/>
        <pt x="413" y="680" on="0"/>
        <pt x="309" y="680" on="1"/>
        <pt x="206" y="680" on="0"/>
        <pt x="94" y="630" on="1"/>
        <pt x="112" y="720" on="1"/>
        <pt x="234" y="770" on="0"/>
        <pt x="342" y="770" on="1"/>
        <pt x="451" y="770" on="0"/>
        <pt x="547" y="720" on="1"/>
        <pt x="643" y="670" on="0"/>
        <pt x="747" y="670" on="1"/>
        <pt x="851" y="670" on="0"/>
      </contour>
    </TTGlyph>
    <TTGlyph name="aring" xMin="-32" yMin="0" xMax="1026" yMax="1561">
      <component glyphName="a" x="0" y="0" flags="0x200"/>
      <component glyphName="ring" x="273" y="0" flags="0x0"/>
    </TTGlyph>
    <TTGlyph name="asciicircum" xMin="58" yMin="700" xMax="1008" yMax="1430">
      <contour>
        <pt x="604" y="1430" on="1"/>
        <pt x="754" y="1430" on="1"/>
        <pt x="1008" y="700" on="1"/>
        <pt x="898" y="700" on="1"/>
        <pt x="664" y="1373" on="1"/>
        <pt x="168" y="700" on="1"/>
        <pt x="58" y="700" on="1"/>
      </contour>
    </TTGlyph>
    <TTGlyph name="asciitilde" xMin="60" yMin="440" xMax="836" yMax="611">
      <contour>
        <pt x="78" y="550" on="1"/>
        <pt x="148" y="611" on="0"/>
        <pt x="252" y="611" on="1"/>
        <pt x="338" y="611" on="0"/>
        <pt x="447" y="570" on="1"/>
        <pt x="556" y="530" on="0"/>
        <pt x="646" y="530" on="1"/>
        <pt x="755" y="530" on="0"/>
        <pt x="836" y="590" on="1"/>
        <pt x="818" y="500" on="1"/>
        <pt x="748" y="440" on="0"/>
        <pt x="644" y="440" on="1"/>
        <pt x="558" y="440" on="0"/>
        <pt x="449" y="480" on="1"/>
        <pt x="340" y="521" on="0"/>
        <pt x="250" y="521" on="1"/>
        <pt x="141" y="521" on="0"/>
        <pt x="60" y="460" on="1"/>
      </contour>
    </TTGlyph>
    <TTGlyph name="asterisk" xMin="198" yMin="847" xMax="809" yMax="1430">
      <contour>
        <pt x="482" y="1430" on="1"/>
        <pt x="638" y="1430" on="1"/>
        <pt x="562" y="1198" on="1"/>
        <pt x="791" y="1299" on="1"/>
        <pt x="809" y="1152" on="1"/>
        <pt x="573" y="1109" on="1"/>
        <pt x="698" y="939" on="1"/>
        <pt x="556" y="847" on="1"/>
        <pt x="484" y="1052" on="1"/>
        <pt x="331" y="848" on="1"/>
        <pt x="224" y="937" on="1"/>
        <pt x="420" y="1108" on="1"/>
        <pt x="198" y="1150" on="1"/>
        <pt x="276" y="1300" on="1"/>
        <pt x="466" y="1197" on="1"/>
      </contour>
    </TTGlyph>
    <TTGlyph name="at" xMin="-58" yMin="-380" xMax="2156" yMax="1440">
      <contour>
        <pt x="1419" y="932" on="1"/>
        <pt x="1289" y="956" on="0"/>
        <pt x="1149" y="956" on="1"/>
        <pt x="774" y="956" on="0"/>
        <pt x="688" y="523" on="1"/>
        <pt x="603" y="100" on="0"/>
        <pt x="860" y="100" on="1"/>
        <pt x="1104" y="100" on="0"/>
        <pt x="1304" y="354" on="1"/>
      </contour>
      <contour>
        <pt x="1356" y="88" on="1"/>
        <pt x="1326" y="-60" on="0"/>
        <pt x="1466" y="-60" on="1"/>
        <pt x="1751" y="-60" on="0"/>
        <pt x="1871" y="540" on="1"/>
        <pt x="2033" y="1350" on="0"/>
        <pt x="1227" y="1350" on="1"/>
        <pt x="393" y="1350" on="0"/>
        <pt x="231" y="540" on="1"/>
        <pt x="65" y="-290" on="0"/>
        <pt x="830" y="-290" on="1"/>
        <pt x="812" y="-380" on="1"/>
        <pt x="-58" y="-380" on="0"/>
        <pt x="126" y="540" on="1"/>
        <pt x="306" y="1440" on="0"/>
        <pt x="1230" y="1440" on="1"/>
        <pt x="2156" y="1440" on="0"/>
        <pt x="1976" y="540" on="1"/>
        <pt x="1838" y="-150" on="0"/>
        <pt x="1451" y="-150" on="1"/>
        <pt x="1203" y="-150" on="0"/>
        <pt x="1248" y="74" on="1"/>
        <pt x="1283" y="250" on="1"/>
        <pt x="1075" y="0" on="0"/>
        <pt x="839" y="0" on="1"/>
        <pt x="481" y="0" on="0"/>
        <pt x="585" y="521" on="1"/>
        <pt x="691" y="1050" on="0"/>
        <pt x="1176" y="1050" on="1"/>
        <pt x="1389" y="1050" on="0"/>
        <pt x="1539" y="1007" on="1"/>
      </contour>
    </TTGlyph>
    <TTGlyph name="atilde" xMin="-32" yMin="0" xMax="1026" yMax="1430">
      <component glyphName="a" x="0" y="0" flags="0x200"/>
      <component glyphName="tilde" x="239" y="0" flags="0x0"/>
    </TTGlyph>
    <TTGlyph name="b" xMin="27" yMin="0" xMax="1086" yMax="1430">
      <contour>
        <pt x="148" y="123" on="1"/>
        <pt x="313" y="94" on="0"/>
        <pt x="443" y="94" on="1"/>
        <pt x="793" y="94" on="0"/>
        <pt x="887" y="563" on="1"/>
        <pt x="964" y="950" on="0"/>
        <pt x="717" y="950" on="1"/>
        <pt x="503" y="950" on="0"/>
        <pt x="263" y="696" on="1"/>
      </contour>
      <contour>
        <pt x="304" y="1430" on="1"/>
        <pt x="409" y="1430" on="1"/>
        <pt x="283" y="800" on="1"/>
        <pt x="532" y="1050" on="0"/>
        <pt x="748" y="1050" on="1"/>
        <pt x="1086" y="1050" on="0"/>
        <pt x="988" y="556" on="1"/>
        <pt x="876" y="0" on="0"/>
        <pt x="433" y="0" on="1"/>
        <pt x="207" y="0" on="0"/>
        <pt x="27" y="43" on="1"/>
      </contour>
    </TTGlyph>
    <TTGlyph name="backslash" xMin="179" yMin="0" xMax="723" yMax="1430">
      <contour>
        <pt x="179" y="1430" on="1"/>
        <pt x="284" y="1430" on="1"/>
        <pt x="723" y="0" on="1"/>
        <pt x="618" y="0" on="1"/>
      </contour>
    </TTGlyph>
    <TTGlyph name="bar" xMin="-58" yMin="-380" xMax="409" yMax="1430">
      <contour>
        <pt x="409" y="1430" on="1"/>
        <pt x="47" y="-380" on="1"/>
        <pt x="-58" y="-380" on="1"/>
        <pt x="304" y="1430" on="1"/>
      </contour>
    </TTGlyph>
    <TTGlyph name="beta" xMin="-64" yMin="-362" xMax="1198" yMax="1430">
      <contour>
        <pt x="-64" y="-362" on="1"/>
        <pt x="183" y="871" on="1"/>
        <pt x="294" y="1430" on="0"/>
        <pt x="788" y="1430" on="1"/>
        <pt x="1198" y="1430" on="0"/>
        <pt x="1131" y="1094" on="1"/>
        <pt x="1079" y="832" on="0"/>
        <pt x="815" y="769" on="1"/>
        <pt x="1126" y="732" on="0"/>
        <pt x="1056" y="381" on="1"/>
        <pt x="979" y="-2" on="0"/>
        <pt x="565" y="-2" on="1"/>
        <pt x="429" y="-2" on="0"/>
        <pt x="285" y="58" on="1"/>
        <pt x="303" y="148" on="1"/>
        <pt x="448" y="88" on="0"/>
        <pt x="585" y="88" on="1"/>
        <pt x="892" y="88" on="0"/>
        <pt x="951" y="381" on="1"/>
        <pt x="1018" y="719" on="0"/>
        <pt x="567" y="720" on="1"/>
        <pt x="579" y="778" on="1"/>
        <pt x="988" y="832" on="0"/>
        <pt x="1040" y="1094" on="1"/>
        <pt x="1089" y="1340" on="0"/>
        <pt x="763" y="1340" on="1"/>
        <pt x="381" y="1340" on="0"/>
        <pt x="287" y="868" on="1"/>
        <pt x="41" y="-362" on="1"/>
      </contour>
    </TTGlyph>
    <TTGlyph name="braceleft" xMin="64" yMin="-380" xMax="699" yMax="1430">
      <contour>
        <pt x="699" y="1430" on="1"/>
        <pt x="534" y="1254" on="0"/>
        <pt x="473" y="952" on="1"/>
        <pt x="403" y="600" on="0"/>
        <pt x="198" y="525" on="1"/>
        <pt x="373" y="450" on="0"/>
        <pt x="303" y="98" on="1"/>
        <pt x="242" y="-204" on="0"/>
        <pt x="337" y="-380" on="1"/>
        <pt x="232" y="-380" on="1"/>
        <pt x="137" y="-204" on="0"/>
        <pt x="198" y="98" on="1"/>
        <pt x="274" y="480" on="0"/>
        <pt x="64" y="480" on="1"/>
        <pt x="82" y="570" on="1"/>
        <pt x="292" y="570" on="0"/>
        <pt x="368" y="952" on="1"/>
        <pt x="429" y="1254" on="0"/>
        <pt x="594" y="1430" on="1"/>
      </contour>
    </TTGlyph>
    <TTGlyph name="braceright" xMin="-183" yMin="-380" xMax="452" yMax="1430">
      <contour>
        <pt x="284" y="1430" on="1"/>
        <pt x="379" y="1254" on="0"/>
        <pt x="318" y="952" on="1"/>
        <pt x="242" y="570" on="0"/>
        <pt x="452" y="570" on="1"/>
        <pt x="434" y="480" on="1"/>
        <pt x="224" y="480" on="0"/>
        <pt x="148" y="98" on="1"/>
        <pt x="87" y="-204" on="0"/>
        <pt x="-78" y="-380" on="1"/>
        <pt x="-183" y="-380" on="1"/>
        <pt x="-18" y="-204" on="0"/>
        <pt x="43" y="98" on="1"/>
        <pt x="113" y="450" on="0"/>
        <pt x="318" y="525" on="1"/>
        <pt x="143" y="600" on="0"/>
        <pt x="213" y="952" on="1"/>
        <pt x="274" y="1254" on="0"/>
        <pt x="179" y="1430" on="1"/>
      </contour>
    </TTGlyph>
    <TTGlyph name="bracketleft" xMin="-58" yMin="-380" xMax="674" yMax="1430">
      <contour>
        <pt x="674" y="1430" on="1"/>
        <pt x="656" y="1340" on="1"/>
        <pt x="381" y="1340" on="1"/>
        <pt x="55" y="-290" on="1"/>
        <pt x="330" y="-290" on="1"/>
        <pt x="312" y="-380" on="1"/>
        <pt x="-58" y="-380" on="1"/>
        <pt x="304" y="1430" on="1"/>
      </contour>
    </TTGlyph>
    <TTGlyph name="bracketright" xMin="-183" yMin="-380" xMax="549" yMax="1430">
      <contour>
        <pt x="549" y="1430" on="1"/>
        <pt x="187" y="-380" on="1"/>
        <pt x="-183" y="-380" on="1"/>
        <pt x="-165" y="-290" on="1"/>
        <pt x="110" y="-290" on="1"/>
        <pt x="436" y="1340" on="1"/>
        <pt x="161" y="1340" on="1"/>
        <pt x="179" y="1430" on="1"/>
      </contour>
    </TTGlyph>
    <TTGlyph name="breve" xMin="192" yMin="1170" xMax="754" yMax="1430">
      <contour>
        <pt x="244" y="1430" on="1"/>
        <pt x="329" y="1430" on="1"/>
        <pt x="293" y="1250" on="0"/>
        <pt x="463" y="1250" on="1"/>
        <pt x="633" y="1250" on="0"/>
        <pt x="669" y="1430" on="1"/>
        <pt x="754" y="1430" on="1"/>
        <pt x="702" y="1170" on="0"/>
        <pt x="447" y="1170" on="1"/>
        <pt x="192" y="1170" on="0"/>
      </contour>
    </TTGlyph>
    <TTGlyph name="brokenbar" xMin="-58" yMin="-380" xMax="408" yMax="1430">
      <contour>
        <pt x="193" y="350" on="1"/>
        <pt x="47" y="-380" on="1"/>
        <pt x="-58" y="-380" on="1"/>
        <pt x="88" y="350" on="1"/>
      </contour>
      <contour>
        <pt x="408" y="1430" on="1"/>
        <pt x="262" y="700" on="1"/>
        <pt x="158" y="700" on="1"/>
        <pt x="304" y="1430" on="1"/>
      </contour>
    </TTGlyph>
    <TTGlyph name="bullet" xMin="74" yMin="530" xMax="542" yMax="920">
      <contour>
        <pt x="113" y="725" on="1"/>
        <pt x="152" y="920" on="0"/>
        <pt x="347" y="920" on="1"/>
        <pt x="542" y="920" on="0"/>
        <pt x="503" y="725" on="1"/>
        <pt x="464" y="530" on="0"/>
        <pt x="269" y="530" on="1"/>
        <pt x="74" y="530" on="0"/>
      </contour>
    </TTGlyph>
    <TTGlyph name="c" xMin="-32" yMin="0" xMax="942" yMax="1050">
      <contour>
        <pt x="764" y="130" on="1"/>
        <pt x="608" y="0" on="0"/>
        <pt x="408" y="0" on="1"/>
        <pt x="-32" y="0" on="0"/>
        <pt x="75" y="535" on="1"/>
        <pt x="178" y="1050" on="0"/>
        <pt x="668" y="1050" on="1"/>
        <pt x="818" y="1050" on="0"/>
        <pt x="942" y="1020" on="1"/>
        <pt x="924" y="930" on="1"/>
        <pt x="790" y="960" on="0"/>
        <pt x="660" y="960" on="1"/>
        <pt x="275" y="960" on="0"/>
        <pt x="190" y="535" on="1"/>
        <pt x="101" y="90" on="0"/>
        <pt x="436" y="90" on="1"/>
        <pt x="616" y="90" on="0"/>
        <pt x="784" y="230" on="1"/>
      </contour>
    </TTGlyph>
    <TTGlyph name="cacute" xMin="-32" yMin="0" xMax="942" yMax="1430">
      <component glyphName="c" x="0" y="0" flags="0x200"/>
      <component glyphName="acute" x="317" y="0" flags="0x0"/>
    </TTGlyph>
    <TTGlyph name="caron" xMin="244" yMin="1170" xMax="744" yMax="1430">
      <contour>
        <pt x="244" y="1430" on="1"/>
        <pt x="344" y="1430" on="1"/>
        <pt x="453" y="1236" on="1"/>
        <pt x="644" y="1430" on="1"/>
        <pt x="744" y="1430" on="1"/>
        <pt x="497" y="1170" on="1"/>
        <pt x="387" y="1170" on="1"/>
      </contour>
    </TTGlyph>
    <TTGlyph name="ccaron" xMin="-32" yMin="0" xMax="942" yMax="1430">
      <component glyphName="c" x="0" y="0" flags="0x200"/>
      <component glyphName="caron" x="185" y="0" flags="0x0"/>
    </TTGlyph>
    <TTGlyph name="ccedilla" xMin="-25" yMin="-422" xMax="942" yMax="1050">
      <contour>
        <pt x="353" y="2" on="1"/>
        <pt x="-25" y="35" on="0"/>
        <pt x="75" y="535" on="1"/>
        <pt x="178" y="1050" on="0"/>
        <pt x="668" y="1050" on="1"/>
        <pt x="818" y="1050" on="0"/>
        <pt x="942" y="1020" on="1"/>
        <pt x="924" y="930" on="1"/>
        <pt x="790" y="960" on="0"/>
        <pt x="660" y="960" on="1"/>
        <pt x="275" y="960" on="0"/>
        <pt x="190" y="535" on="1"/>
        <pt x="101" y="90" on="0"/>
        <pt x="436" y="90" on="1"/>
        <pt x="616" y="90" on="0"/>
        <pt x="784" y="230" on="1"/>
        <pt x="764" y="130" on="1"/>
        <pt x="625" y="14" on="0"/>
        <pt x="450" y="1" on="1"/>
        <pt x="393" y="-77" on="1"/>
        <pt x="617" y="-77" on="0"/>
        <pt x="582" y="-249" on="1"/>
        <pt x="548" y="-422" on="0"/>
        <pt x="307" y="-422" on="1"/>
        <pt x="199" y="-422" on="0"/>
        <pt x="101" y="-372" on="1"/>
        <pt x="118" y="-284" on="1"/>
        <pt x="214" y="-344" on="0"/>
        <pt x="322" y="-344" on="1"/>
        <pt x="470" y="-344" on="0"/>
        <pt x="489" y="-249" on="1"/>
        <pt x="508" y="-155" on="0"/>
        <pt x="385" y="-155" on="1"/>
        <pt x="232" y="-155" on="1"/>
      </contour>
    </TTGlyph>
    <TTGlyph name="ccircumflex" xMin="-32" yMin="0" xMax="942" yMax="1430">
      <component glyphName="c" x="0" y="0" flags="0x200"/>
      <component glyphName="circumflex" x="185" y="0" flags="0x0"/>
    </TTGlyph>
    <TTGlyph name="cdotaccent" xMin="-32" yMin="0" xMax="942" yMax="1430">
      <component glyphName="c" x="0" y="0" flags="0x200"/>
      <component glyphName="dotaccent" x="353" y="0" flags="0x0"/>
    </TTGlyph>
    <TTGlyph name="cedilla" xMin="-116" yMin="-422" xMax="400" yMax="75">
      <contour>
        <pt x="-98" y="-284" on="1"/>
        <pt x="-2" y="-344" on="0"/>
        <pt x="106" y="-344" on="1"/>
        <pt x="254" y="-344" on="0"/>
        <pt x="273" y="-249" on="1"/>
        <pt x="291" y="-155" on="0"/>
        <pt x="168" y="-155" on="1"/>
        <pt x="15" y="-155" on="1"/>
        <pt x="192" y="75" on="1"/>
        <pt x="287" y="75" on="1"/>
        <pt x="176" y="-77" on="1"/>
        <pt x="400" y="-77" on="0"/>
        <pt x="366" y="-249" on="1"/>
        <pt x="331" y="-422" on="0"/>
        <pt x="90" y="-422" on="1"/>
        <pt x="-18" y="-422" on="0"/>
        <pt x="-116" y="-372" on="1"/>
      </contour>
    </TTGlyph>
    <TTGlyph name="cent" xMin="0" yMin="0" xMax="970" yMax="1430">
      <contour>
        <pt x="617" y="1237" on="1"/>
        <pt x="655" y="1430" on="1"/>
        <pt x="770" y="1430" on="1"/>
        <pt x="732" y="1241" on="1"/>
        <pt x="862" y="1237" on="0"/>
        <pt x="970" y="1211" on="1"/>
        <pt x="952" y="1121" on="1"/>
        <pt x="818" y="1151" on="0"/>
        <pt x="688" y="1151" on="1"/>
        <pt x="303" y="1151" on="0"/>
        <pt x="218" y="726" on="1"/>
        <pt x="129" y="281" on="0"/>
        <pt x="464" y="281" on="1"/>
        <pt x="644" y="281" on="0"/>
        <pt x="812" y="421" on="1"/>
        <pt x="792" y="321" on="1"/>
        <pt x="671" y="220" on="0"/>
        <pt x="524" y="198" on="1"/>
        <pt x="484" y="0" on="1"/>
        <pt x="369" y="0" on="1"/>
        <pt x="408" y="192" on="1"/>
        <pt x="0" y="209" on="0"/>
        <pt x="103" y="726" on="1"/>
        <pt x="198" y="1198" on="0"/>
      </contour>
    </TTGlyph>
    <TTGlyph name="chi" xMin="-178" yMin="-380" xMax="1078" yMax="1050">
      <contour>
        <pt x="388" y="335" on="1"/>
        <pt x="108" y="1050" on="1"/>
        <pt x="233" y="1050" on="1"/>
        <pt x="471" y="441" on="1"/>
        <pt x="953" y="1050" on="1"/>
        <pt x="1078" y="1050" on="1"/>
        <pt x="513" y="335" on="1"/>
        <pt x="792" y="-380" on="1"/>
        <pt x="667" y="-380" on="1"/>
        <pt x="429" y="229" on="1"/>
        <pt x="-53" y="-380" on="1"/>
        <pt x="-178" y="-380" on="1"/>
      </contour>
    </TTGlyph>
    <TTGlyph name="circumflex" xMin="192" yMin="1170" xMax="692" yMax="1430">
      <contour>
        <pt x="439" y="1430" on="1"/>
        <pt x="549" y="1430" on="1"/>
        <pt x="692" y="1170" on="1"/>
        <pt x="592" y="1170" on="1"/>
        <pt x="479" y="1364" on="1"/>
        <pt x="292" y="1170" on="1"/>
        <pt x="192" y="1170" on="1"/>
      </contour>
    </TTGlyph>
    <TTGlyph name="colon" xMin="8" yMin="0" xMax="353" yMax="1050">
      <contour>
        <pt x="353" y="1050" on="1"/>
        <pt x="328" y="925" on="1"/>
        <pt x="193" y="925" on="1"/>
        <pt x="218" y="1050" on="1"/>
      </contour>
      <contour>
        <pt x="168" y="125" on="1"/>
        <pt x="143" y="0" on="1"/>
        <pt x="8" y="0" on="1"/>
        <pt x="33" y="125" on="1"/>
      </contour>
    </TTGlyph>
    <TTGlyph name="comma" xMin="-167" yMin="-250" xMax="175" yMax="185">
      <contour>
        <pt x="175" y="185" on="1"/>
        <pt x="-62" y="-250" on="1"/>
        <pt x="-167" y="-250" on="1"/>
        <pt x="70" y="185" on="1"/>
      </contour>
    </TTGlyph>
    <TTGlyph name="commaccent" xMin="-193" yMin="-380" xMax="118" yMax="-100">
      <contour>
        <pt x="118" y="-100" on="1"/>
        <pt x="-88" y="-380" on="1"/>
        <pt x="-193" y="-380" on="1"/>
        <pt x="13" y="-100" on="1"/>
      </contour>
    </TTGlyph>
    <TTGlyph name="copyright" xMin="6" yMin="-10" xMax="1781" yMax="1440">
      <contour>
        <pt x="129" y="80" on="0"/>
        <pt x="752" y="80" on="1"/>
        <pt x="1404" y="80" on="0"/>
        <pt x="1532" y="719" on="1"/>
        <pt x="1658" y="1350" on="0"/>
        <pt x="1026" y="1350" on="1"/>
        <pt x="383" y="1350" on="0"/>
        <pt x="257" y="719" on="1"/>
      </contour>
      <contour>
        <pt x="153" y="723" on="1"/>
        <pt x="296" y="1440" on="0"/>
        <pt x="1044" y="1440" on="1"/>
        <pt x="1781" y="1440" on="0"/>
        <pt x="1638" y="723" on="1"/>
        <pt x="1491" y="-10" on="0"/>
        <pt x="754" y="-10" on="1"/>
        <pt x="6" y="-10" on="0"/>
      </contour>
      <contour>
        <pt x="1108" y="336" on="1"/>
        <pt x="973" y="285" on="0"/>
        <pt x="808" y="285" on="1"/>
        <pt x="392" y="285" on="0"/>
        <pt x="481" y="728" on="1"/>
        <pt x="564" y="1144" on="0"/>
        <pt x="980" y="1144" on="1"/>
        <pt x="1145" y="1144" on="0"/>
        <pt x="1260" y="1093" on="1"/>
        <pt x="1240" y="995" on="1"/>
        <pt x="1127" y="1053" on="0"/>
        <pt x="976" y="1053" on="1"/>
        <pt x="651" y="1053" on="0"/>
        <pt x="586" y="728" on="1"/>
        <pt x="515" y="376" on="0"/>
        <pt x="840" y="376" on="1"/>
        <pt x="991" y="376" on="0"/>
        <pt x="1128" y="434" on="1"/>
      </contour>
    </TTGlyph>
    <TTGlyph name="currency" xMin="-1" yMin="91" xMax="1049" yMax="978">
      <contour>
        <pt x="262" y="786" on="1"/>
        <pt x="150" y="906" on="1"/>
        <pt x="233" y="978" on="1"/>
        <pt x="330" y="837" on="1"/>
        <pt x="453" y="911" on="0"/>
        <pt x="607" y="911" on="1"/>
        <pt x="761" y="911" on="0"/>
        <pt x="841" y="834" on="1"/>
        <pt x="993" y="972" on="1"/>
        <pt x="1049" y="906" on="1"/>
        <pt x="881" y="780" on="1"/>
        <pt x="942" y="673" on="0"/>
        <pt x="914" y="535" on="1"/>
        <pt x="881" y="366" on="0"/>
        <pt x="784" y="273" on="1"/>
        <pt x="900" y="163" on="1"/>
        <pt x="816" y="91" on="1"/>
        <pt x="724" y="224" on="1"/>
        <pt x="590" y="144" on="0"/>
        <pt x="445" y="144" on="1"/>
        <pt x="301" y="144" on="0"/>
        <pt x="198" y="224" on="1"/>
        <pt x="56" y="91" on="1"/>
        <pt x="-1" y="153" on="1"/>
        <pt x="159" y="273" on="1"/>
        <pt x="103" y="376" on="0"/>
        <pt x="132" y="525" on="1"/>
        <pt x="164" y="682" on="0"/>
      </contour>
      <contour>
        <pt x="216" y="529" on="1"/>
        <pt x="155" y="223" on="0"/>
        <pt x="460" y="223" on="1"/>
        <pt x="765" y="223" on="0"/>
        <pt x="826" y="529" on="1"/>
        <pt x="887" y="833" on="0"/>
        <pt x="582" y="833" on="1"/>
        <pt x="277" y="833" on="0"/>
      </contour>
    </TTGlyph>
    <TTGlyph name="d" xMin="-32" yMin="0" xMax="1111" yMax="1430">
      <contour>
        <pt x="825" y="0" on="1"/>
        <pt x="740" y="0" on="1"/>
        <pt x="770" y="250" on="1"/>
        <pt x="562" y="0" on="0"/>
        <pt x="326" y="0" on="1"/>
        <pt x="-32" y="0" on="0"/>
        <pt x="72" y="521" on="1"/>
        <pt x="178" y="1050" on="0"/>
        <pt x="663" y="1050" on="1"/>
        <pt x="809" y="1050" on="0"/>
        <pt x="926" y="1030" on="1"/>
        <pt x="1006" y="1430" on="1"/>
        <pt x="1111" y="1430" on="1"/>
      </contour>
      <contour>
        <pt x="906" y="932" on="1"/>
        <pt x="776" y="956" on="0"/>
        <pt x="636" y="956" on="1"/>
        <pt x="261" y="956" on="0"/>
        <pt x="175" y="523" on="1"/>
        <pt x="90" y="100" on="0"/>
        <pt x="347" y="100" on="1"/>
        <pt x="591" y="100" on="0"/>
        <pt x="791" y="354" on="1"/>
      </contour>
    </TTGlyph>
    <TTGlyph name="dagger" xMin="110" yMin="-380" xMax="1073" yMax="1430">
      <contour>
        <pt x="729" y="1430" on="1"/>
        <pt x="653" y="1050" on="1"/>
        <pt x="1073" y="1050" on="1"/>
        <pt x="1055" y="960" on="1"/>
        <pt x="635" y="960" on="1"/>
        <pt x="367" y="-380" on="1"/>
        <pt x="262" y="-380" on="1"/>
        <pt x="530" y="960" on="1"/>
        <pt x="110" y="960" on="1"/>
        <pt x="128" y="1050" on="1"/>
        <pt x="548" y="1050" on="1"/>
        <pt x="624" y="1430" on="1"/>
      </contour>
    </TTGlyph>
    <TTGlyph name="daggerdbl" xMin="-82" yMin="-380" xMax="1073" yMax="1430">
      <contour>
        <pt x="729" y="1430" on="1"/>
        <pt x="653" y="1050" on="1"/>
        <pt x="1073" y="1050" on="1"/>
        <pt x="1055" y="960" on="1"/>
        <pt x="635" y="960" on="1"/>
        <pt x="461" y="90" on="1"/>
        <pt x="881" y="90" on="1"/>
        <pt x="863" y="0" on="1"/>
        <pt x="443" y="0" on="1"/>
        <pt x="367" y="-380" on="1"/>
        <pt x="262" y="-380" on="1"/>
        <pt x="338" y="0" on="1"/>
        <pt x="-82" y="0" on="1"/>
        <pt x="-64" y="90" on="1"/>
        <pt x="356" y="90" on="1"/>
        <pt x="530" y="960" on="1"/>
        <pt x="110" y="960" on="1"/>
        <pt x="128" y="1050" on="1"/>
        <pt x="548" y="1050" on="1"/>
        <pt x="624" y="1430" on="1"/>
      </contour>
    </TTGlyph>
    <TTGlyph name="dcaron" xMin="-32" yMin="0" xMax="1476" yMax="1430">
      <contour>
        <pt x="825" y="0" on="1"/>
        <pt x="740" y="0" on="1"/>
        <pt x="770" y="250" on="1"/>
        <pt x="562" y="0" on="0"/>
        <pt x="326" y="0" on="1"/>
        <pt x="-32" y="0" on="0"/>
        <pt x="72" y="521" on="1"/>
        <pt x="178" y="1050" on="0"/>
        <pt x="663" y="1050" on="1"/>
        <pt x="809" y="1050" on="0"/>
        <pt x="926" y="1030" on="1"/>
        <pt x="1006" y="1430" on="1"/>
        <pt x="1111" y="1430" on="1"/>
      </contour>
      <contour>
        <pt x="906" y="932" on="1"/>
        <pt x="776" y="956" on="0"/>
        <pt x="636" y="956" on="1"/>
        <pt x="261" y="956" on="0"/>
        <pt x="175" y="523" on="1"/>
        <pt x="90" y="100" on="0"/>
        <pt x="347" y="100" on="1"/>
        <pt x="591" y="100" on="0"/>
        <pt x="791" y="354" on="1"/>
      </contour>
      <contour>
        <pt x="1476" y="1430" on="1"/>
        <pt x="1239" y="995" on="1"/>
        <pt x="1124" y="995" on="1"/>
        <pt x="1361" y="1430" on="1"/>
      </contour>
    </TTGlyph>
    <TTGlyph name="dcroat" xMin="-32" yMin="0" xMax="1111" yMax="1430">
      <contour>
        <pt x="906" y="932" on="1"/>
        <pt x="776" y="956" on="0"/>
        <pt x="636" y="956" on="1"/>
        <pt x="261" y="956" on="0"/>
        <pt x="175" y="523" on="1"/>
        <pt x="90" y="100" on="0"/>
        <pt x="347" y="100" on="1"/>
        <pt x="591" y="100" on="0"/>
        <pt x="791" y="354" on="1"/>
      </contour>
      <contour>
        <pt x="972" y="1260" on="1"/>
        <pt x="1006" y="1430" on="1"/>
        <pt x="1111" y="1430" on="1"/>
        <pt x="825" y="0" on="1"/>
        <pt x="740" y="0" on="1"/>
        <pt x="770" y="250" on="1"/>
        <pt x="562" y="0" on="0"/>
        <pt x="326" y="0" on="1"/>
        <pt x="-32" y="0" on="0"/>
        <pt x="72" y="521" on="1"/>
        <pt x="178" y="1050" on="0"/>
        <pt x="663" y="1050" on="1"/>
        <pt x="809" y="1050" on="0"/>
        <pt x="926" y="1030" on="1"/>
        <pt x="954" y="1170" on="1"/>
        <pt x="232" y="1170" on="1"/>
        <pt x="250" y="1260" on="1"/>
      </contour>
    </TTGlyph>
    <TTGlyph name="degree" xMin="150" yMin="911" xMax="806" yMax="1430">
      <contour>
        <pt x="255" y="985" on="0"/>
        <pt x="443" y="985" on="1"/>
        <pt x="627" y="985" on="0"/>
        <pt x="664" y="1172" on="1"/>
        <pt x="701" y="1356" on="0"/>
        <pt x="517" y="1356" on="1"/>
        <pt x="329" y="1356" on="0"/>
        <pt x="292" y="1172" on="1"/>
      </contour>
      <contour>
        <pt x="202" y="1170" on="1"/>
        <pt x="254" y="1430" on="0"/>
        <pt x="532" y="1430" on="1"/>
        <pt x="806" y="1430" on="0"/>
        <pt x="754" y="1170" on="1"/>
        <pt x="702" y="911" on="0"/>
        <pt x="428" y="911" on="1"/>
        <pt x="150" y="911" on="0"/>
      </contour>
    </TTGlyph>
    <TTGlyph name="delta" xMin="-44" yMin="-10" xMax="1152" yMax="1430">
      <contour>
        <pt x="956" y="-10" on="0"/>
        <pt x="449" y="-10" on="1"/>
        <pt x="-44" y="-10" on="0"/>
        <pt x="64" y="530" on="1"/>
        <pt x="166" y="1040" on="0"/>
        <pt x="659" y="1040" on="1"/>
        <pt x="745" y="1040" on="0"/>
        <pt x="835" y="1010" on="1"/>
        <pt x="618" y="1223" on="0"/>
        <pt x="342" y="1350" on="1"/>
        <pt x="358" y="1430" on="1"/>
        <pt x="1143" y="1430" on="1"/>
        <pt x="1127" y="1350" on="1"/>
        <pt x="530" y="1350" on="1"/>
        <pt x="1152" y="1035" on="0"/>
        <pt x="1066" y="540" on="1"/>
      </contour>
      <contour>
        <pt x="960" y="536" on="1"/>
        <pt x="1045" y="960" on="0"/>
        <pt x="643" y="960" on="1"/>
        <pt x="251" y="960" on="0"/>
        <pt x="165" y="530" on="1"/>
        <pt x="75" y="80" on="0"/>
        <pt x="468" y="80" on="1"/>
        <pt x="869" y="80" on="0"/>
      </contour>
    </TTGlyph>
    <TTGlyph name="dieresis" xMin="204" yMin="1280" xMax="685" yMax="1410">
      <contour>
        <pt x="685" y="1410" on="1"/>
        <pt x="659" y="1280" on="1"/>
        <pt x="524" y="1280" on="1"/>
        <pt x="550" y="1410" on="1"/>
      </contour>
      <contour>
        <pt x="365" y="1410" on="1"/>
        <pt x="339" y="1280" on="1"/>
        <pt x="204" y="1280" on="1"/>
        <pt x="230" y="1410" on="1"/>
      </contour>
    </TTGlyph>
    <TTGlyph name="dieresistonos" xMin="214" yMin="1191" xMax="895" yMax="1430">
      <contour>
        <pt x="895" y="1410" on="1"/>
        <pt x="869" y="1280" on="1"/>
        <pt x="734" y="1280" on="1"/>
        <pt x="760" y="1410" on="1"/>
      </contour>
      <contour>
        <pt x="375" y="1410" on="1"/>
        <pt x="349" y="1280" on="1"/>
        <pt x="214" y="1280" on="1"/>
        <pt x="240" y="1410" on="1"/>
      </contour>
      <contour>
        <pt x="558" y="1430" on="1"/>
        <pt x="717" y="1430" on="1"/>
        <pt x="430" y="1191" on="1"/>
        <pt x="346" y="1191" on="1"/>
      </contour>
    </TTGlyph>
    <TTGlyph name="divide" xMin="64" yMin="150" xMax="867" yMax="900">
      <contour>
        <pt x="867" y="570" on="1"/>
        <pt x="849" y="480" on="1"/>
        <pt x="64" y="480" on="1"/>
        <pt x="82" y="570" on="1"/>
      </contour>
      <contour>
        <pt x="489" y="280" on="1"/>
        <pt x="463" y="150" on="1"/>
        <pt x="318" y="150" on="1"/>
        <pt x="344" y="280" on="1"/>
      </contour>
      <contour>
        <pt x="613" y="900" on="1"/>
        <pt x="587" y="770" on="1"/>
        <pt x="442" y="770" on="1"/>
        <pt x="468" y="900" on="1"/>
      </contour>
    </TTGlyph>
    <TTGlyph name="dollar" xMin="46" yMin="0" xMax="986" yMax="1430">
      <contour>
        <pt x="585" y="1238" on="1"/>
        <pt x="623" y="1430" on="1"/>
        <pt x="718" y="1430" on="1"/>
        <pt x="680" y="1240" on="1"/>
        <pt x="834" y="1236" on="0"/>
        <pt x="986" y="1190" on="1"/>
        <pt x="966" y="1090" on="1"/>
        <pt x="803" y="1150" on="0"/>
        <pt x="635" y="1150" on="1"/>
        <pt x="303" y="1150" on="0"/>
        <pt x="261" y="940" on="1"/>
        <pt x="225" y="760" on="0"/>
        <pt x="450" y="760" on="1"/>
        <pt x="580" y="760" on="1"/>
        <pt x="930" y="760" on="0"/>
        <pt x="876" y="490" on="1"/>
        <pt x="823" y="223" on="0"/>
        <pt x="471" y="194" on="1"/>
        <pt x="432" y="0" on="1"/>
        <pt x="337" y="0" on="1"/>
        <pt x="375" y="190" on="1"/>
        <pt x="208" y="191" on="0"/>
        <pt x="46" y="240" on="1"/>
        <pt x="66" y="340" on="1"/>
        <pt x="229" y="280" on="0"/>
        <pt x="398" y="280" on="1"/>
        <pt x="729" y="280" on="0"/>
        <pt x="771" y="490" on="1"/>
        <pt x="805" y="660" on="0"/>
        <pt x="560" y="660" on="1"/>
        <pt x="430" y="660" on="1"/>
        <pt x="100" y="660" on="0"/>
        <pt x="156" y="940" on="1"/>
        <pt x="211" y="1216" on="0"/>
      </contour>
    </TTGlyph>
    <TTGlyph name="dotaccent" xMin="214" yMin="1280" xMax="409" yMax="1430">
      <contour>
        <pt x="409" y="1430" on="1"/>
        <pt x="379" y="1280" on="1"/>
        <pt x="214" y="1280" on="1"/>
        <pt x="244" y="1430" on="1"/>
      </contour>
    </TTGlyph>
    <TTGlyph name="dotlessi" xMin="28" yMin="0" xMax="343" yMax="1050">
      <contour>
        <pt x="343" y="1050" on="1"/>
        <pt x="133" y="0" on="1"/>
        <pt x="28" y="0" on="1"/>
        <pt x="238" y="1050" on="1"/>
      </contour>
    </TTGlyph>
    <TTGlyph name="e" xMin="-32" yMin="0" xMax="1033" yMax="1050">
      <contour>
        <pt x="1033" y="1050" on="0"/>
        <pt x="978" y="776" on="1"/>
        <pt x="921" y="492" on="0"/>
        <pt x="551" y="492" on="1"/>
        <pt x="171" y="492" on="1"/>
        <pt x="91" y="90" on="0"/>
        <pt x="467" y="90" on="1"/>
        <pt x="676" y="90" on="0"/>
        <pt x="843" y="230" on="1"/>
        <pt x="823" y="130" on="1"/>
        <pt x="658" y="0" on="0"/>
        <pt x="449" y="0" on="1"/>
        <pt x="-32" y="0" on="0"/>
        <pt x="75" y="537" on="1"/>
        <pt x="178" y="1050" on="0"/>
        <pt x="651" y="1050" on="1"/>
      </contour>
      <contour>
        <pt x="190" y="586" on="1"/>
        <pt x="568" y="586" on="1"/>
        <pt x="835" y="586" on="0"/>
        <pt x="874" y="779" on="1"/>
        <pt x="910" y="962" on="0"/>
        <pt x="633" y="962" on="1"/>
        <pt x="283" y="962" on="0"/>
      </contour>
    </TTGlyph>
    <TTGlyph name="eacute" xMin="-32" yMin="0" xMax="1033" yMax="1430">
      <component glyphName="e" x="0" y="0" flags="0x200"/>
      <component glyphName="acute" x="340" y="0" flags="0x0"/>
    </TTGlyph>
    <TTGlyph name="ebreve" xMin="-32" yMin="0" xMax="1033" yMax="1430">
      <component glyphName="e" x="0" y="0" flags="0x200"/>
      <component glyphName="breve" x="193" y="0" flags="0x0"/>
    </TTGlyph>
    <TTGlyph name="ecaron" xMin="-32" yMin="0" xMax="1033" yMax="1430">
      <component glyphName="e" x="0" y="0" flags="0x200"/>
      <component glyphName="caron" x="208" y="0" flags="0x0"/>
    </TTGlyph>
    <TTGlyph name="ecircumflex" xMin="-32" yMin="0" xMax="1033" yMax="1430">
      <component glyphName="e" x="0" y="0" flags="0x200"/>
      <component glyphName="circumflex" x="198" y="0" flags="0x0"/>
    </TTGlyph>
    <TTGlyph name="edieresis" xMin="-32" yMin="0" xMax="1033" yMax="1410">
      <component glyphName="e" x="0" y="0" flags="0x200"/>
      <component glyphName="dieresis" x="240" y="0" flags="0x0"/>
    </TTGlyph>
    <TTGlyph name="edotaccent" xMin="-32" yMin="0" xMax="1033" yMax="1430">
      <component glyphName="e" x="0" y="0" flags="0x200"/>
      <component glyphName="dotaccent" x="365" y="0" flags="0x0"/>
    </TTGlyph>
    <TTGlyph name="egrave" xMin="-32" yMin="0" xMax="1033" yMax="1430">
      <component glyphName="e" x="0" y="0" flags="0x200"/>
      <component glyphName="grave" x="272" y="0" flags="0x0"/>
    </TTGlyph>
    <TTGlyph name="eight" xMin="-34" yMin="-10" xMax="1257" yMax="1444">
      <contour>
        <pt x="53" y="424" on="1"/>
        <pt x="101" y="667" on="0"/>
        <pt x="369" y="745" on="1"/>
        <pt x="174" y="830" on="0"/>
        <pt x="224" y="1078" on="1"/>
        <pt x="297" y="1444" on="0"/>
        <pt x="777" y="1444" on="1"/>
        <pt x="1257" y="1444" on="0"/>
        <pt x="1184" y="1078" on="1"/>
        <pt x="1134" y="830" on="0"/>
        <pt x="900" y="745" on="1"/>
        <pt x="1141" y="667" on="0"/>
        <pt x="1093" y="424" on="1"/>
        <pt x="1006" y="-10" on="0"/>
        <pt x="486" y="-10" on="1"/>
        <pt x="-34" y="-10" on="0"/>
      </contour>
      <contour>
        <pt x="1021" y="790" on="0"/>
        <pt x="1075" y="1058" on="1"/>
        <pt x="1133" y="1350" on="0"/>
        <pt x="750" y="1350" on="1"/>
        <pt x="383" y="1350" on="0"/>
        <pt x="325" y="1058" on="1"/>
        <pt x="271" y="790" on="0"/>
        <pt x="651" y="790" on="1"/>
      </contour>
      <contour>
        <pt x="919" y="80" on="0"/>
        <pt x="987" y="418" on="1"/>
        <pt x="1043" y="700" on="0"/>
        <pt x="620" y="700" on="1"/>
        <pt x="213" y="700" on="0"/>
        <pt x="157" y="418" on="1"/>
        <pt x="89" y="80" on="0"/>
        <pt x="509" y="80" on="1"/>
      </contour>
    </TTGlyph>
    <TTGlyph name="eight.osf" xMin="-29" yMin="-10" xMax="1222" yMax="1344">
      <contour>
        <pt x="48" y="374" on="1"/>
        <pt x="98" y="627" on="0"/>
        <pt x="396" y="705" on="1"/>
        <pt x="169" y="780" on="0"/>
        <pt x="215" y="1008" on="1"/>
        <pt x="282" y="1344" on="0"/>
        <pt x="752" y="1344" on="1"/>
        <pt x="1222" y="1344" on="0"/>
        <pt x="1155" y="1008" on="1"/>
        <pt x="1109" y="780" on="0"/>
        <pt x="847" y="705" on="1"/>
        <pt x="1118" y="627" on="0"/>
        <pt x="1068" y="374" on="1"/>
        <pt x="991" y="-10" on="0"/>
        <pt x="481" y="-10" on="1"/>
        <pt x="-29" y="-10" on="0"/>
      </contour>
      <contour>
        <pt x="996" y="740" on="0"/>
        <pt x="1050" y="1008" on="1"/>
        <pt x="1098" y="1250" on="0"/>
        <pt x="725" y="1250" on="1"/>
        <pt x="368" y="1250" on="0"/>
        <pt x="320" y="1008" on="1"/>
        <pt x="266" y="740" on="0"/>
        <pt x="636" y="740" on="1"/>
      </contour>
      <contour>
        <pt x="904" y="80" on="0"/>
        <pt x="964" y="378" on="1"/>
        <pt x="1018" y="650" on="0"/>
        <pt x="605" y="650" on="1"/>
        <pt x="208" y="650" on="0"/>
        <pt x="154" y="378" on="1"/>
        <pt x="94" y="80" on="0"/>
        <pt x="504" y="80" on="1"/>
      </contour>
    </TTGlyph>
    <TTGlyph name="ellipsis" xMin="-32" yMin="0" xMax="828" yMax="125">
      <contour>
        <pt x="478" y="125" on="1"/>
        <pt x="453" y="0" on="1"/>
        <pt x="318" y="0" on="1"/>
        <pt x="343" y="125" on="1"/>
      </contour>
      <contour>
        <pt x="128" y="125" on="1"/>
        <pt x="103" y="0" on="1"/>
        <pt x="-32" y="0" on="1"/>
        <pt x="-7" y="125" on="1"/>
      </contour>
      <contour>
        <pt x="828" y="125" on="1"/>
        <pt x="803" y="0" on="1"/>
        <pt x="668" y="0" on="1"/>
        <pt x="693" y="125" on="1"/>
      </contour>
    </TTGlyph>
    <TTGlyph name="emacron" xMin="-32" yMin="0" xMax="1033" yMax="1430">
      <component glyphName="e" x="0" y="0" flags="0x200"/>
      <component glyphName="macron" x="198" y="0" flags="0x0"/>
    </TTGlyph>
    <TTGlyph name="emdash" xMin="64" yMin="480" xMax="1582" yMax="570">
      <contour>
        <pt x="1582" y="570" on="1"/>
        <pt x="1564" y="480" on="1"/>
        <pt x="64" y="480" on="1"/>
        <pt x="82" y="570" on="1"/>
      </contour>
    </TTGlyph>
    <TTGlyph name="endash" xMin="64" yMin="480" xMax="1082" yMax="570">
      <contour>
        <pt x="1082" y="570" on="1"/>
        <pt x="1064" y="480" on="1"/>
        <pt x="64" y="480" on="1"/>
        <pt x="82" y="570" on="1"/>
      </contour>
    </TTGlyph>
    <TTGlyph name="eng" xMin="18" yMin="-368" xMax="1073" yMax="1050">
      <contour>
        <pt x="907" y="745" on="1"/>
        <pt x="949" y="956" on="0"/>
        <pt x="756" y="956" on="1"/>
        <pt x="497" y="956" on="0"/>
        <pt x="248" y="623" on="1"/>
        <pt x="123" y="0" on="1"/>
        <pt x="18" y="0" on="1"/>
        <pt x="228" y="1050" on="1"/>
        <pt x="313" y="1050" on="1"/>
        <pt x="270" y="736" on="1"/>
        <pt x="517" y="1050" on="0"/>
        <pt x="780" y="1050" on="1"/>
        <pt x="1073" y="1050" on="0"/>
        <pt x="1012" y="745" on="1"/>
        <pt x="879" y="80" on="1"/>
        <pt x="815" y="-238" on="0"/>
        <pt x="634" y="-368" on="1"/>
        <pt x="572" y="-303" on="1"/>
        <pt x="714" y="-218" on="0"/>
        <pt x="774" y="80" on="1"/>
      </contour>
    </TTGlyph>
    <TTGlyph name="eogonek" xMin="-32" yMin="-426" xMax="1033" yMax="1050">
      <contour>
        <pt x="190" y="586" on="1"/>
        <pt x="568" y="586" on="1"/>
        <pt x="835" y="586" on="0"/>
        <pt x="874" y="779" on="1"/>
        <pt x="910" y="962" on="0"/>
        <pt x="633" y="962" on="1"/>
        <pt x="283" y="962" on="0"/>
      </contour>
      <contour>
        <pt x="651" y="43" on="1"/>
        <pt x="554" y="0" on="0"/>
        <pt x="449" y="0" on="1"/>
        <pt x="-32" y="0" on="0"/>
        <pt x="75" y="537" on="1"/>
        <pt x="178" y="1050" on="0"/>
        <pt x="651" y="1050" on="1"/>
        <pt x="1033" y="1050" on="0"/>
        <pt x="978" y="776" on="1"/>
        <pt x="921" y="492" on="0"/>
        <pt x="551" y="492" on="1"/>
        <pt x="171" y="492" on="1"/>
        <pt x="91" y="90" on="0"/>
        <pt x="467" y="90" on="1"/>
        <pt x="676" y="90" on="0"/>
        <pt x="843" y="230" on="1"/>
        <pt x="819" y="110" on="1"/>
        <pt x="534" y="-106" on="0"/>
        <pt x="509" y="-228" on="1"/>
        <pt x="486" y="-346" on="0"/>
        <pt x="611" y="-346" on="1"/>
        <pt x="696" y="-346" on="0"/>
        <pt x="752" y="-326" on="1"/>
        <pt x="736" y="-406" on="1"/>
        <pt x="671" y="-426" on="0"/>
        <pt x="583" y="-426" on="1"/>
        <pt x="372" y="-426" on="0"/>
        <pt x="406" y="-253" on="1"/>
        <pt x="434" y="-116" on="0"/>
      </contour>
    </TTGlyph>
    <TTGlyph name="epsilon" xMin="-44" yMin="-10" xMax="885" yMax="1060">
      <contour>
        <pt x="865" y="910" on="1"/>
        <pt x="727" y="970" on="0"/>
        <pt x="557" y="970" on="1"/>
        <pt x="267" y="970" on="0"/>
        <pt x="229" y="778" on="1"/>
        <pt x="191" y="590" on="0"/>
        <pt x="516" y="590" on="1"/>
        <pt x="711" y="590" on="1"/>
        <pt x="693" y="500" on="1"/>
        <pt x="495" y="500" on="1"/>
        <pt x="163" y="500" on="0"/>
        <pt x="121" y="290" on="1"/>
        <pt x="79" y="80" on="0"/>
        <pt x="379" y="80" on="1"/>
        <pt x="549" y="80" on="0"/>
        <pt x="711" y="140" on="1"/>
        <pt x="691" y="40" on="1"/>
        <pt x="531" y="-10" on="0"/>
        <pt x="361" y="-10" on="1"/>
        <pt x="-44" y="-10" on="0"/>
        <pt x="16" y="290" on="1"/>
        <pt x="56" y="490" on="0"/>
        <pt x="285" y="545" on="1"/>
        <pt x="89" y="604" on="0"/>
        <pt x="124" y="778" on="1"/>
        <pt x="180" y="1060" on="0"/>
        <pt x="585" y="1060" on="1"/>
        <pt x="745" y="1060" on="0"/>
        <pt x="885" y="1010" on="1"/>
      </contour>
    </TTGlyph>
    <TTGlyph name="epsilontonos" xMin="-44" yMin="-10" xMax="885" yMax="1430">
      <component glyphName="epsilon" x="0" y="0" flags="0x200"/>
      <component glyphName="tonos" x="255" y="0" flags="0x0"/>
    </TTGlyph>
    <TTGlyph name="equal" xMin="34" yMin="330" xMax="862" yMax="720">
      <contour>
        <pt x="802" y="420" on="1"/>
        <pt x="784" y="330" on="1"/>
        <pt x="34" y="330" on="1"/>
        <pt x="52" y="420" on="1"/>
      </contour>
      <contour>
        <pt x="862" y="720" on="1"/>
        <pt x="844" y="630" on="1"/>
        <pt x="94" y="630" on="1"/>
        <pt x="112" y="720" on="1"/>
      </contour>
    </TTGlyph>
    <TTGlyph name="eta" xMin="18" yMin="-380" xMax="1073" yMax="1050">
      <contour>
        <pt x="18" y="0" on="1"/>
        <pt x="228" y="1050" on="1"/>
        <pt x="313" y="1050" on="1"/>
        <pt x="270" y="736" on="1"/>
        <pt x="517" y="1050" on="0"/>
        <pt x="780" y="1050" on="1"/>
        <pt x="1073" y="1050" on="0"/>
        <pt x="1012" y="745" on="1"/>
        <pt x="787" y="-380" on="1"/>
        <pt x="682" y="-380" on="1"/>
        <pt x="907" y="745" on="1"/>
        <pt x="949" y="956" on="0"/>
        <pt x="756" y="956" on="1"/>
        <pt x="497" y="956" on="0"/>
        <pt x="248" y="623" on="1"/>
        <pt x="123" y="0" on="1"/>
      </contour>
    </TTGlyph>
    <TTGlyph name="etatonos" xMin="18" yMin="-380" xMax="1073" yMax="1430">
      <component glyphName="eta" x="0" y="0" flags="0x200"/>
      <component glyphName="tonos" x="385" y="0" flags="0x0"/>
    </TTGlyph>
    <TTGlyph name="eth" xMin="-34" yMin="-10" xMax="1113" yMax="1430">
      <contour>
        <pt x="910" y="586" on="1"/>
        <pt x="933" y="702" on="0"/>
        <pt x="943" y="840" on="1"/>
        <pt x="849" y="970" on="0"/>
        <pt x="625" y="970" on="1"/>
        <pt x="263" y="970" on="0"/>
        <pt x="177" y="540" on="1"/>
        <pt x="85" y="80" on="0"/>
        <pt x="448" y="80" on="1"/>
        <pt x="809" y="80" on="0"/>
      </contour>
      <contour>
        <pt x="941" y="1282" on="1"/>
        <pt x="1113" y="1077" on="0"/>
        <pt x="1016" y="590" on="1"/>
        <pt x="896" y="-10" on="0"/>
        <pt x="429" y="-10" on="1"/>
        <pt x="-34" y="-10" on="0"/>
        <pt x="76" y="540" on="1"/>
        <pt x="178" y="1050" on="0"/>
        <pt x="632" y="1050" on="1"/>
        <pt x="839" y="1050" on="0"/>
        <pt x="948" y="950" on="1"/>
        <pt x="927" y="1136" on="0"/>
        <pt x="832" y="1233" on="1"/>
        <pt x="560" y="1111" on="1"/>
        <pt x="578" y="1200" on="1"/>
        <pt x="766" y="1284" on="1"/>
        <pt x="672" y="1340" on="0"/>
        <pt x="532" y="1340" on="1"/>
        <pt x="316" y="1340" on="1"/>
        <pt x="334" y="1430" on="1"/>
        <pt x="552" y="1430" on="1"/>
        <pt x="762" y="1430" on="0"/>
        <pt x="883" y="1337" on="1"/>
        <pt x="1091" y="1430" on="1"/>
        <pt x="1073" y="1341" on="1"/>
      </contour>
    </TTGlyph>
    <TTGlyph name="exclam" xMin="18" yMin="0" xMax="409" yMax="1430">
      <contour>
        <pt x="409" y="1430" on="1"/>
        <pt x="197" y="370" on="1"/>
        <pt x="92" y="370" on="1"/>
        <pt x="304" y="1430" on="1"/>
      </contour>
      <contour>
        <pt x="144" y="105" on="1"/>
        <pt x="123" y="0" on="1"/>
        <pt x="18" y="0" on="1"/>
        <pt x="39" y="105" on="1"/>
      </contour>
    </TTGlyph>
    <TTGlyph name="exclamdown" xMin="-58" yMin="-380" xMax="333" yMax="1050">
      <contour>
        <pt x="-58" y="-380" on="1"/>
        <pt x="154" y="680" on="1"/>
        <pt x="259" y="680" on="1"/>
        <pt x="47" y="-380" on="1"/>
      </contour>
      <contour>
        <pt x="207" y="945" on="1"/>
        <pt x="228" y="1050" on="1"/>
        <pt x="333" y="1050" on="1"/>
        <pt x="312" y="945" on="1"/>
      </contour>
    </TTGlyph>
    <TTGlyph name="f" xMin="-168" yMin="-368" xMax="912" yMax="1482">
      <contour>
        <pt x="333" y="1050" on="1"/>
        <pt x="728" y="1050" on="1"/>
        <pt x="710" y="960" on="1"/>
        <pt x="315" y="960" on="1"/>
        <pt x="139" y="80" on="1"/>
        <pt x="75" y="-238" on="0"/>
        <pt x="-106" y="-368" on="1"/>
        <pt x="-168" y="-303" on="1"/>
        <pt x="-26" y="-218" on="0"/>
        <pt x="34" y="80" on="1"/>
        <pt x="238" y="1101" on="1"/>
        <pt x="314" y="1482" on="0"/>
        <pt x="686" y="1482" on="1"/>
        <pt x="815" y="1482" on="0"/>
        <pt x="912" y="1442" on="1"/>
        <pt x="894" y="1352" on="1"/>
        <pt x="803" y="1392" on="0"/>
        <pt x="667" y="1392" on="1"/>
        <pt x="401" y="1392" on="0"/>
        <pt x="342" y="1099" on="1"/>
      </contour>
    </TTGlyph>
    <TTGlyph name="fb" xMin="-168" yMin="-368" xMax="1702" yMax="1502">
      <contour>
        <pt x="899" y="800" on="1"/>
        <pt x="1148" y="1050" on="0"/>
        <pt x="1364" y="1050" on="1"/>
        <pt x="1702" y="1050" on="0"/>
        <pt x="1603" y="556" on="1"/>
        <pt x="1492" y="0" on="0"/>
        <pt x="1049" y="0" on="1"/>
        <pt x="823" y="0" on="0"/>
        <pt x="642" y="43" on="1"/>
        <pt x="909" y="1378" on="1"/>
        <pt x="837" y="1412" on="0"/>
        <pt x="711" y="1412" on="1"/>
        <pt x="405" y="1412" on="0"/>
        <pt x="348" y="1129" on="1"/>
        <pt x="333" y="1050" on="1"/>
        <pt x="648" y="1050" on="1"/>
        <pt x="630" y="960" on="1"/>
        <pt x="315" y="960" on="1"/>
        <pt x="139" y="80" on="1"/>
        <pt x="75" y="-238" on="0"/>
        <pt x="-106" y="-368" on="1"/>
        <pt x="-168" y="-303" on="1"/>
        <pt x="-26" y="-218" on="0"/>
        <pt x="34" y="80" on="1"/>
        <pt x="242" y="1121" on="1"/>
        <pt x="318" y="1502" on="0"/>
        <pt x="730" y="1502" on="1"/>
        <pt x="899" y="1502" on="0"/>
        <pt x="1025" y="1432" on="1"/>
      </contour>
      <contour>
        <pt x="763" y="123" on="1"/>
        <pt x="928" y="94" on="0"/>
        <pt x="1058" y="94" on="1"/>
        <pt x="1408" y="94" on="0"/>
        <pt x="1502" y="563" on="1"/>
        <pt x="1580" y="950" on="0"/>
        <pt x="1333" y="950" on="1"/>
        <pt x="1119" y="950" on="0"/>
        <pt x="878" y="696" on="1"/>
      </contour>
    </TTGlyph>
    <TTGlyph name="ff" xMin="-168" yMin="-368" xMax="1561" yMax="1492">
      <contour>
        <pt x="238" y="1101" on="1"/>
        <pt x="314" y="1482" on="0"/>
        <pt x="646" y="1482" on="1"/>
        <pt x="745" y="1482" on="0"/>
        <pt x="827" y="1442" on="1"/>
        <pt x="809" y="1352" on="1"/>
        <pt x="733" y="1392" on="0"/>
        <pt x="627" y="1392" on="1"/>
        <pt x="401" y="1392" on="0"/>
        <pt x="344" y="1109" on="1"/>
        <pt x="333" y="1050" on="1"/>
        <pt x="824" y="1050" on="1"/>
        <pt x="836" y="1111" on="1"/>
        <pt x="913" y="1492" on="0"/>
        <pt x="1335" y="1492" on="1"/>
        <pt x="1464" y="1492" on="0"/>
        <pt x="1561" y="1452" on="1"/>
        <pt x="1543" y="1362" on="1"/>
        <pt x="1452" y="1402" on="0"/>
        <pt x="1316" y="1402" on="1"/>
        <pt x="1000" y="1402" on="0"/>
        <pt x="941" y="1109" on="1"/>
        <pt x="930" y="1050" on="1"/>
        <pt x="1325" y="1050" on="1"/>
        <pt x="1307" y="960" on="1"/>
        <pt x="912" y="960" on="1"/>
        <pt x="736" y="80" on="1"/>
        <pt x="672" y="-238" on="0"/>
        <pt x="491" y="-368" on="1"/>
        <pt x="429" y="-303" on="1"/>
        <pt x="570" y="-218" on="0"/>
        <pt x="630" y="80" on="1"/>
        <pt x="806" y="960" on="1"/>
        <pt x="315" y="960" on="1"/>
        <pt x="139" y="80" on="1"/>
        <pt x="75" y="-238" on="0"/>
        <pt x="-106" y="-368" on="1"/>
        <pt x="-168" y="-303" on="1"/>
        <pt x="-26" y="-218" on="0"/>
        <pt x="34" y="80" on="1"/>
      </contour>
    </TTGlyph>
    <TTGlyph name="ffb" xMin="-168" yMin="-368" xMax="2298" yMax="1502">
      <contour>
        <pt x="240" y="1111" on="1"/>
        <pt x="316" y="1492" on="0"/>
        <pt x="648" y="1492" on="1"/>
        <pt x="747" y="1492" on="0"/>
        <pt x="829" y="1452" on="1"/>
        <pt x="811" y="1362" on="1"/>
        <pt x="735" y="1402" on="0"/>
        <pt x="629" y="1402" on="1"/>
        <pt x="403" y="1402" on="0"/>
        <pt x="346" y="1119" on="1"/>
        <pt x="333" y="1050" on="1"/>
        <pt x="824" y="1050" on="1"/>
        <pt x="838" y="1121" on="1"/>
        <pt x="914" y="1502" on="0"/>
        <pt x="1326" y="1502" on="1"/>
        <pt x="1495" y="1502" on="0"/>
        <pt x="1621" y="1432" on="1"/>
        <pt x="1495" y="800" on="1"/>
        <pt x="1744" y="1050" on="0"/>
        <pt x="1960" y="1050" on="1"/>
        <pt x="2298" y="1050" on="0"/>
        <pt x="2199" y="556" on="1"/>
        <pt x="2088" y="0" on="0"/>
        <pt x="1645" y="0" on="1"/>
        <pt x="1419" y="0" on="0"/>
        <pt x="1238" y="43" on="1"/>
        <pt x="1505" y="1378" on="1"/>
        <pt x="1433" y="1412" on="0"/>
        <pt x="1307" y="1412" on="1"/>
        <pt x="1001" y="1412" on="0"/>
        <pt x="944" y="1129" on="1"/>
        <pt x="929" y="1050" on="1"/>
        <pt x="1244" y="1050" on="1"/>
        <pt x="1226" y="960" on="1"/>
        <pt x="912" y="960" on="1"/>
        <pt x="736" y="80" on="1"/>
        <pt x="672" y="-238" on="0"/>
        <pt x="491" y="-368" on="1"/>
        <pt x="429" y="-303" on="1"/>
        <pt x="570" y="-218" on="0"/>
        <pt x="630" y="80" on="1"/>
        <pt x="806" y="960" on="1"/>
        <pt x="315" y="960" on="1"/>
        <pt x="139" y="80" on="1"/>
        <pt x="75" y="-238" on="0"/>
        <pt x="-106" y="-368" on="1"/>
        <pt x="-168" y="-303" on="1"/>
        <pt x="-26" y="-218" on="0"/>
        <pt x="34" y="80" on="1"/>
      </contour>
      <contour>
        <pt x="1359" y="123" on="1"/>
        <pt x="1524" y="94" on="0"/>
        <pt x="1654" y="94" on="1"/>
        <pt x="2004" y="94" on="0"/>
        <pt x="2098" y="563" on="1"/>
        <pt x="2176" y="950" on="0"/>
        <pt x="1929" y="950" on="1"/>
        <pt x="1715" y="950" on="0"/>
        <pt x="1474" y="696" on="1"/>
      </contour>
    </TTGlyph>
    <TTGlyph name="ffh" xMin="-168" yMin="-368" xMax="2285" yMax="1502">
      <contour>
        <pt x="240" y="1111" on="1"/>
        <pt x="316" y="1492" on="0"/>
        <pt x="648" y="1492" on="1"/>
        <pt x="747" y="1492" on="0"/>
        <pt x="829" y="1452" on="1"/>
        <pt x="811" y="1362" on="1"/>
        <pt x="735" y="1402" on="0"/>
        <pt x="629" y="1402" on="1"/>
        <pt x="403" y="1402" on="0"/>
        <pt x="346" y="1119" on="1"/>
        <pt x="333" y="1050" on="1"/>
        <pt x="824" y="1050" on="1"/>
        <pt x="838" y="1121" on="1"/>
        <pt x="914" y="1502" on="0"/>
        <pt x="1326" y="1502" on="1"/>
        <pt x="1495" y="1502" on="0"/>
        <pt x="1621" y="1432" on="1"/>
        <pt x="1482" y="736" on="1"/>
        <pt x="1729" y="1050" on="0"/>
        <pt x="1992" y="1050" on="1"/>
        <pt x="2285" y="1050" on="0"/>
        <pt x="2224" y="745" on="1"/>
        <pt x="2075" y="0" on="1"/>
        <pt x="1970" y="0" on="1"/>
        <pt x="2119" y="745" on="1"/>
        <pt x="2161" y="956" on="0"/>
        <pt x="1968" y="956" on="1"/>
        <pt x="1709" y="956" on="0"/>
        <pt x="1459" y="623" on="1"/>
        <pt x="1335" y="0" on="1"/>
        <pt x="1230" y="0" on="1"/>
        <pt x="1505" y="1378" on="1"/>
        <pt x="1433" y="1412" on="0"/>
        <pt x="1307" y="1412" on="1"/>
        <pt x="1001" y="1412" on="0"/>
        <pt x="944" y="1129" on="1"/>
        <pt x="929" y="1050" on="1"/>
        <pt x="1244" y="1050" on="1"/>
        <pt x="1226" y="960" on="1"/>
        <pt x="912" y="960" on="1"/>
        <pt x="736" y="80" on="1"/>
        <pt x="672" y="-238" on="0"/>
        <pt x="491" y="-368" on="1"/>
        <pt x="429" y="-303" on="1"/>
        <pt x="570" y="-218" on="0"/>
        <pt x="630" y="80" on="1"/>
        <pt x="806" y="960" on="1"/>
        <pt x="315" y="960" on="1"/>
        <pt x="139" y="80" on="1"/>
        <pt x="75" y="-238" on="0"/>
        <pt x="-106" y="-368" on="1"/>
        <pt x="-168" y="-303" on="1"/>
        <pt x="-26" y="-218" on="0"/>
        <pt x="34" y="80" on="1"/>
      </contour>
    </TTGlyph>
    <TTGlyph name="ffi" xMin="-168" yMin="-368" xMax="1572" yMax="1502">
      <contour>
        <pt x="930" y="1050" on="1"/>
        <pt x="1526" y="1050" on="1"/>
        <pt x="1316" y="0" on="1"/>
        <pt x="1211" y="0" on="1"/>
        <pt x="1403" y="960" on="1"/>
        <pt x="912" y="960" on="1"/>
        <pt x="736" y="80" on="1"/>
        <pt x="672" y="-238" on="0"/>
        <pt x="491" y="-368" on="1"/>
        <pt x="429" y="-303" on="1"/>
        <pt x="570" y="-218" on="0"/>
        <pt x="630" y="80" on="1"/>
        <pt x="806" y="960" on="1"/>
        <pt x="315" y="960" on="1"/>
        <pt x="139" y="80" on="1"/>
        <pt x="75" y="-238" on="0"/>
        <pt x="-106" y="-368" on="1"/>
        <pt x="-168" y="-303" on="1"/>
        <pt x="-26" y="-218" on="0"/>
        <pt x="34" y="80" on="1"/>
        <pt x="240" y="1111" on="1"/>
        <pt x="316" y="1492" on="0"/>
        <pt x="648" y="1492" on="1"/>
        <pt x="747" y="1492" on="0"/>
        <pt x="829" y="1452" on="1"/>
        <pt x="811" y="1362" on="1"/>
        <pt x="735" y="1402" on="0"/>
        <pt x="629" y="1402" on="1"/>
        <pt x="403" y="1402" on="0"/>
        <pt x="346" y="1119" on="1"/>
        <pt x="333" y="1050" on="1"/>
        <pt x="824" y="1050" on="1"/>
        <pt x="838" y="1121" on="1"/>
        <pt x="915" y="1502" on="0"/>
        <pt x="1307" y="1502" on="1"/>
        <pt x="1456" y="1502" on="0"/>
        <pt x="1572" y="1432" on="1"/>
        <pt x="1554" y="1342" on="1"/>
        <pt x="1444" y="1412" on="0"/>
        <pt x="1288" y="1412" on="1"/>
        <pt x="1002" y="1412" on="0"/>
        <pt x="945" y="1129" on="1"/>
      </contour>
    </TTGlyph>
    <TTGlyph name="ffi#1" xMin="-168" yMin="-368" xMax="1572" yMax="1502">
      <contour>
        <pt x="1322" y="80" on="1"/>
        <pt x="1258" y="-238" on="0"/>
        <pt x="1077" y="-368" on="1"/>
        <pt x="1015" y="-303" on="1"/>
        <pt x="1157" y="-218" on="0"/>
        <pt x="1217" y="80" on="1"/>
        <pt x="1393" y="960" on="1"/>
        <pt x="912" y="960" on="1"/>
        <pt x="736" y="80" on="1"/>
        <pt x="672" y="-238" on="0"/>
        <pt x="491" y="-368" on="1"/>
        <pt x="429" y="-303" on="1"/>
        <pt x="570" y="-218" on="0"/>
        <pt x="630" y="80" on="1"/>
        <pt x="806" y="960" on="1"/>
        <pt x="315" y="960" on="1"/>
        <pt x="139" y="80" on="1"/>
        <pt x="75" y="-238" on="0"/>
        <pt x="-106" y="-368" on="1"/>
        <pt x="-168" y="-303" on="1"/>
        <pt x="-26" y="-218" on="0"/>
        <pt x="34" y="80" on="1"/>
        <pt x="240" y="1111" on="1"/>
        <pt x="316" y="1492" on="0"/>
        <pt x="648" y="1492" on="1"/>
        <pt x="747" y="1492" on="0"/>
        <pt x="829" y="1452" on="1"/>
        <pt x="811" y="1362" on="1"/>
        <pt x="735" y="1402" on="0"/>
        <pt x="629" y="1402" on="1"/>
        <pt x="403" y="1402" on="0"/>
        <pt x="346" y="1119" on="1"/>
        <pt x="333" y="1050" on="1"/>
        <pt x="824" y="1050" on="1"/>
        <pt x="838" y="1121" on="1"/>
        <pt x="915" y="1502" on="0"/>
        <pt x="1307" y="1502" on="1"/>
        <pt x="1456" y="1502" on="0"/>
        <pt x="1572" y="1432" on="1"/>
        <pt x="1554" y="1342" on="1"/>
        <pt x="1444" y="1412" on="0"/>
        <pt x="1288" y="1412" on="1"/>
        <pt x="1002" y="1412" on="0"/>
        <pt x="945" y="1129" on="1"/>
        <pt x="930" y="1050" on="1"/>
        <pt x="1516" y="1050" on="1"/>
      </contour>
    </TTGlyph>
    <TTGlyph name="ffk" xMin="-168" yMin="-368" xMax="2300" yMax="1502">
      <contour>
        <pt x="240" y="1111" on="1"/>
        <pt x="316" y="1492" on="0"/>
        <pt x="648" y="1492" on="1"/>
        <pt x="747" y="1492" on="0"/>
        <pt x="829" y="1452" on="1"/>
        <pt x="811" y="1362" on="1"/>
        <pt x="735" y="1402" on="0"/>
        <pt x="629" y="1402" on="1"/>
        <pt x="403" y="1402" on="0"/>
        <pt x="346" y="1119" on="1"/>
        <pt x="333" y="1050" on="1"/>
        <pt x="824" y="1050" on="1"/>
        <pt x="838" y="1121" on="1"/>
        <pt x="914" y="1502" on="0"/>
        <pt x="1326" y="1502" on="1"/>
        <pt x="1495" y="1502" on="0"/>
        <pt x="1621" y="1432" on="1"/>
        <pt x="1488" y="768" on="1"/>
        <pt x="1738" y="1050" on="0"/>
        <pt x="2008" y="1050" on="1"/>
        <pt x="2300" y="1050" on="0"/>
        <pt x="2245" y="777" on="1"/>
        <pt x="2199" y="547" on="0"/>
        <pt x="1822" y="413" on="1"/>
        <pt x="2116" y="0" on="1"/>
        <pt x="1987" y="0" on="1"/>
        <pt x="1722" y="395" on="1"/>
        <pt x="1734" y="458" on="1"/>
        <pt x="2098" y="569" on="0"/>
        <pt x="2138" y="768" on="1"/>
        <pt x="2177" y="960" on="0"/>
        <pt x="1967" y="960" on="1"/>
        <pt x="1724" y="960" on="0"/>
        <pt x="1468" y="666" on="1"/>
        <pt x="1335" y="0" on="1"/>
        <pt x="1230" y="0" on="1"/>
        <pt x="1505" y="1378" on="1"/>
        <pt x="1433" y="1412" on="0"/>
        <pt x="1307" y="1412" on="1"/>
        <pt x="1001" y="1412" on="0"/>
        <pt x="944" y="1129" on="1"/>
        <pt x="929" y="1050" on="1"/>
        <pt x="1244" y="1050" on="1"/>
        <pt x="1226" y="960" on="1"/>
        <pt x="912" y="960" on="1"/>
        <pt x="736" y="80" on="1"/>
        <pt x="672" y="-238" on="0"/>
        <pt x="491" y="-368" on="1"/>
        <pt x="429" y="-303" on="1"/>
        <pt x="571" y="-218" on="0"/>
        <pt x="631" y="80" on="1"/>
        <pt x="655" y="200" on="1"/>
        <pt x="654" y="200" on="1"/>
        <pt x="806" y="960" on="1"/>
        <pt x="315" y="960" on="1"/>
        <pt x="139" y="80" on="1"/>
        <pt x="75" y="-238" on="0"/>
        <pt x="-106" y="-368" on="1"/>
        <pt x="-168" y="-303" on="1"/>
        <pt x="-26" y="-218" on="0"/>
        <pt x="34" y="80" on="1"/>
      </contour>
    </TTGlyph>
    <TTGlyph name="ffl" xMin="-168" yMin="-368" xMax="1621" yMax="1502">
      <contour>
        <pt x="240" y="1111" on="1"/>
        <pt x="316" y="1492" on="0"/>
        <pt x="648" y="1492" on="1"/>
        <pt x="747" y="1492" on="0"/>
        <pt x="829" y="1452" on="1"/>
        <pt x="811" y="1362" on="1"/>
        <pt x="735" y="1402" on="0"/>
        <pt x="629" y="1402" on="1"/>
        <pt x="403" y="1402" on="0"/>
        <pt x="346" y="1119" on="1"/>
        <pt x="333" y="1050" on="1"/>
        <pt x="824" y="1050" on="1"/>
        <pt x="838" y="1121" on="1"/>
        <pt x="914" y="1502" on="0"/>
        <pt x="1326" y="1502" on="1"/>
        <pt x="1495" y="1502" on="0"/>
        <pt x="1621" y="1432" on="1"/>
        <pt x="1335" y="0" on="1"/>
        <pt x="1230" y="0" on="1"/>
        <pt x="1505" y="1378" on="1"/>
        <pt x="1433" y="1412" on="0"/>
        <pt x="1307" y="1412" on="1"/>
        <pt x="1001" y="1412" on="0"/>
        <pt x="944" y="1129" on="1"/>
        <pt x="929" y="1050" on="1"/>
        <pt x="1244" y="1050" on="1"/>
        <pt x="1226" y="960" on="1"/>
        <pt x="912" y="960" on="1"/>
        <pt x="736" y="80" on="1"/>
        <pt x="672" y="-238" on="0"/>
        <pt x="491" y="-368" on="1"/>
        <pt x="429" y="-303" on="1"/>
        <pt x="570" y="-218" on="0"/>
        <pt x="630" y="80" on="1"/>
        <pt x="806" y="960" on="1"/>
        <pt x="315" y="960" on="1"/>
        <pt x="139" y="80" on="1"/>
        <pt x="75" y="-238" on="0"/>
        <pt x="-106" y="-368" on="1"/>
        <pt x="-168" y="-303" on="1"/>
        <pt x="-26" y="-218" on="0"/>
        <pt x="34" y="80" on="1"/>
      </contour>
    </TTGlyph>
    <TTGlyph name="fh" xMin="-168" yMin="-368" xMax="1689" yMax="1502">
      <contour>
        <pt x="886" y="736" on="1"/>
        <pt x="1133" y="1050" on="0"/>
        <pt x="1396" y="1050" on="1"/>
        <pt x="1689" y="1050" on="0"/>
        <pt x="1628" y="745" on="1"/>
        <pt x="1479" y="0" on="1"/>
        <pt x="1374" y="0" on="1"/>
        <pt x="1523" y="745" on="1"/>
        <pt x="1565" y="956" on="0"/>
        <pt x="1372" y="956" on="1"/>
        <pt x="1113" y="956" on="0"/>
        <pt x="863" y="623" on="1"/>
        <pt x="739" y="0" on="1"/>
        <pt x="634" y="0" on="1"/>
        <pt x="909" y="1378" on="1"/>
        <pt x="837" y="1412" on="0"/>
        <pt x="711" y="1412" on="1"/>
        <pt x="405" y="1412" on="0"/>
        <pt x="348" y="1129" on="1"/>
        <pt x="333" y="1050" on="1"/>
        <pt x="648" y="1050" on="1"/>
        <pt x="630" y="960" on="1"/>
        <pt x="315" y="960" on="1"/>
        <pt x="139" y="80" on="1"/>
        <pt x="75" y="-238" on="0"/>
        <pt x="-106" y="-368" on="1"/>
        <pt x="-168" y="-303" on="1"/>
        <pt x="-26" y="-218" on="0"/>
        <pt x="34" y="80" on="1"/>
        <pt x="242" y="1121" on="1"/>
        <pt x="318" y="1502" on="0"/>
        <pt x="730" y="1502" on="1"/>
        <pt x="899" y="1502" on="0"/>
        <pt x="1025" y="1432" on="1"/>
      </contour>
    </TTGlyph>
    <TTGlyph name="fi" xMin="-168" yMin="-368" xMax="975" yMax="1502">
      <contour>
        <pt x="333" y="1050" on="1"/>
        <pt x="919" y="1050" on="1"/>
        <pt x="709" y="0" on="1"/>
        <pt x="604" y="0" on="1"/>
        <pt x="796" y="960" on="1"/>
        <pt x="315" y="960" on="1"/>
        <pt x="139" y="80" on="1"/>
        <pt x="75" y="-238" on="0"/>
        <pt x="-106" y="-368" on="1"/>
        <pt x="-168" y="-303" on="1"/>
        <pt x="-26" y="-218" on="0"/>
        <pt x="34" y="80" on="1"/>
        <pt x="242" y="1121" on="1"/>
        <pt x="318" y="1502" on="0"/>
        <pt x="710" y="1502" on="1"/>
        <pt x="859" y="1502" on="0"/>
        <pt x="975" y="1432" on="1"/>
        <pt x="957" y="1342" on="1"/>
        <pt x="847" y="1412" on="0"/>
        <pt x="691" y="1412" on="1"/>
        <pt x="405" y="1412" on="0"/>
        <pt x="348" y="1129" on="1"/>
      </contour>
    </TTGlyph>
    <TTGlyph name="five" xMin="-17" yMin="-10" xMax="1133" yMax="1430">
      <contour>
        <pt x="309" y="1430" on="1"/>
        <pt x="1133" y="1430" on="1"/>
        <pt x="1115" y="1340" on="1"/>
        <pt x="379" y="1340" on="1"/>
        <pt x="241" y="818" on="1"/>
        <pt x="432" y="840" on="0"/>
        <pt x="561" y="840" on="1"/>
        <pt x="1071" y="840" on="0"/>
        <pt x="991" y="440" on="1"/>
        <pt x="901" y="-10" on="0"/>
        <pt x="371" y="-10" on="1"/>
        <pt x="171" y="-10" on="0"/>
        <pt x="-17" y="50" on="1"/>
        <pt x="3" y="150" on="1"/>
        <pt x="189" y="80" on="0"/>
        <pt x="399" y="80" on="1"/>
        <pt x="814" y="80" on="0"/>
        <pt x="886" y="440" on="1"/>
        <pt x="948" y="750" on="0"/>
        <pt x="543" y="750" on="1"/>
        <pt x="318" y="750" on="0"/>
        <pt x="113" y="700" on="1"/>
      </contour>
    </TTGlyph>
    <TTGlyph name="five.osf" xMin="-33" yMin="-290" xMax="1047" yMax="1050">
      <contour>
        <pt x="273" y="1050" on="1"/>
        <pt x="1047" y="1050" on="1"/>
        <pt x="1029" y="960" on="1"/>
        <pt x="342" y="960" on="1"/>
        <pt x="209" y="458" on="1"/>
        <pt x="402" y="490" on="0"/>
        <pt x="501" y="490" on="1"/>
        <pt x="1001" y="490" on="0"/>
        <pt x="929" y="130" on="1"/>
        <pt x="845" y="-290" on="0"/>
        <pt x="285" y="-290" on="1"/>
        <pt x="105" y="-290" on="0"/>
        <pt x="-33" y="-230" on="1"/>
        <pt x="-13" y="-130" on="1"/>
        <pt x="123" y="-200" on="0"/>
        <pt x="313" y="-200" on="1"/>
        <pt x="758" y="-200" on="0"/>
        <pt x="824" y="130" on="1"/>
        <pt x="878" y="400" on="0"/>
        <pt x="483" y="400" on="1"/>
        <pt x="288" y="400" on="0"/>
        <pt x="83" y="350" on="1"/>
      </contour>
    </TTGlyph>
    <TTGlyph name="fj" xMin="-168" yMin="-368" xMax="975" yMax="1502">
      <contour>
        <pt x="725" y="80" on="1"/>
        <pt x="661" y="-238" on="0"/>
        <pt x="480" y="-368" on="1"/>
        <pt x="418" y="-303" on="1"/>
        <pt x="560" y="-218" on="0"/>
        <pt x="620" y="80" on="1"/>
        <pt x="796" y="960" on="1"/>
        <pt x="315" y="960" on="1"/>
        <pt x="139" y="80" on="1"/>
        <pt x="75" y="-238" on="0"/>
        <pt x="-106" y="-368" on="1"/>
        <pt x="-168" y="-303" on="1"/>
        <pt x="-26" y="-218" on="0"/>
        <pt x="34" y="80" on="1"/>
        <pt x="242" y="1121" on="1"/>
        <pt x="318" y="1502" on="0"/>
        <pt x="710" y="1502" on="1"/>
        <pt x="859" y="1502" on="0"/>
        <pt x="975" y="1432" on="1"/>
        <pt x="957" y="1342" on="1"/>
        <pt x="847" y="1412" on="0"/>
        <pt x="691" y="1412" on="1"/>
        <pt x="405" y="1412" on="0"/>
        <pt x="348" y="1129" on="1"/>
        <pt x="333" y="1050" on="1"/>
        <pt x="919" y="1050" on="1"/>
      </contour>
    </TTGlyph>
    <TTGlyph name="fk" xMin="-168" yMin="-368" xMax="1704" yMax="1502">
      <contour>
        <pt x="892" y="768" on="1"/>
        <pt x="1142" y="1050" on="0"/>
        <pt x="1412" y="1050" on="1"/>
        <pt x="1704" y="1050" on="0"/>
        <pt x="1649" y="777" on="1"/>
        <pt x="1603" y="547" on="0"/>
        <pt x="1226" y="413" on="1"/>
        <pt x="1520" y="0" on="1"/>
        <pt x="1391" y="0" on="1"/>
        <pt x="1126" y="395" on="1"/>
        <pt x="1138" y="458" on="1"/>
        <pt x="1502" y="569" on="0"/>
        <pt x="1542" y="768" on="1"/>
        <pt x="1581" y="960" on="0"/>
        <pt x="1371" y="960" on="1"/>
        <pt x="1128" y="960" on="0"/>
        <pt x="872" y="666" on="1"/>
        <pt x="739" y="0" on="1"/>
        <pt x="634" y="0" on="1"/>
        <pt x="909" y="1378" on="1"/>
        <pt x="837" y="1412" on="0"/>
        <pt x="711" y="1412" on="1"/>
        <pt x="405" y="1412" on="0"/>
        <pt x="348" y="1129" on="1"/>
        <pt x="333" y="1050" on="1"/>
        <pt x="648" y="1050" on="1"/>
        <pt x="630" y="960" on="1"/>
        <pt x="315" y="960" on="1"/>
        <pt x="139" y="80" on="1"/>
        <pt x="75" y="-238" on="0"/>
        <pt x="-106" y="-368" on="1"/>
        <pt x="-168" y="-303" on="1"/>
        <pt x="-26" y="-218" on="0"/>
        <pt x="34" y="80" on="1"/>
        <pt x="242" y="1121" on="1"/>
        <pt x="318" y="1502" on="0"/>
        <pt x="730" y="1502" on="1"/>
        <pt x="899" y="1502" on="0"/>
        <pt x="1025" y="1432" on="1"/>
      </contour>
    </TTGlyph>
    <TTGlyph name="fl" xMin="-168" yMin="-368" xMax="1025" yMax="1502">
      <contour>
        <pt x="242" y="1121" on="1"/>
        <pt x="318" y="1502" on="0"/>
        <pt x="730" y="1502" on="1"/>
        <pt x="899" y="1502" on="0"/>
        <pt x="1025" y="1432" on="1"/>
        <pt x="739" y="0" on="1"/>
        <pt x="634" y="0" on="1"/>
        <pt x="909" y="1378" on="1"/>
        <pt x="837" y="1412" on="0"/>
        <pt x="711" y="1412" on="1"/>
        <pt x="405" y="1412" on="0"/>
        <pt x="348" y="1129" on="1"/>
        <pt x="333" y="1050" on="1"/>
        <pt x="648" y="1050" on="1"/>
        <pt x="630" y="960" on="1"/>
        <pt x="315" y="960" on="1"/>
        <pt x="139" y="80" on="1"/>
        <pt x="75" y="-238" on="0"/>
        <pt x="-106" y="-368" on="1"/>
        <pt x="-168" y="-303" on="1"/>
        <pt x="-26" y="-218" on="0"/>
        <pt x="34" y="80" on="1"/>
      </contour>
    </TTGlyph>
    <TTGlyph name="florin" xMin="-158" yMin="-384" xMax="1071" yMax="1434">
      <contour>
        <pt x="1053" y="1340" on="1"/>
        <pt x="1030" y="1345" on="0"/>
        <pt x="1008" y="1345" on="1"/>
        <pt x="835" y="1345" on="0"/>
        <pt x="727" y="1070" on="1"/>
        <pt x="663" y="920" on="1"/>
        <pt x="873" y="920" on="1"/>
        <pt x="835" y="830" on="1"/>
        <pt x="625" y="830" on="1"/>
        <pt x="291" y="-20" on="1"/>
        <pt x="145" y="-384" on="0"/>
        <pt x="-107" y="-384" on="1"/>
        <pt x="-132" y="-384" on="0"/>
        <pt x="-158" y="-380" on="1"/>
        <pt x="-140" y="-290" on="1"/>
        <pt x="-117" y="-295" on="0"/>
        <pt x="-95" y="-295" on="1"/>
        <pt x="78" y="-295" on="0"/>
        <pt x="186" y="-20" on="1"/>
        <pt x="520" y="830" on="1"/>
        <pt x="340" y="830" on="1"/>
        <pt x="378" y="920" on="1"/>
        <pt x="558" y="920" on="1"/>
        <pt x="622" y="1070" on="1"/>
        <pt x="768" y="1434" on="0"/>
        <pt x="1020" y="1434" on="1"/>
        <pt x="1045" y="1434" on="0"/>
        <pt x="1071" y="1430" on="1"/>
      </contour>
    </TTGlyph>
    <TTGlyph name="four" xMin="-14" yMin="0" xMax="1082" yMax="1430">
      <contour>
        <pt x="845" y="0" on="1"/>
        <pt x="740" y="0" on="1"/>
        <pt x="808" y="340" on="1"/>
        <pt x="-14" y="340" on="1"/>
        <pt x="4" y="430" on="1"/>
        <pt x="829" y="1430" on="1"/>
        <pt x="943" y="1430" on="1"/>
        <pt x="117" y="430" on="1"/>
        <pt x="826" y="430" on="1"/>
        <pt x="940" y="998" on="1"/>
        <pt x="1045" y="998" on="1"/>
        <pt x="931" y="430" on="1"/>
        <pt x="1082" y="394" on="1"/>
        <pt x="1071" y="340" on="1"/>
        <pt x="913" y="340" on="1"/>
      </contour>
    </TTGlyph>
</ttFont>
